<svg xmlns="http://www.w3.org/2000/svg" fill="currentColor" viewBox="0 0 12 12"><title>checkout</title><path d="M10.82,8.23h-7l.35-.72H10a.41.41,0,0,0,.4-.33l.81-4.52a.39.39,0,0,0-.09-.33.42.42,0,0,0-.31-.15l-7.41,0-.06-.3a.42.42,0,0,0-.41-.33H1.13a.41.41,0,0,0-.41.42.41.41,0,0,0,.41.41H2.61l.27,1.32L3.56,7,2.69,8.39a.4.4,0,0,0,0,.43A.41.41,0,0,0,3,9.05h.74a1.18,1.18,0,0,0-.24.72,1.2,1.2,0,1,0,2.4,0,1.24,1.24,0,0,0-.24-.72H7.57a1.18,1.18,0,0,0-.24.72,1.2,1.2,0,1,0,2.4,0,1.24,1.24,0,0,0-.24-.72h1.33a.41.41,0,0,0,0-.82ZM3.58,3l6.75,0-.66,3.7H4.37Zm1.14,7.18a.36.36,0,0,1-.37-.37.37.37,0,0,1,.37-.37.38.38,0,0,1,.37.37A.37.37,0,0,1,4.72,10.14Zm3.81,0a.36.36,0,0,1-.37-.37.37.37,0,0,1,.37-.37.38.38,0,0,1,.37.37A.37.37,0,0,1,8.53,10.14Z"/></svg>
