<svg xmlns="http://www.w3.org/2000/svg" viewBox="0 0 533.28 104.34"><defs><style>.cls-1{fill:#030303;}.cls-2{fill:#fdcf89;}.cls-3{fill:#fdcf88;}.cls-4{fill:#87a7b0;}.cls-5{fill:#aabb3b;}.cls-6{fill:#ffc430;}.cls-7{fill:#48ac48;}.cls-8{fill:#df1f26;}.cls-9{fill:#f26722;}.cls-10{fill:#f9a238;}.cls-11{fill:#c71881;}.cls-12{fill:#54aa47;}.cls-13{fill:#4eaf48;}.cls-14{fill:#83c451;}.cls-15{fill:#eed4b3;}.cls-16{fill:#44aa48;}.cls-17{fill:#63a54d;}.cls-18{fill:#efc380;}.cls-19{fill:#ffd268;}.cls-20{fill:#fff;}.cls-21{fill:#f9f9fa;}.cls-22{fill:#352b25;}.cls-23{fill:#f9cc84;}.cls-24{fill:#b3c8ca;}.cls-25{fill:#e57c27;}.cls-26{fill:#ab516d;}.cls-27{fill:#046a39;}.cls-28{fill:#52a846;}</style></defs><title>logo-light</title><g id="Layer_2" data-name="Layer 2"><g id="Layer_1-2" data-name="Layer 1"><path class="cls-1" d="M118,90.44a10.59,10.59,0,0,1,1,1.2c.1.1.2.2.3.2H160c.6,0,.6,0,.6-.6.2-1.6.4-3.2.5-4.8l.4-3.7c.1-1.2.3-2.5.4-3.7s.3-2.5.4-3.7.3-2.5.4-3.7l.4-3.7c.1-1.2.3-2.5.4-3.7.1-.5.1-1,.2-1.5A3,3,0,0,1,166,60a2.2,2.2,0,0,1,.8-.1h13.1a10.36,10.36,0,0,1,3.9.7,9.36,9.36,0,0,1,4.9,4.3c2.2,4.1,4.5,8.2,6.7,12.3a10.48,10.48,0,0,1,1.1,6.3c-.1,1.2-.3,2.5-.4,3.7l-.5,3.9-.1.7a1.27,1.27,0,0,0,.6.1h.5a1.13,1.13,0,0,1,1.1,1.2,2.49,2.49,0,0,1-.1.8c-.1.7-.1,1.4-.2,2.1a1.52,1.52,0,0,1-1.5,1.4h-8.7c-.1,0-.3.1-.3.2h0l-.1.2a8.92,8.92,0,0,1-6.8,6.3,7.53,7.53,0,0,1-4.9-.5,6.59,6.59,0,0,1-3.8-5.3c0-.3-.1-.5-.1-.8a.35.35,0,0,0-.1-.2H120.3c-.6,0-.5-.1-.7.6a8.78,8.78,0,0,1-6.8,6.2,7.24,7.24,0,0,1-4.8-.5,6.64,6.64,0,0,1-3.8-5.2c0-.3-.1-.6-.1-.9a.1.1,0,0,0-.1-.1H88.8a1.13,1.13,0,0,1-1.1-1.2v-.1c.1-.9.2-1.8.3-2.8a1.6,1.6,0,0,1,1.5-1.4h16.3a.71.71,0,0,0,.6-.3l1.1-1.1.5-.3a8,8,0,0,1,6-1.5,7.34,7.34,0,0,1,3.5,1.5l.5.2M174.9,63h-4.7c-.2,0-.2,0-.2.2l-.6,5.4-.5,5c-.1.6-.1,1.2-.2,1.8,0,.2,0,.2.2.3l3.6.6,4.5.7,5.2.9,4.6.8,1.7.3a1.46,1.46,0,0,0,1.6-1.2,2.2,2.2,0,0,0-.1-.8c-.1-.1-.1-.2-.2-.3-1.5-2.8-3-5.6-4.5-8.5l-1.1-2.1a5.48,5.48,0,0,0-2.7-2.5,6.26,6.26,0,0,0-2.7-.6h-3.9m4.1,38c.3,0,.7-.1,1-.1a5.28,5.28,0,0,0,3.6-2.9,4.93,4.93,0,0,0,.4-3.4,4.06,4.06,0,0,0-4.8-2.9,5.22,5.22,0,0,0-4,3,4.48,4.48,0,0,0-.4,3.4A3.94,3.94,0,0,0,179,101m-67.3.1c.4,0,.7-.1,1.1-.1a5.21,5.21,0,0,0,3.7-3.2,4.74,4.74,0,0,0,.2-3.1,4.21,4.21,0,0,0-4.8-3,5.21,5.21,0,0,0-4,2.9,4.74,4.74,0,0,0-.4,3.5,4.21,4.21,0,0,0,4.2,3m63.5-20.8a.91.91,0,0,0,.8-.4c.1-.2.1-.5-.1-.6h-.1c-.1-.1-.3-.1-.4-.2a3.4,3.4,0,0,0-1-.1l-2.2.2a6.93,6.93,0,0,0-2,.3,5,5,0,0,1-1.7.2h-.1a.1.1,0,0,1-.1.1v.1c.1,0,.2.1.3.1.4.1.9.1,1.4.2,1,.1,2,.1,2.9.1a13.4,13.4,0,0,1,2,.1.37.37,0,0,1,.3-.1"/><path class="cls-2" d="M118,90.34l-.4-.3a7.34,7.34,0,0,0-3.5-1.5,8.5,8.5,0,0,0-6,1.5l-.5.3H91.3c-.9,0-.8,0-.8-.8,0-.4.1-.8.1-1.2a9.85,9.85,0,0,1,.2-1.7l1.2.3a17,17,0,0,0,2.2.4,4.1,4.1,0,0,0,1.1.1,9.7,9.7,0,0,0,1.7.1h.2a1.27,1.27,0,0,0,.6.1h5.3a4.48,4.48,0,0,1,1.1-.1h.5a2.77,2.77,0,0,1,.9-.1h.4c.5-.2,1,0,1.5-.2a11,11,0,0,0,1.8-.2,20.48,20.48,0,0,0,2.4-.5l.6-.3c.1-.1.3-.2.3-.3s-.2-.2-.3-.3h-.2a5.08,5.08,0,0,0-1.7-.3,5,5,0,0,1-1.2-.2c-.2,0-.4-.1-.6-.1a2.2,2.2,0,0,1-.8-.1h-.9c-.1,0-.1,0-.1.1h0c0,.1,0,.1.1.1.3,0,.7.1,1,.1a14.16,14.16,0,0,1,2,.4c.3.1.5.2.8.3.1.1.1.2,0,.2h0a.86.86,0,0,1-.6.3,15.52,15.52,0,0,1-2.1.4,3.75,3.75,0,0,0-1.1.1,4.1,4.1,0,0,1-1.1.1h-.2a3.4,3.4,0,0,1-1,.1H104a4.1,4.1,0,0,1-1.1.1h-1.4c-.5,0-.7.1-1,.1s-.7-.2-1-.1a2.72,2.72,0,0,1-.9,0c-.7.1-1.4-.2-2.2-.1h-.1a8,8,0,0,0-1.5-.3,16,16,0,0,1-2.1-.5l-.2-.1c-.2-.1-.2-.3-.1-.5a.1.1,0,0,1,.1-.1.76.76,0,0,1,.5-.2,7.37,7.37,0,0,1,1.4-.4,5.85,5.85,0,0,1,1.3-.2.76.76,0,0,0,.5-.2H95.1c-.5.1-1.1.1-1.7.2s-.9.1-1.3.2l-1.3.3V85a2.92,2.92,0,0,0,.9-.2,18.29,18.29,0,0,1,2.5-.6,19.67,19.67,0,0,1,2.4-.3H97a4.87,4.87,0,0,1,1.2-.1h.4c.2,0,.4-.1.6-.1h3.3a2.49,2.49,0,0,0,.8.1h.8a5.28,5.28,0,0,0,1.3.1h.2a8.81,8.81,0,0,0,1.7.2l2,.3c.1,0,.2.1.3.1a4.25,4.25,0,0,1,1.1.2c.5.1,1,.3,1.6.4.1,0,.2.1.3.1s.1,0,.2-.1v-.2a1.28,1.28,0,0,0-.7-.5l-1.4-.3c-.5-.1-.7-.1-1.1-.2a6.75,6.75,0,0,0-1.4-.2h-.3a1.48,1.48,0,0,0-.7-.1h-.4a4.1,4.1,0,0,0-1.1-.1h-.6a1.27,1.27,0,0,0-.6-.1,13.4,13.4,0,0,1-2-.1h-.2c-1.4,0-2.8,0-4.1.1-.7.1-1.3,0-2,.1s-1.4.1-2,.2a13.1,13.1,0,0,0-2.7.6h-.2a2.77,2.77,0,0,1,.1-.9,4.48,4.48,0,0,0,.1-1.1,8.75,8.75,0,0,1,.2-1.6,11.24,11.24,0,0,0,.2-2,.22.22,0,0,1,.2-.2h21c0,.1-.1.2-.3.2h-.7c-.4.1-.9.1-1.4.2s-1.2.2-1.7.3-.4.1-.5.5c0,.1-.1.2-.1.3s0,.3.2.3h.1c1,.3,2,.4,3,.6.3.1.7.1,1,.2s.7.1,1.1.2a7.08,7.08,0,0,0,1.4.1h.2a1.48,1.48,0,0,0,.7.1h.4a3.4,3.4,0,0,0,1,.1h.3a4.25,4.25,0,0,0,1.1.2h.5a5.28,5.28,0,0,0,1.3.1,5.7,5.7,0,0,1,1.3.1h8.7a2.2,2.2,0,0,1,.8-.1,17.7,17.7,0,0,1,2.3-.1h.2a1.7,1.7,0,0,1,.7-.1h.3c.4-.1.9-.1,1.4-.2s.8-.1,1.1-.2,1-.2,1.5-.3a15.46,15.46,0,0,0,2.3-.7.1.1,0,0,0,.1-.1h-.1a13.64,13.64,0,0,1-1.7.4c-.5.1-1.3.2-2,.3a4.87,4.87,0,0,1-1.2.1,11.08,11.08,0,0,1-1.9.2,6.05,6.05,0,0,0-1.5.2,5.28,5.28,0,0,1-1.2.1h-.5a1.7,1.7,0,0,1-.7.1h-1.4c-.2,0-.4.1-.6.1h-7a2.49,2.49,0,0,0-.8-.1h-.9a5.28,5.28,0,0,0-1.3-.1h-.3a1.7,1.7,0,0,0-.7-.1h-.4a5.85,5.85,0,0,0-1.3-.2l-1.2-.2a18.92,18.92,0,0,1-2.3-.5,4.33,4.33,0,0,1-1.2-.5.37.37,0,0,1-.1-.3l.1-.1.6-.3a23.25,23.25,0,0,1,2.8-.5,3.81,3.81,0,0,1,1.5-.1h.2a.9.9,0,0,1,.5-.1h.5a.22.22,0,0,0,.2-.2h27.2a.22.22,0,0,0,.2.2h.7c.5.2,1,0,1.5.2.3-.1.6.1.9.1a5.08,5.08,0,0,1,1.7.3l.9.3c.1,0,.1.2.1.2a.1.1,0,0,1-.1.1,3.55,3.55,0,0,1-.9.4,19.09,19.09,0,0,1-3.3.6c-.3,0-.6.1-.9.1a5.9,5.9,0,0,1-1.4.2,3.81,3.81,0,0,1-1.5.1h-.1a2.2,2.2,0,0,1-.8.1h-.3a3.4,3.4,0,0,1-1,.1H140a3.4,3.4,0,0,1-1,.1h-.4a7.57,7.57,0,0,1-1.5.1h-.5a1.7,1.7,0,0,1-.7.1c-.1,0-.2-.1-.3.1h5.5a2.77,2.77,0,0,1,.9-.1h1.7a1.7,1.7,0,0,1,.7-.1h1a3.4,3.4,0,0,1,1-.1h.3a3.4,3.4,0,0,1,1-.1h.3a1.27,1.27,0,0,1,.6-.1h.4a5.9,5.9,0,0,1,1.4-.2l1.1-.2a11,11,0,0,0,2.6-.6,5.64,5.64,0,0,0,1.2-.4c.1-.1.2-.1.3-.3s.1-.2,0-.2-.2-.1-.3-.2a6.89,6.89,0,0,0-.8-.3c-1-.2-2-.4-3-.5-.1,0-.2,0-.2-.2h8.1c.7,0,.7,0,.6.7a7.72,7.72,0,0,1-.2,1.5,7.08,7.08,0,0,0-.1,1.4,15.41,15.41,0,0,1-.2,1.9,8.08,8.08,0,0,0-.1,1.5,11.14,11.14,0,0,1-.2,1.7c0,.4-.1.8-.1,1.3s-.1.9-.1,1.4a.27.27,0,0,1-.3.3H118m15.7-9.3h.3c.1-.1.2-.1.3-.3v-.1h0c-.1-.1-.2-.1-.3-.2a13.64,13.64,0,0,0-1.7-.4,14.92,14.92,0,0,0-2.1-.2h-.1a4.19,4.19,0,0,0-1.6-.1H128a2.77,2.77,0,0,0-.9-.1h-1.4a43.41,43.41,0,0,0-5.1.1c-.7.1-1.4,0-2.1.1a16.41,16.41,0,0,1-2.3.2,14.16,14.16,0,0,0-2,.4c-.1,0-.2.1-.3.1s-.2.1-.1.2a.1.1,0,0,0,.1.1c.2.1.3.2.5.2a18.43,18.43,0,0,0,2.5.5,13.55,13.55,0,0,0,2,.2h.1a5.7,5.7,0,0,0,1.3.1h.4a2.2,2.2,0,0,0,.8.1H126a8.6,8.6,0,0,0,1.6-.1c.6-.1,1.2,0,1.8-.1s.9-.1,1.4-.2l1.9-.3a2.15,2.15,0,0,0,1-.2m7.9,7.2h1.6c.1,0,.3-.1.3-.2h.2l.1.1h1.3c.3,0,.6-.1.9-.1h.6a4.1,4.1,0,0,1,1.1-.1h.4a1.7,1.7,0,0,1,.7-.1h.4c.5-.2,1,0,1.5-.2.3,0,.6-.1.9-.1a12.86,12.86,0,0,0,1.9-.4c.1,0,.1-.1.2-.1a.22.22,0,0,0,.2-.2c0-.1-.1-.1-.1-.2-.2-.1-.4-.1-.6-.2a20.24,20.24,0,0,0-2.6-.4h-.2a4.48,4.48,0,0,0-1.1-.1h-.4a3.4,3.4,0,0,0-1-.1h-.7a1.7,1.7,0,0,0-.7-.1h-1.9a2.2,2.2,0,0,0-.8-.1h-2.1c-.2,0-.4-.1-.5.1H141a.22.22,0,0,0-.2-.2h-6.3c-.1,0-.1.1-.2.2H134a.37.37,0,0,0-.3-.1h-2.4a2.77,2.77,0,0,1-.9.1h-.9a2.77,2.77,0,0,1-.9.1h-.4c-.5.2-1,0-1.5.2l-1.9.3c-.2.1-.5.1-.6.3s.3.4.5.5l1.1.3a14.46,14.46,0,0,0,2.9.4h.2a1.7,1.7,0,0,0,.7.1h.4a3.4,3.4,0,0,0,1,.1h.3a8.08,8.08,0,0,0,1.6.1h.5a2.77,2.77,0,0,0,.9.1h6.5a.37.37,0,0,0,.3-.1l.5.1M139.2,89h3.7c.2,0,.4-.1.6-.1h1.6a2.77,2.77,0,0,1,.9-.1h.8a3.4,3.4,0,0,1,1-.1h.5a3.4,3.4,0,0,1,1-.1h.4a2.2,2.2,0,0,1,.8-.1h.4a.9.9,0,0,1,.5-.1h.4a7.72,7.72,0,0,1,1.5-.2c.4-.1.8-.1,1.2-.2.8-.1,1.6-.3,2.4-.4a4.13,4.13,0,0,0,1.1-.7l.2-.1v-.1H158a8.56,8.56,0,0,1-2.3.5,2.77,2.77,0,0,1-.9.1,6.75,6.75,0,0,0-1.4.2c-.3,0-.6.1-.9.1h-.2a2.77,2.77,0,0,1-.9.1h-.3a3.4,3.4,0,0,1-1,.1h-.5a4.48,4.48,0,0,1-1.1.1H148a2.77,2.77,0,0,1-.9.1h-.9a3.4,3.4,0,0,1-1,.1h-1.6a2.2,2.2,0,0,1-.8.1h-6.4a4.87,4.87,0,0,1-1.2-.1h-.3A12.1,12.1,0,0,1,133,88c-.5-.1-1,0-1.5-.1s-.8,0-1.2-.1l-1.9-.2a20,20,0,0,1-2.4-.4,4.42,4.42,0,0,1-1.5-.5h-.2c-.1.1-.1.1,0,.2h0a1.23,1.23,0,0,0,.8.4,22.09,22.09,0,0,0,3.7.8c.5.1,1,.1,1.4.2a4.87,4.87,0,0,0,1.2.1,13.4,13.4,0,0,0,2,.1h.2a1.7,1.7,0,0,0,.7.1h1a3.4,3.4,0,0,0,1,.1h2.8m-38.3-1.6h1.6a17.7,17.7,0,0,1,2.3-.1h.2a1.27,1.27,0,0,1,.6-.1.9.9,0,0,0,.5-.1c.3-.1.7-.1,1.1-.2a1.61,1.61,0,0,0,.9-.3c.1,0,.1-.1.1-.2a.22.22,0,0,0-.2-.2,15.52,15.52,0,0,0-2.1-.4h-.3a3.4,3.4,0,0,0-1-.1h-.1a.1.1,0,0,0-.1.1v.1c.1,0,.1,0,.2.1s.2.2,0,.3a5.73,5.73,0,0,1-1.4.4.1.1,0,0,1-.1-.1v-.1c.1,0,.1,0,.2-.1a.1.1,0,0,0,0-.2c-.3-.1-.6-.1-.9-.2a2,2,0,0,1-1.1-.1H101a2.77,2.77,0,0,1-.9.1,1,1,0,0,0-.7.2v.2a.6.6,0,0,0,.4.1h.6a3.3,3.3,0,0,0,1.4,0,.64.64,0,0,1,.6,0c.1,0,.1,0,.1.1s0,.1-.1.1c-.3,0-.6.1-1,.1a8.13,8.13,0,0,1-2.2-.1,5.27,5.27,0,0,1-1.2-.3c-.1-.1-.2-.1-.2-.2s.2-.2.3-.3.3,0,.5-.1v-.1a.1.1,0,0,0-.1-.1h-.2a1.7,1.7,0,0,1-.7.1h-.3c-.4.1-.9.1-1.3.2a2.93,2.93,0,0,0-1,.3c-.1.1-.1.1,0,.2h0a.55.55,0,0,0,.5.3,10,10,0,0,0,2.4.4h.2a3.4,3.4,0,0,0,1,.1h1.8m56.9-6.7a.65.65,0,0,0,.6.6h0a.79.79,0,0,0,.8-.8.65.65,0,0,0-.6-.6h0a.79.79,0,0,0-.8.8M93.7,80a.65.65,0,0,0-.6-.6h0a.86.86,0,0,0-.8.8.65.65,0,0,0,.6.6h0a.74.74,0,0,0,.8-.8m63.1,9a.65.65,0,0,0,.6.6h0a.79.79,0,0,0,.8-.8.65.65,0,0,0-.6-.6h0c-.4.1-.8.4-.8.8m-64.7-.7a.86.86,0,0,0-.8.8.65.65,0,0,0,.6.6h0a.86.86,0,0,0,.8-.8.58.58,0,0,0-.6-.6h0m14-3.3h0l-.2.1c-.1.1,0,.1.1.1h.4l.1-.1c0-.1,0-.1-.1-.1h-.2m-2.3.6c-.1,0-.2,0-.1.1l.1.1h.1c.1,0,.1,0,.1-.1a.1.1,0,0,0-.1-.1h-.1M97.2,85v-.1a.19.19,0,0,0-.3,0V85a.19.19,0,0,0,.3,0h0m8.4,0h0"/><path class="cls-3" d="M117.9,65.24H122a.22.22,0,0,1-.2.2c-.3,0-.6.1-1,.1a9.85,9.85,0,0,1-1.7.2,12.09,12.09,0,0,0-1.8.5.52.52,0,0,0-.4.2.25.25,0,0,0-.1.4.1.1,0,0,0,.1.1c.1.1.2.1.4.2a9.36,9.36,0,0,0,1.6.4l1.1.2c.5.1,1,.1,1.5.2a1.27,1.27,0,0,1,.6.1.64.64,0,0,0,.6,0,.1.1,0,0,0,.1-.1v-.1h-.2a4.87,4.87,0,0,1-1.1-.4c-.4-.2-.3-.3-.1-.5a.76.76,0,0,1,.4-.2,12.09,12.09,0,0,1,1.8-.5,8.42,8.42,0,0,1,2.7-.4h.5a6.45,6.45,0,0,1,2,.3,6.11,6.11,0,0,1,1.4.7.38.38,0,0,1,0,.7l-.9.3c-.1,0-.1,0-.2.1s.1.1.2.1h.5a5,5,0,0,1,1.2-.2,10.15,10.15,0,0,0,2.5-.6,1.38,1.38,0,0,0,.4-.3c.2-.1.2-.4,0-.6h0c-.1-.1-.2-.2-.3-.2a4.28,4.28,0,0,0-1.6-.5,5.9,5.9,0,0,0-1.4-.2.22.22,0,0,1-.2-.2h3.8c0,.1,0,.1.1.2a.6.6,0,0,0,.4.1,6.19,6.19,0,0,1,1.9.7,1.38,1.38,0,0,1,.4.3.48.48,0,0,1,0,.7,1.38,1.38,0,0,1-.4.3,8.65,8.65,0,0,1-1.7.7,8.47,8.47,0,0,1-1.7.4,21.66,21.66,0,0,1-2.5.4,1.42,1.42,0,0,0-.6.2h1.3a11,11,0,0,0,1.8-.2c.5.1.9-.2,1.4-.1.8-.2,1.7-.3,2.5-.5a7.37,7.37,0,0,0,1.4-.4,1.8,1.8,0,0,0,.9-.6.48.48,0,0,0,0-.7,1,1,0,0,0-.5-.4,15.39,15.39,0,0,0-1.9-.8.22.22,0,0,1-.2-.2h24c.3,0,.4.1.4.4-.1.8-.2,1.7-.3,2.5a8.08,8.08,0,0,0-.1,1.6c0,.6-.1.9-.1,1.4,0,.3-.1.6-.1.9s0,.3-.1.4h-.2a6.28,6.28,0,0,0-1.9-.3,3.81,3.81,0,0,0-1.5-.1h-.2a3.4,3.4,0,0,0-1-.1h-.5a2.77,2.77,0,0,0-.9-.1h-.8a7.57,7.57,0,0,0-1.5-.1h-.7a3.4,3.4,0,0,0-1-.1h-2.4a.37.37,0,0,0-.3-.1H144a4.33,4.33,0,0,0-1.6.1h-.2a27.15,27.15,0,0,0-2.8.1c-.6.1-1.2,0-1.8.1a7.08,7.08,0,0,1-1.4.1l-2,.3c-.2,0-.3.1-.5.1a9.36,9.36,0,0,0-1.6.4c-.1.1-.3.1-.4.2s-.2.3-.1.4l.1.1a2.51,2.51,0,0,0,.7.4,12.09,12.09,0,0,0,1.8.5,3.08,3.08,0,0,0,1,.1l1.8.3a7.57,7.57,0,0,0,1.5.1h.1a4.48,4.48,0,0,0,1.1.1,1.27,1.27,0,0,1,.6.1c.1,0,.3.1.4.1h1.1c.2,0,.3,0,.4.1s.4.1.6.1h3.9a2.77,2.77,0,0,1,.9-.1h1.7a2.77,2.77,0,0,1,.9-.1h.9a3.4,3.4,0,0,1,1-.1h.4a2.2,2.2,0,0,1,.8-.1h.4a3.4,3.4,0,0,1,1-.1.6.6,0,0,0,.4-.1h.9c.5-.1,1-.1,1.4-.2s1.2-.2,1.8-.3a3.55,3.55,0,0,1,1-.2,4.87,4.87,0,0,1-.1,1.2H159a1.27,1.27,0,0,0-.6.1H158a3.4,3.4,0,0,1-1,.1h-.2a3.4,3.4,0,0,1-1,.1h-.4a4.48,4.48,0,0,1-1.1.1h-.5a4.87,4.87,0,0,1-1.2.1H152a1.7,1.7,0,0,1-.7.1h-2a1.27,1.27,0,0,1-.6.1H144a2.77,2.77,0,0,0-.9-.1h-1.2a4.87,4.87,0,0,0-1.2-.1l-1.6-.1c-.3,0-.5-.1-.8-.1a4.48,4.48,0,0,0-1.1-.1l-1.2-.2c-.4-.1-.8-.1-1.1-.2-.6-.1-1.1-.3-1.7-.4a3.81,3.81,0,0,1-1.7-.8.3.3,0,0,0,0,.4c.1.1.2.2.3.2a5.36,5.36,0,0,0,1.1.5,23.55,23.55,0,0,0,4.6,1l1,.1a6.75,6.75,0,0,0,1.4.2,9.7,9.7,0,0,0,1.7.1h.1a2.77,2.77,0,0,0,.9.1,6.15,6.15,0,0,1,1.3.1h5.8a4.48,4.48,0,0,1,1.1-.1h1a4.87,4.87,0,0,1,1.2-.1h.4a4.48,4.48,0,0,1,1.1-.1h.3a1.7,1.7,0,0,1,.7-.1h.4a2.2,2.2,0,0,1,.8-.1h.3a4.1,4.1,0,0,1,1.1-.1h0a.63.63,0,0,0,.6.5.75.75,0,0,0,.7-.5c0-.1.1-.2.1-.3a1.27,1.27,0,0,0,.6-.1,3.4,3.4,0,0,1-.1,1,.37.37,0,0,1-.1.3.22.22,0,0,1-.2.2H92.2c-.2,0-.3-.1-.2-.3a2.77,2.77,0,0,0,.1-.9,7.72,7.72,0,0,1,.2-1.5,4.91,4.91,0,0,0,.1-1.1,8.75,8.75,0,0,1,.2-1.6c.1-.5.1-1,.2-1.5s0-.8.1-1.2.1-1,.2-1.5.1-1.1.2-1.7c0-.3.1-.3.4-.3h21.5c0,.1,0,.2-.1.2l-.6.1a23.35,23.35,0,0,0-2.5.7,2.07,2.07,0,0,0-1,.6c-.2.2-.2.3,0,.5a2.18,2.18,0,0,0,.8.5,23.28,23.28,0,0,0,3.8.8,4.87,4.87,0,0,0,1.2.1c.2,0,.4.1.7.1a9.7,9.7,0,0,0,1.7.1c.1,0,.1,0,.2.1a2.44,2.44,0,0,0,1.2,0,.1.1,0,0,0,.1-.1h0a.1.1,0,0,0-.1-.1c-.4,0-.7-.1-1.1-.1l-1.8-.3c-.8-.2-1.6-.3-2.4-.5a4.71,4.71,0,0,1-1.5-.6c-.2-.1-.4-.2-.4-.5s.3-.4.5-.5a13.23,13.23,0,0,1,3.3-.8c.2,0,.2-.1.2-.3h.2a.2.2,0,1,0,.4,0m8.4,6.2h2.9a3.4,3.4,0,0,1,1-.1,10.87,10.87,0,0,1,1.8-.1h.1a1.27,1.27,0,0,1,.6-.1h.4l1.7-.3a16,16,0,0,0,3.1-1,5.36,5.36,0,0,0,1.1-.5,4.35,4.35,0,0,0,.7-.6.44.44,0,0,0,.1-.5.37.37,0,0,0-.1-.3c-.1-.1-.2,0-.3.1a9.15,9.15,0,0,1-1.7.9,18.87,18.87,0,0,1-3.4.9l-1.4.3c-.5.1-.9.1-1.4.2s-.9.1-1.3.2a3.4,3.4,0,0,0-1,.1h-1.4a1.7,1.7,0,0,0-.7.1,2.44,2.44,0,0,1-1.2,0,2.2,2.2,0,0,0-.8-.1h-1.7a2.77,2.77,0,0,0-.9-.1h-.4a8.75,8.75,0,0,0-1.6-.2,11,11,0,0,0-1.8-.2c-.6,0-1.1-.2-1.7-.2a28,28,0,0,1-2.8-.6,17.6,17.6,0,0,1-3-1c-.1,0-.1-.1-.2-.1s-.3,0-.3.2a.78.78,0,0,0,.2.8,3,3,0,0,0,.7.5,10.27,10.27,0,0,0,2.5.7,29.31,29.31,0,0,0,2.9.5,9.85,9.85,0,0,0,1.7.2h.2a1.7,1.7,0,0,0,.7.1h.4a3.4,3.4,0,0,0,1,.1h.4a4.1,4.1,0,0,0,1.1.1h.8a2.77,2.77,0,0,0,.9.1h2.2m-19.5.9a1.88,1.88,0,0,0,.8.2,3.59,3.59,0,0,1,1.1.2c.6.1,1.2.3,1.8.4a3.55,3.55,0,0,1,.9.4c.1.1.2.2.1.4l-.1.1c-.1.1-.2.1-.4.2a10.46,10.46,0,0,1-1.7.4,8.81,8.81,0,0,1-1.7.2,7.57,7.57,0,0,1-1.5.1h-.1a2.77,2.77,0,0,1-.9.1,3.75,3.75,0,0,0-1.1.1h-2.8a3.4,3.4,0,0,0-1-.1H100a5.9,5.9,0,0,0-1.4-.2,16,16,0,0,1-2.1-.5c-.2-.1-.3-.1-.5-.2s-.2-.3-.1-.5a.1.1,0,0,1,.1-.1l.2-.2a11.73,11.73,0,0,1,1.1-.5l1-.3.8-.2v-.1h-.2a5.7,5.7,0,0,1-1.3.1,15.54,15.54,0,0,0-2.3.5,2.47,2.47,0,0,0-.9.4c-.1.1-.2.3-.1.4l.1.1a2.07,2.07,0,0,0,1,.6,15.54,15.54,0,0,0,3.1.7,13.55,13.55,0,0,0,2,.2h.2a4.48,4.48,0,0,0,1.1.1h2.5a2.77,2.77,0,0,1,.9-.1h.6c.5-.2,1.1,0,1.6-.2a7.61,7.61,0,0,0,2.1-.3,24.37,24.37,0,0,0,2.6-.6l.9-.3a.78.78,0,0,0,.4-.4c.1-.1.1-.2,0-.2h0a1.49,1.49,0,0,0-.7-.3,12.66,12.66,0,0,0-2.8-.6,8.6,8.6,0,0,0-1.6-.1h-.2a2,2,0,0,0-1.1,0m-4.2-1.2a21.75,21.75,0,0,0-2.6.1h-.1a3.75,3.75,0,0,0-1.1.1l-1.8.3a6.07,6.07,0,0,0-1.8.5,3.75,3.75,0,0,0-1.2.7.37.37,0,0,0-.1.3c0,.2.1.3.3.2l.4-.2a4.18,4.18,0,0,1,1-.4,10.55,10.55,0,0,1,1.9-.5l2-.3a4.88,4.88,0,0,1,1.7-.1h.2a1.7,1.7,0,0,1,.7-.1,17.7,17.7,0,0,1,2.3.1c.5.1,1.1,0,1.7.1s.9.1,1.4.2l2.1.3a7.94,7.94,0,0,1,2.2.6c.4.1.7.3,1.1.4.1.1.3-.1.3-.2s0-.1-.1-.2a2,2,0,0,0-.7-.6l-.8-.2a18.43,18.43,0,0,0-2.5-.5,12.25,12.25,0,0,0-1.9-.2h-.1a6.15,6.15,0,0,0-1.4-.1h-.3a2.77,2.77,0,0,0-.9-.1l-1.9-.2m2.6,2.2c.1.1.2.2.3.2l.7.2c.1,0,.2.2.2.3a.22.22,0,0,1-.2.2c-.4.1-.8.3-1.2.4l-1.3.3c-.3,0-.6-.1-.9-.1a10.46,10.46,0,0,1-1.7-.4l-.6-.3a.19.19,0,0,1,0-.3l.1-.1a1.93,1.93,0,0,1,1-.3c.1,0,.1,0,.2-.1v-.1h-.3a8.81,8.81,0,0,1-1.7.2,12.44,12.44,0,0,0-1.6.4c-.2,0-.3.1-.4.3s-.2.3,0,.4a1.33,1.33,0,0,0,.8.3,13.51,13.51,0,0,0,2.8.4,2,2,0,0,1,.8.1.45.45,0,0,0,.5,0,6.15,6.15,0,0,1,1.4-.1h.8c.5-.1,1.1-.1,1.7-.2l2-.4a.85.85,0,0,0,.5-.3.19.19,0,0,0,0-.3h0l-.3-.1a10.27,10.27,0,0,0-2.4-.5h-.3a2.77,2.77,0,0,0-.9-.1m-2,1h.7a3.55,3.55,0,0,0,1-.2l.1-.1c0-.1,0-.1-.1-.1a1.27,1.27,0,0,0-.6-.1,4.1,4.1,0,0,1-1.1-.1h-.2a2.49,2.49,0,0,1-.8.1c-.2,0-.3.1-.4.1s-.1.1-.1.2h0c0,.1.1.1.2.1a3,3,0,0,0,1.3.1m56.6-7.3a.79.79,0,0,0,.8-.8.65.65,0,0,0-.6-.6h0a.79.79,0,0,0-.8.8.65.65,0,0,0,.6.6m-65.7,8.1a.65.65,0,0,0-.6-.6.86.86,0,0,0-.8.8.65.65,0,0,0,.6.6h0a.86.86,0,0,0,.8-.8m.2-8.1a.79.79,0,0,0,.8-.8.65.65,0,0,0-.6-.6.79.79,0,0,0-.8.8.58.58,0,0,0,.6.6h0m26.9,1.9h.3l.1-.1a.1.1,0,0,0-.1-.1.64.64,0,0,0-.6,0v.2h.3m8.5.1h.2a.1.1,0,0,0,.1-.1v-.1a.3.3,0,0,0-.4,0v.1l.1.1m-30.2,3.5h.2a.1.1,0,0,0,.1-.1v-.1h-.3l-.1.1v.1h.1m15.7-20.5h47c.6,0,.6,0,.5.5-.1.8-.2,1.7-.3,2.5v.5a1.27,1.27,0,0,1-.1.6l-1.3.3a9.86,9.86,0,0,1-2.4.3h-.6a5.85,5.85,0,0,1-2.2-.5c-.2-.1-.3-.1-.5-.2a.52.52,0,0,1-.2-.4.22.22,0,0,1,.2-.2c.1-.1.3-.1.4-.2a1.85,1.85,0,0,0,.7-.2c.1,0,.2,0,.2-.1a19.27,19.27,0,0,0-2.4.1h-.1l-1.1.2a3.36,3.36,0,0,0-1.4.5c-.1.1-.2.2-.1.3a.1.1,0,0,0,.1.1c.1.1.2.2.3.2a2.35,2.35,0,0,0,.8.2,9.86,9.86,0,0,0,2.4.3h.3a1.27,1.27,0,0,0,.6.1H161a7.57,7.57,0,0,1,1.5-.1v.2a3.4,3.4,0,0,1-1,.1h-1.1a3.4,3.4,0,0,1-1,.1c-1.3,0-2.7,0-4-.1-.5-.1-1,0-1.5-.1s-.7,0-1.1-.1l-1.7-.3a12.09,12.09,0,0,1-1.8-.5c-.2-.1-.4-.3-.3-.5s.1-.2.2-.3l.6-.3L151,55a15.52,15.52,0,0,1,2.1-.4c.1,0,.3.1.4-.1s-.1-.1-.4-.1a3.4,3.4,0,0,0-1,.1,5.28,5.28,0,0,1-1.3.1l-1.7.3c-.6.1-1,.2-1.4.3-.2.1-.5.2-.7.3a.38.38,0,0,0-.1.6.1.1,0,0,0,.1.1,1.49,1.49,0,0,0,.7.3,26.81,26.81,0,0,0,2.7.7,5.85,5.85,0,0,0,1.3.2,11.08,11.08,0,0,0,1.9.2c.7,0,1.1.1,1.7.1h5.5a1.7,1.7,0,0,1,.7-.1h1a7.57,7.57,0,0,0-.1,1.5.9.9,0,0,1-.1.5c-.1.6-.1,1.3-.2,1.9,0,.4-.1.8-.1,1.3,0,.2-.1.2-.3.2H94.1c-.7,0-.8.1-.6-.7.1-.5.1-.9.2-1.4s.1-1.1.2-1.6a7.72,7.72,0,0,0,.2-1.5,7.72,7.72,0,0,1,.2-1.5c0-.2,0-.3.1-.4a2.92,2.92,0,0,0,.9.2,4.25,4.25,0,0,1,1.1.2l1.8.3a7.08,7.08,0,0,0,1.4.1h.2a1.7,1.7,0,0,0,.7.1h.4a6.15,6.15,0,0,0,1.4.1h.3a2.77,2.77,0,0,0,.9.1h1.7a2.2,2.2,0,0,1,.8.1,3.79,3.79,0,0,0,1.5,0,3.4,3.4,0,0,1,1-.1h1.9a2.2,2.2,0,0,1,.8-.1,2.2,2.2,0,0,0,.8-.1h.3a9.85,9.85,0,0,0,1.7-.2,6.75,6.75,0,0,1,1.4-.2,14.16,14.16,0,0,0,2-.4,15.87,15.87,0,0,0,2-.7,2.19,2.19,0,0,0,.5-.3v-.1h-.1l-.2.1a2.93,2.93,0,0,1-1,.3c-.8.2-1.6.4-2.3.5a11.27,11.27,0,0,1-1.8.3h-.2c-.4.1-.8.1-1.1.2a8.08,8.08,0,0,1-1.6.1h-.1a3.4,3.4,0,0,1-1,.1h-.4a4.1,4.1,0,0,1-1.1.1h-1.1a4.48,4.48,0,0,1-1.1.1h-2.9a2.77,2.77,0,0,0-.9-.1c-.8.1-1.5-.2-2.2-.1h-.6a5.7,5.7,0,0,0-1.3-.1,2.49,2.49,0,0,0-.8-.1,28.64,28.64,0,0,1-2.8-.7,1.7,1.7,0,0,0-.7-.1v-.4a13.55,13.55,0,0,0,.2-2c0-.2.1-.5.1-.7a.22.22,0,0,1,.2-.2h19.2c0,.1,0,.3.2.3h1c.2,0,.2-.1.2-.3m45.4.6H155a3.4,3.4,0,0,1-1,.1h-.6a8.75,8.75,0,0,1-1.6.2,9.85,9.85,0,0,1-1.7.2,14.34,14.34,0,0,0-2.8.7,1.79,1.79,0,0,0-.7.5c-.1.1-.2.3-.1.4s.1.3.3.2a11.92,11.92,0,0,1,2-.8c.5-.2,1-.2,1.6-.4a15.44,15.44,0,0,1,3-.4h.2a2.77,2.77,0,0,1,.9-.1h.4a2.2,2.2,0,0,1,.8-.1h5c0,.2,0,.3.1.4a.6.6,0,0,0,.6.3.85.85,0,0,0,.8-.7.56.56,0,0,0-.5-.6h-.1a.75.75,0,0,1-.5.1m-64.4.6a1.27,1.27,0,0,1,.6-.1,6.6,6.6,0,0,1,1.4-.1h.2a1.7,1.7,0,0,1,.7-.1h.5a5.7,5.7,0,0,1,1.3-.1h.4a2.2,2.2,0,0,1,.8-.1h2.2a6.73,6.73,0,0,1,2-.1h.3a2.77,2.77,0,0,0,.9.1h2.4a1.7,1.7,0,0,0,.7.1h.9a3.4,3.4,0,0,0,1,.1h.3a8.75,8.75,0,0,0,1.6.2c.6.1,1.2.2,1.9.3.2,0,.4.1.6.1a6.53,6.53,0,0,1,2,.5c.3.1.5.2.6.5h.1a.1.1,0,0,0,.1-.1.37.37,0,0,0-.1-.3c-.1-.2-.3-.3-.4-.4a6.12,6.12,0,0,1-1.2-.5,22.11,22.11,0,0,0-2.5-.5,3.4,3.4,0,0,0-1-.1,10.87,10.87,0,0,0-1.8-.1h-.1a4.1,4.1,0,0,0-1.1-.1h-.6a1.27,1.27,0,0,0-.6-.1h-7.7a2.49,2.49,0,0,1-.8.1,24.37,24.37,0,0,1-2.7.1h-.2a1.7,1.7,0,0,1-.7.1h-.4a8.75,8.75,0,0,1-1.6.2.37.37,0,0,0-.3-.1.72.72,0,0,0-.9.5.63.63,0,0,0,.4.8l.1.1v.1c-.1.3-.1.4.2.6a3.29,3.29,0,0,0,.6.3,8.65,8.65,0,0,0,2.3.6,6.75,6.75,0,0,0,1.4.2,9.7,9.7,0,0,0,1.7.1h.2a1.27,1.27,0,0,0,.6.1h4.2a3.4,3.4,0,0,1,1-.1h.5a1.7,1.7,0,0,1,.7-.1h.3l1.5-.3a6.07,6.07,0,0,0,1.8-.5h.1a.1.1,0,0,1,.1-.1c0-.1,0-.1-.1-.1h-.2a5,5,0,0,1-1.2.2,14.92,14.92,0,0,1-2.1.2h-.1a4.87,4.87,0,0,1-1.2.1h-3.5a3.4,3.4,0,0,0-1-.1h-.5a3.4,3.4,0,0,0-1-.1H102a7.72,7.72,0,0,0-1.5-.2A12.54,12.54,0,0,0,99,55c-.1,0-.2-.1-.3-.1v-.1h0a.1.1,0,0,1,.1-.1.6.6,0,0,1,.4-.1,7.08,7.08,0,0,1,1.4-.1h.2a3.4,3.4,0,0,1,1-.1h.5a4.1,4.1,0,0,1,1.1-.1h1a4.87,4.87,0,0,1,1.2-.1h2.3a7.57,7.57,0,0,1,1.5.1h.2a7.57,7.57,0,0,1,1.5.1,11.08,11.08,0,0,0,1.9.2c.2,0,.4.1.4.3s.1.1.2,0,.2-.3,0-.4-.3-.2-.5-.2a14.19,14.19,0,0,0-2.2-.5c-.4-.1-.9-.1-1.3-.2s-1-.1-1.5-.2h-.6a1.27,1.27,0,0,0-.6-.1h-4.1a2.77,2.77,0,0,1-.9.1H101c-.6.1-1.1.1-1.7.2l-1.3.3a6.11,6.11,0,0,0-1.3.3c-.1,0-.2,0-.2-.1a4.08,4.08,0,0,1,.2-.7m17.5,3.8H119a3.4,3.4,0,0,1,1-.1,18.48,18.48,0,0,1,2.3-.1h.2a1.7,1.7,0,0,1,.7-.1h.5a5.9,5.9,0,0,1,1.4-.2,5,5,0,0,0,1.2-.2A25.58,25.58,0,0,0,129,56a15.19,15.19,0,0,0,2-.6,1.69,1.69,0,0,0,1-.7.3.3,0,0,0,0-.4h0l-.2-.2-.9-.3a18.92,18.92,0,0,0-2.3-.5A20.61,20.61,0,0,0,126,53h-.2a1.27,1.27,0,0,0-.6-.1h-.4a4.87,4.87,0,0,0-1.2-.1h-.4a3.4,3.4,0,0,0-1-.1H121a4.1,4.1,0,0,0-1.1-.1h-3.5a.1.1,0,0,0-.1.1c0,.1,0,.1.1.1h1.4a3.4,3.4,0,0,0,1,.1,9.7,9.7,0,0,0,1.7.1h.2a.6.6,0,0,0,.4.1,7.72,7.72,0,0,1,1.5.2,13.8,13.8,0,0,1,2,.3,22.11,22.11,0,0,1,2.5.5.76.76,0,0,1,.4.2c.4.2.4.4.1.7l-.1.1c-.3.1-.7.3-1,.4a14.19,14.19,0,0,1-2.2.5,18.66,18.66,0,0,1-2.5.4c-.3,0-.7.1-1,.1s-.9.1-1.3.2-1,.1-1.5.2-.8.1-1.2.1h-.2a1.27,1.27,0,0,1-.6.1,3.6,3.6,0,0,0-1.8.1m23.4,4.7h3.3a1.7,1.7,0,0,1,.7-.1h1c.6-.2,1.2,0,1.8-.2a11,11,0,0,1,1.8-.2,15.67,15.67,0,0,0,2.8-.6,6.12,6.12,0,0,0,1.2-.5c.2-.1.3-.2.3-.4s-.2-.3-.4-.3a5.64,5.64,0,0,0-1.2-.4,10.79,10.79,0,0,0-1.9-.3c-.3,0-.7-.1-1-.1a13.4,13.4,0,0,0-2-.1h-.2a1.7,1.7,0,0,0-.7-.1h-1.6a2.2,2.2,0,0,0-.8-.1h-4.1a21.75,21.75,0,0,0-2.6.1,4.84,4.84,0,0,1-1.7,0c-.3,0-.6-.2-.9.1h-.2c-.4,0-.7.1-1.1-.2-.1-.1-.3-.1-.3,0v.1a.5.5,0,0,1-.8,0,.21.21,0,0,0-.4,0c-.2.4-.4.4-.8.4h-.7c-.5.1-1,.1-1.5.2s-.8.1-1.2.2-1.1.2-1.6.3a1.33,1.33,0,0,0-.8.3c-.1,0-.1.2-.1.2l.1.1.1.1a1.69,1.69,0,0,0,1,.3,16.47,16.47,0,0,0,3.2.6l1,.1a5.9,5.9,0,0,0,1.4.2,9.7,9.7,0,0,0,1.7.1h.1a2.77,2.77,0,0,0,.9.1h.6a3.4,3.4,0,0,0,1,.1h1a4.1,4.1,0,0,0,1.1.1h2.5m-9.7-3.5h-2a1.27,1.27,0,0,0-.6.1h-2.1a6.6,6.6,0,0,1-1.4.1h-.6a1.27,1.27,0,0,1-.6.1,15.48,15.48,0,0,1-2.2.1h-.2a1.7,1.7,0,0,1-.7.1H117a1.7,1.7,0,0,1-.7.1c-.5,0-.9.1-1.4.1l-1.7.3a5.73,5.73,0,0,0-1.4.4l-.2.1a.37.37,0,0,0-.1.3.1.1,0,0,0,.1.1.31.31,0,0,0,.2.1l.9.3c1.1.2,2.2.5,3.3.6a3.4,3.4,0,0,1,1,.1,5.85,5.85,0,0,1,1.3.2,8.08,8.08,0,0,0,1.6.1h.1a11,11,0,0,0,1.8.2c.4.1.9,0,1.3.1a1.7,1.7,0,0,0,1,0c.3,0,.6.1,1,.1h1.6a1.7,1.7,0,0,0,.7.1h1.7a8.75,8.75,0,0,0-1.6-.2c-.5,0-1-.1-1.5-.1l-.9-.1a5,5,0,0,1-1.2-.2l-1.4-.2c-.4,0-.8-.1-1.1-.1-.6-.1-1.2-.2-1.7-.3a18,18,0,0,1-1.9-.5c-.2-.1-.5-.1-.5-.3s.3-.3.5-.4a14,14,0,0,1,2.8-.6,5,5,0,0,0,1.2-.2,14.92,14.92,0,0,1,2.1-.2c.5,0,1-.1,1.5-.1h.6c.7-.1,1.3-.2,1.9-.3M105,55.24h1a3.92,3.92,0,0,0,1.8-.4.1.1,0,0,0,.1-.1h0a.1.1,0,0,0-.1-.1,5.85,5.85,0,0,0-1.3-.2,5.7,5.7,0,0,1-1.3-.1H105a3.75,3.75,0,0,1-1.1.1,5.85,5.85,0,0,0-1.3.2.35.35,0,0,0-.2.1c-.1.1,0,.1,0,.2a.1.1,0,0,0,.1.1,10.1,10.1,0,0,0,1.7.3h.8M94.4,62a.65.65,0,0,0,.6.6h0a.79.79,0,0,0,.8-.8.58.58,0,0,0-.6-.6h0a.79.79,0,0,0-.8.8m65.5,0a.65.65,0,0,0,.6.6h0a.86.86,0,0,0,.8-.8.65.65,0,0,0-.6-.6h0a.79.79,0,0,0-.8.8h0m-30,.5h.3v-.1a.1.1,0,0,0-.1-.1.64.64,0,0,0-.6,0s-.1.1,0,.1,0,.1,0,.1h.4m23.9-7.8h.3a.1.1,0,0,0,.1-.1v-.1h-.4a.1.1,0,0,0-.1.1v.1h.1"/><path class="cls-4" d="M99.9,35.14a3,3,0,0,0-.8.8,24.76,24.76,0,0,1-2.6,1.9,4.76,4.76,0,0,1-2.3.7,8.22,8.22,0,0,1-2.7-.2h-.1a.1.1,0,0,0-.1.1c.1.1.2.2.2.3A6.89,6.89,0,0,1,92.6,40a7.71,7.71,0,0,1,1.2,3.6,8.52,8.52,0,0,1-.3,3.2l-.1.3c-.1.4-.2.4-.5.2a12.56,12.56,0,0,1-2.2-2.4,3.79,3.79,0,0,1-.6-1.3,11.27,11.27,0,0,1-.5-3.2,7.72,7.72,0,0,1,.2-1.5l.2-.7a.9.9,0,0,0-.5-.1l-2.8.4c-.4,0-.7.1-1.1.1-.6.1-1.2.1-1.8.2s-1.3.1-2,.1c-1.1,0-2.2-.1-3.3-.2-.4,0-.8-.1-1.3-.1s-.5,0-.6.3-.4,1-.6,1.5c-.1.3-.2.3-.5.3s-.3,0-.4-.1a10.36,10.36,0,0,1-3.3-1.7,3.74,3.74,0,0,1-1.3-1.5A1,1,0,0,0,70,37c-.9-.3-1.8-.7-2.7-1.1s-1.7-1-2.6-1.5a36.17,36.17,0,0,1-3.2-2.2A26.58,26.58,0,0,1,58,29c-.3-.4-.7-.7-1-1.1a20,20,0,0,1-1.6-2.4,20,20,0,0,1-1-2.1c-.2-.5-.1-.8.5-1l3.5-.9a29.31,29.31,0,0,1,2.9-.5,13.33,13.33,0,0,1,2.8-.3c.4,0,.9-.1,1.3-.1a17.59,17.59,0,0,1,4.6.6,32.13,32.13,0,0,1,8.3,3.6,35.53,35.53,0,0,1,3.1,2.3c.5.5.9,1,1.4,1.5A32.78,32.78,0,0,1,86,33c.6.8,1.1,1.7,1.7,2.5a2.84,2.84,0,0,0,1,.9l1.6.9c.2.1.2.1.4,0s.3-.3.5-.5a16.32,16.32,0,0,1,2-1.7,6.6,6.6,0,0,1,2.8-.9,9.86,9.86,0,0,1,3.8.7c0,.1,0,.2.1.2h0m-36.4-4.9c.2,0,.3,0,.4-.1a6.09,6.09,0,0,0,1.6-1.6,8.63,8.63,0,0,0,1.6-4.1v-.7c-.2.1-.2.2-.2.3a12.47,12.47,0,0,1-1,2.7,9.73,9.73,0,0,1-2.2,3.1c0,.1-.1.2-.2.4Zm34.8,5.4H98a7.57,7.57,0,0,0-1.5.1l-1.9.3a13.16,13.16,0,0,0-3.9,1.5c-.1,0-.1.1-.1.2h.1l2-.3a2.49,2.49,0,0,1,.8-.1,5,5,0,0,0,1.2-.2,10.64,10.64,0,0,0,2.5-.9c.4-.2.7-.4,1.1-.6M93,45.94v-.6c-.1-.7-.3-1.4-.4-2.1a12.24,12.24,0,0,0-.9-2.7c-.2-.5-.5-.9-.7-1.4-.1-.1-.1-.4-.3-.3s-.1.3,0,.5c.1.7.3,1.3.4,2a10.55,10.55,0,0,0,.5,1.9c.3.7.6,1.3.9,2a3,3,0,0,0,.5.7m-31-23A1.11,1.11,0,0,0,60.9,24h0a1.16,1.16,0,0,0,1.2,1.2h0a1.15,1.15,0,0,0,1-1.3,1.1,1.1,0,0,0-1.1-1m15.8,5.2c0-.4,0-.5-.2-.6s-.2-.1-.2,0h0l-.6,1.2v.1a.6.6,0,0,0,.4.1.87.87,0,0,0,.6-.8m-3.5-2.7a.89.89,0,0,0,.8-.5A.74.74,0,0,0,75,24a.3.3,0,0,0-.4,0,10.91,10.91,0,0,1-.6,1.1v.1c0,.1,0,.1.1.1a.31.31,0,0,1,.2.1m-5,2.2a1,1,0,0,0,.8-.5.65.65,0,0,0-.2-.9h0a.19.19,0,0,0-.3,0c-.2.4-.3.7-.5,1.1-.1.2,0,.3.2.3M78.9,31a.76.76,0,0,0-.2-.5c-.2-.1-.3-.2-.4,0l-.5,1a.19.19,0,0,0,.1.3h.2a.86.86,0,0,0,.8-.8m-1,3a.76.76,0,0,0-.2-.5c-.1-.1-.3-.1-.3,0a10.91,10.91,0,0,1-.6,1.1c0,.1,0,.2.1.2H77c.4.2.8-.2.9-.8h0m3-1c0-.2,0-.4-.2-.5s-.3-.1-.4,0-.3.7-.5,1,.1.4.3.4a1,1,0,0,0,.8-.9m-9.6-9.5a1.42,1.42,0,0,0-.2-.6.37.37,0,0,0-.3-.1.1.1,0,0,0-.1.1,6.12,6.12,0,0,0-.5,1.2.37.37,0,0,0,.1.3h.1a.9.9,0,0,0,.9-.9m.5,8.5a.79.79,0,0,0,.8-.5.76.76,0,0,0-.2-.9c-.1-.1-.2-.1-.2,0a3.51,3.51,0,0,0-.6,1.4.22.22,0,0,0,.2.2m-.3-3a.76.76,0,0,0-.2-.5.3.3,0,0,0-.4,0c-.2.3-.3.7-.5,1-.1.1,0,.2.1.3h.1a.82.82,0,0,0,.9-.8h0m3.8.9c0-.2,0-.4-.2-.5a.3.3,0,0,0-.4,0,3.92,3.92,0,0,0-.4.9c-.1.1-.2.2-.1.4s.3.1.5.1a.8.8,0,0,0,.6-.9m-6.7.5c0-.2,0-.4-.2-.5a.3.3,0,0,0-.4,0,3.92,3.92,0,0,0-.4.9c-.1.1-.2.2-.1.4s.3.1.5.1a.8.8,0,0,0,.6-.9m4.6-2.5a1,1,0,0,0,.8-.5.63.63,0,0,0-.2-.8c-.1-.2-.3-.1-.3,0a9.29,9.29,0,0,0-.5,1v.1c0,.1,0,.2.1.2h.1m2,5.4a.86.86,0,0,0,.8-.8.76.76,0,0,0-.1-.4c-.1-.1-.2-.3-.3-.3s-.2.2-.2.3l-.1.2-.3.6c-.1.2,0,.3.2.3v.1Z"/><path class="cls-5" d="M109.3,33.54a13.36,13.36,0,0,1,1.8-.7,7.24,7.24,0,0,1,4.6,0,9.44,9.44,0,0,1,6.7,7.3,14.17,14.17,0,0,1,0,5.8,14.59,14.59,0,0,1-1.6,4.4c-.3.6-.2.5-.8.5H101.6a.76.76,0,0,1-.5-.2,8,8,0,0,1-1.3-1.9,9.31,9.31,0,0,1-1.2-4,9.58,9.58,0,0,1,1-5,9.94,9.94,0,0,1,5.2-4.7c.3-.1.7-.2,1-.3l1.2-.3.7-.3,1.6-.6"/><path class="cls-6" d="M161.3,33.54c.1.2.1.3.2.5a16.26,16.26,0,0,1,1.4,4.9,17.85,17.85,0,0,1,.1,4,22.31,22.31,0,0,1-.8,4.5c-.3,1-.6,1.9-.9,2.8,0,.1-.1.2-.1.4s-.1.2-.3.2h-1.3c0-.1-.1-.2-.1-.3A8.8,8.8,0,0,0,159,49a2.18,2.18,0,0,0-.5-.8.61.61,0,0,0-.8-.1.78.78,0,0,0-.4.4c-.5.6-1.2,1.1-1.7,1.6a.35.35,0,0,1-.5.1c-.1,0-.1-.1-.1-.2a3.55,3.55,0,0,1-.4-.9c-.3-.6-.6-1.3-.9-1.9a.54.54,0,0,0-.4-.3c-.1,0-.1.1-.2.1l-1.3,1-1.2,1c-.1.1-.2,0-.2-.1l-.9-2.1a1.38,1.38,0,0,0-.3-.4.76.76,0,0,0-.5-.2,1.09,1.09,0,0,0-.9.4l-1.3,1.3c-.3.3-.5.4-.7-.2v-.1l-1.1-2.8c-.1-.1-.1-.2-.2-.4s-.2-.2-.5-.1a2.7,2.7,0,0,0-.8.7l-1.5,1.2c-.5.4-.4.2-.5-.1a.9.9,0,0,1-.1-.5,7.84,7.84,0,0,0-.5-1.4.55.55,0,0,0-.5-.3c.1-.2.1-.4.2-.6a31.37,31.37,0,0,0,1.7-6.7,16.35,16.35,0,0,0,.2-2.2c0-.2.1-.3.1-.5a20.69,20.69,0,0,1,2.8-3.8,8.34,8.34,0,0,1,2.1-1.6l.2-.1.3-.1a8.37,8.37,0,0,1,5.2-.5,11.91,11.91,0,0,1,3.2,1,10.89,10.89,0,0,1,5.2,4.5c-.3,0-.2.1,0,.2m-6.2,8.7c.1,0,.2.1.3.2.5.8,1,1.7,1.6,2.5.3.5.4.5.8.1.6-.6,1.1-1.3,1.7-2l.3-.4a.76.76,0,0,0,.2-.4.19.19,0,0,0-.1-.3.19.19,0,0,0-.3,0l-.3.3-1.4,1.7-.4.4c-.2.2-.2,0-.2,0l-.1-.1-.9-1.5-.8-1.2a.25.25,0,0,0-.4-.1c-.1.1-.5.4-.8.7l-1.2,1.1c-.2.2-.4.1-.5-.1-.2-.5-.3-1.1-.5-1.6a6.37,6.37,0,0,1-.2-.7.75.75,0,0,0-.7-.5c-.1,0-.3.1-.3.2-.2.2-.4.3-.5.5a4.74,4.74,0,0,1-1,1c-.1.2-.4.2-.6.1l-.1-.1a2.18,2.18,0,0,1-.5-.8c-.2-.7-.5-1.3-.7-2a1.61,1.61,0,0,0-.4-.7.19.19,0,0,0-.3,0h0c-.7.5-1.5.9-2.2,1.4l-1.2.9c-.1.1-.2,0-.3-.1s-.1-.2-.1-.4a10.46,10.46,0,0,1-.4-1.7.37.37,0,0,0-.1-.3c-.1-.1-.2-.2-.4-.1a.1.1,0,0,0-.1.1.37.37,0,0,0-.1.3l.1.4a23.35,23.35,0,0,0,.7,2.5c0,.2.2.3.4.2h.1c.1,0,.2-.1.4-.2s.4-.3.6-.5c.8-.5,1.5-1,2.3-1.5.3-.2.4-.1.5.2l.9,2.4c0,.1.1.3.1.4a1,1,0,0,0,1.3.5c.1,0,.2-.1.3-.2l.3-.3,1-1,.2-.2c.1-.1.2,0,.3.1.2.6.4,1.2.6,1.9a3,3,0,0,0,.4.8.75.75,0,0,0,.9,0,5.72,5.72,0,0,0,.8-.7l1-.8c-.2-.3-.1-.4,0-.4m-2.6-7.1a.76.76,0,0,1,.2.4c.2.7.4,1.3.6,2,0,.1.1.3.1.4.3.5.6.6,1.2.1l.1-.1,1-1.4c.1-.1.2-.2.2-.3a.19.19,0,0,1,.3,0,.31.31,0,0,1,.1.2l.6,1.5a2.38,2.38,0,0,0,.6,1.1.74.74,0,0,0,.9.1,1.21,1.21,0,0,0,.5-.5,11.51,11.51,0,0,1,1.4-1.7c.2-.2.4-.5.6-.7a.3.3,0,0,0,0-.4h0a.3.3,0,0,0-.4,0l-.2.2a5.72,5.72,0,0,0-.7.8c-.4.5-.9,1-1.4,1.6-.1.1-.3.2-.4.1a.1.1,0,0,1-.1-.1,1.61,1.61,0,0,1-.4-.7c-.2-.6-.5-1.2-.7-1.8a1.21,1.21,0,0,0-.5-.5.19.19,0,0,0-.3,0,.76.76,0,0,0-.4.2l-.5.5-.9,1.2c-.2.2-.3.2-.4,0a6.37,6.37,0,0,1-.2-.7l-.7-2.1c-.1-.3-.3-.4-.6-.2s-.7.5-1.1.8a7,7,0,0,1-1,.8c-.4.2-.5.2-.6-.2,0-.1-.1-.2-.1-.3l-.5-2c0-.2-.1-.3-.2-.5s-.2-.3-.4-.2-.1.1-.2.1c-.7.7-1.5,1.2-2.2,2l-.2.2a.3.3,0,0,1-.4,0,.1.1,0,0,0-.1-.1,1.7,1.7,0,0,1-.1-.7,4.4,4.4,0,0,0-.2-1,.52.52,0,0,0-.2-.4c-.1,0-.2.2-.2.4s.1.5.1.7c.1.5.2.9.3,1.4s.6.7,1,.3a2.7,2.7,0,0,0,.8-.7,14.2,14.2,0,0,1,1.3-1.2c.1-.1.2-.1.2.1.2.7.4,1.3.6,2a1.42,1.42,0,0,0,.2.6.49.49,0,0,0,.6.3c.1,0,.3-.1.4-.1l1-.8a6.22,6.22,0,0,0,1.6-.7m3-1.9a1.42,1.42,0,0,1-.2-.6c0-.4-.1-.8-.1-1.1s-.2-.5-.6-.5a1.07,1.07,0,0,0-.6.2l-1.1.8-1.1.8h-.2a3.08,3.08,0,0,0-.3-1.3,3.58,3.58,0,0,0-.4-1.1.67.67,0,0,0-.7-.4,1.7,1.7,0,0,0-.7.1,2.94,2.94,0,0,0-1.2,1c-.1.1-.1.1-.1.2v.3a.19.19,0,0,0,.3,0c.1-.1.2-.1.3-.2a3.59,3.59,0,0,1,1-.7.48.48,0,0,1,.6.2V31c0,.1.1.2.1.3a6.47,6.47,0,0,1,.4,2c0,.2.1.3.1.4s.2.2.3.2a.1.1,0,0,0,.1-.1l.9-.6,1.6-1.2c.1-.1.2-.1.3-.2a.22.22,0,0,1,.2.2c0,.3.1.6.1.9,0,.5.1,1,.1,1.4a.32.32,0,0,0,.3.3c.1,0,.2,0,.2-.1s.3-.2.4-.4c.3-.4.6-.7.9-1.1s.4-.2.6.1c0,.1,0,.1.1.2a5.27,5.27,0,0,0,.3,1.2.76.76,0,0,0,.2.5c.1.1.3.2.4.1s.2-.2.1-.3l-.3-1.2-.3-1.2a.54.54,0,0,0-.7-.5.52.52,0,0,0-.4.2,4.35,4.35,0,0,0-.6.7c0,.2-.1.3-.3.4"/><path class="cls-7" d="M122.5,50.84a1.27,1.27,0,0,1,.1-.6,80.46,80.46,0,0,1,3-9.5c1-2.5,1.9-4.9,2.8-7.4a22.58,22.58,0,0,1,1.9-4.2,18.5,18.5,0,0,1,2.3-3.4,5.26,5.26,0,0,1,1.4-1.2,4,4,0,0,1,4.1-.2,4.7,4.7,0,0,1,2.2,2.2,6.49,6.49,0,0,1,.8,2.7,33.68,33.68,0,0,1-.1,5.5,32,32,0,0,1-2.6,10.1c-.8,1.9-1.6,3.8-2.5,5.6-.3.6-.2.5-.9.5H123a1.09,1.09,0,0,1-.5-.1m17.3-23.6v.1s.1,0,0-.1h0c-.1-.3-.3-.5-.5-.5a1,1,0,0,0-.8-.5.75.75,0,0,1-.5-.7h0c.3-.1.4-.3.3-.7a1.49,1.49,0,0,0-.3.7h-.1c-.3.1-.4.1-.6-.2s-.1-.3-.2-.5-.1-.1-.1-.2h-.1a.1.1,0,0,0-.1.1v.2c.2.4.1.5-.3.4h-.1v.2a.27.27,0,0,1-.3.3h-.2a3.23,3.23,0,0,0-2.1.8.52.52,0,0,0-.2.4h0a.1.1,0,0,1,.1-.1c.1,0,.2-.1.3-.1a6.39,6.39,0,0,1,1.9-.8c.1,0,.1,0,.4.1a2.41,2.41,0,0,0-.6.8.1.1,0,0,1-.1.1v.2c0,.1.1,0,.1,0l.2-.2.6-.6a.25.25,0,0,1,.4.1.1.1,0,0,0,.1.1.37.37,0,0,1-.1.3c-.2.5-.3,1.1-.5,1.7a.45.45,0,0,0,0,.5c0-.1.1-.1.1-.2s.1-.4.2-.5a6.47,6.47,0,0,1,.4-1.3c.1-.2.1-.2.3-.2h.7a.35.35,0,0,0,.2-.1c.1-.2.2-.2.4-.2s.3.1.4.2.2.1.4.1c-.1,0,.1.2.3.3m-.3,2a3.24,3.24,0,0,0-.7-2.2.35.35,0,0,0-.2-.1v.2c0,.1.1.1.1.2a3.2,3.2,0,0,1,.5,1.9v.4h.2l.1-.4m-4.5-4.1a4.87,4.87,0,0,1,1.2.1.1.1,0,1,0,0-.2c-.2-.1-.3-.1-.5-.2a.91.91,0,0,0-.7.3"/><path class="cls-8" d="M108.7,26.84a.3.3,0,0,1,0-.4,8.19,8.19,0,0,1,3.4-4.9,20.28,20.28,0,0,1,4.2-2l2.2-.6.4-.1a1.46,1.46,0,0,1,.9.6c-.1.2-.2.2-.3.2a4.89,4.89,0,0,0-1.8,1.4,5.81,5.81,0,0,0-1.3,2.6v.2c0,.1-.1.2.1.2s.2-.2.3-.3a8.39,8.39,0,0,1,2.3-2.3,12.29,12.29,0,0,1,2.5-1.4,1.48,1.48,0,0,1,1.3,0,18.19,18.19,0,0,1,2.3,1.5c.4.3.7.7,1.1,1,0,0,0,.1.1,0h-.1c0-.2,0-.3-.1-.4a9.74,9.74,0,0,0-1.5-2.4,3.92,3.92,0,0,0-1-.8l-.2-.1c-.1,0-.1-.1-.1-.2l.1-.1a3.18,3.18,0,0,1,.9-.3,13.1,13.1,0,0,0,2.7-.6l.3-.1a9.86,9.86,0,0,1,2.4.3,9.36,9.36,0,0,1,1.6.4,5.41,5.41,0,0,1,2.2,1.5,6.33,6.33,0,0,1,1.5,3.2c0,.1,0,.2-.1.2h0a6.29,6.29,0,0,0-2.8,2,16.1,16.1,0,0,0-2.1,3,38.19,38.19,0,0,0-2.3,5.1c-.7,1.9-1.4,3.9-2.2,5.8-.1.1-.1.2-.2.4a.32.32,0,0,1-.3.3l-1.7.3c-.1,0-.2,0-.2-.1h0a6.47,6.47,0,0,0-.4-1.3,10.08,10.08,0,0,0-7.3-6.7,8.53,8.53,0,0,0-4.2,0,.66.66,0,0,1-.6.1c.1-.4.2-.8.3-1.1a20.48,20.48,0,0,0,.5-2.4,5.44,5.44,0,0,0,0-1.8v-1.2a.57.57,0,0,0-.4-.7.61.61,0,0,0-.8.1l-.6.6c-.4.5-.7.9-1,1.3Z"/><path class="cls-9" d="M70.7,8.44a1.45,1.45,0,0,0-.2.7c-.1.1-.1.3-.2.5a1.42,1.42,0,0,0-.2.6,5.64,5.64,0,0,0-.4,1.2c0,.1-.1.2.1.1s-.1,0-.1.1c-.2.2-.1.4-.1.6s-.1.2-.1.3a3.49,3.49,0,0,1-1.9,2.2,5.42,5.42,0,0,1-2.5.6,9.67,9.67,0,0,1-2.9-.4,67.53,67.53,0,0,1-7.6-2.5c-3.2-1.3-6.4-2.9-9.5-4.5-1.6-.8-3.3-1.7-4.9-2.6A19.18,19.18,0,0,1,36.7,3l-.3-.3c-.1-.1-.4-.2-.3-.4s.3-.1.5-.1c1.7-.2,3.4-.3,5-.5A91.28,91.28,0,0,1,52,1.34q3,0,6,.3c1.4.1,2.8.2,4.1.4a17.78,17.78,0,0,1,3.9.7,10.66,10.66,0,0,1,1.9.7,7,7,0,0,1,1.7,1.3,3.61,3.61,0,0,1,1,2.8v.4a1.27,1.27,0,0,0-.1.6m-3.8,1.8c0-.1,0-.2-.1-.2s-.2-.1-.2,0l-.2.2-.8,2c0,.1-.1.1-.1.2s0,.1.1.1h.2c.1-.1.3-.2.3-.4a10.66,10.66,0,0,0,.7-1.9h.1m-2.8-4.2c.2,0,.2,0,.3-.1s.1-.3.2-.4a6.94,6.94,0,0,1,.5-1.3c0-.1.1-.1.1-.2s0-.1-.1-.2h-.2l-.2.2c-.2.4-.3.7-.5,1.1a1.27,1.27,0,0,0-.1.6.19.19,0,0,0,0,.3m-5.2,5.2a.37.37,0,0,0,.1.3c0,.1.1.1.2.1s.1,0,.1-.1l.4-1.3a.37.37,0,0,0-.1-.3c-.1-.1-.2-.1-.2,0a2.66,2.66,0,0,0-.5,1.3M46,2.94a.6.6,0,0,0-.1-.4c0-.1-.1-.1-.2-.1s-.2,0-.2.1v.2a2.2,2.2,0,0,1-.1.8v.3a.1.1,0,0,0,.1.1h.2c.1,0,.1-.1.2-.2a2,2,0,0,0,.1-.8m3.3,4.7v.2a.22.22,0,0,0,.2.2c.1,0,.1,0,.1-.1a2.28,2.28,0,0,0,.3-1.1c0-.1,0-.2-.1-.2h0a.37.37,0,0,0-.3.1h0a2.92,2.92,0,0,0-.2.9m7.4-1.8v-.1c0-.1,0-.2-.1-.2s-.2,0-.2.1a4.87,4.87,0,0,0-.4,1.1v.1h.2c.1,0,.2-.1.3-.2a3.09,3.09,0,0,0,.2-.8"/><path class="cls-10" d="M107.1,16.34a.82.82,0,0,1-.6.4,16.58,16.58,0,0,0-3.3,1.5c-1.4.8-2.7,1.7-4,2.6s-2.4,1.6-3.6,2.4a12.27,12.27,0,0,1-2.6,1.2,10.27,10.27,0,0,1-2.4.5,9,9,0,0,1-4.6-.8,8.39,8.39,0,0,1-4.8-6,8.58,8.58,0,0,1-.2-2.3,7.43,7.43,0,0,1,3.7-6.5,11,11,0,0,1,4.6-1.6,6.55,6.55,0,0,1,2.8.3,26.71,26.71,0,0,1,3.6,1.4c1.2.5,2.4,1,3.7,1.4a15.22,15.22,0,0,0,5.6.8,1.09,1.09,0,0,1,.9.4,7.5,7.5,0,0,1,1,2c.1.5.2.9.3,1.4a2.77,2.77,0,0,1-.1.9m-9.2,3.9c0-.4-.2-.7-.6-.7s-.7.2-.7.6v.2a.67.67,0,0,0,.6.7.85.85,0,0,0,.7-.8m-7.7.6a.53.53,0,0,0-.6-.6.6.6,0,0,0,0,1.2h0q.6.15.6-.6m.3-12.2c-.5,0-.7.2-.7.6a.67.67,0,0,0,.6.7.65.65,0,0,0,.6-.6c0-.4-.2-.7-.5-.7h0M92,23.34a.44.44,0,0,0-.4-.6h-.2a.75.75,0,0,0-.7.6c0,.4.3.6.7.6a.56.56,0,0,0,.6-.5c.1,0,.1,0,0-.1m1.3-12.6a.53.53,0,0,0-.6-.6.67.67,0,0,0-.7.6.67.67,0,0,0,.7.6.56.56,0,0,0,.6-.5v-.1M82.6,14a.56.56,0,0,0,.5.6h.1a.6.6,0,1,0,0-1.2c-.4,0-.7.2-.6.6m14.2-2.3a.65.65,0,0,0,.6.6c.4,0,.7-.2.7-.6s-.2-.7-.6-.7a.68.68,0,0,0-.7.7h0M95.6,19c0-.4-.1-.5-.4-.6s-.5.1-.7.3a.64.64,0,0,0,0,.6.45.45,0,0,0,.3.3c.6.1.9-.2.8-.6m-9.7-5.5c.3,0,.5-.1.6-.6a.65.65,0,0,0-.6-.6.63.63,0,0,0-.6.5v.1a.53.53,0,0,0,.6.6m7.2,7.7a.54.54,0,0,0,.5.5.47.47,0,0,0,.5-.5.62.62,0,0,0-.6-.4c-.2,0-.3.2-.4.4m-4.7-10a.47.47,0,0,0,.5-.5c0-.3-.2-.5-.5-.4s-.5.3-.4.5h0c-.1.3.1.4.4.4M87.1,21c-.3,0-.4.1-.4.5s.1.4.4.4a.47.47,0,0,0,.5-.5.66.66,0,0,0-.5-.4M85,11.14c0-.3-.2-.5-.5-.4a.46.46,0,0,0-.4.5.47.47,0,0,0,.5.5c.2-.2.4-.4.4-.6m10.6-.4a.66.66,0,0,0-.4-.5c-.3,0-.5.1-.5.4s.1.5.4.5h.1a.43.43,0,0,0,.4-.4m-7.9-1.3a.55.55,0,0,0-.3-.5.76.76,0,0,0-.5.2c-.1.1-.2.2-.1.4s.2.3.4.3.5-.1.5-.4m3.8,9.7c0-.3-.1-.4-.4-.4s-.4.1-.4.4.1.4.3.4h.1c.3,0,.4-.1.4-.4"/><path class="cls-11" d="M29.3,12a7.22,7.22,0,0,0,2,.9c.1,0,.2,0,.2-.1l.2-.4a5.58,5.58,0,0,1,4-3.3,8.24,8.24,0,0,1,8.2,2.7,5.77,5.77,0,0,1,1.3,3,4.25,4.25,0,0,1,.2,1.1,2.83,2.83,0,0,0,1.4,1.8c.3.2.6.3.9.5a55.39,55.39,0,0,0,5.7,2.1l.5.1c0,.2-.2.1-.3.2a4.68,4.68,0,0,1-1.7-.2l-2.7-.6a12.74,12.74,0,0,0-2.8-.2,4.11,4.11,0,0,0-2.9,1.3,6.47,6.47,0,0,0-.8.9,6.91,6.91,0,0,1-6.2,2.3,8.18,8.18,0,0,1-4.8-2.4,4.7,4.7,0,0,1-1.4-3v-.3c0-.1-.1-.2-.3-.2h-.9a19.53,19.53,0,0,0-3.4.3c-.2,0-.4.1-.6.1h-.2a18.63,18.63,0,0,0-3.4.7.35.35,0,0,0-.2.1,1.61,1.61,0,0,0-.9.3c-.1-.1-.1-.1-.3,0l-1.4.5c-.2,0-.3.2-.5.3s-.1,0-.1,0H18l-1.1.5c-.1.1-.3.2-.4.3a.6.6,0,0,0-.4.1L15,22c-.2.1-.3.2-.5.3s-.2,0-.3.3a.19.19,0,0,0-.3,0l-1.3.8-.3.2a.37.37,0,0,1-.3-.1c-.1-.1-.1-.2,0-.2s.2-.2.3-.2L14.2,22a.22.22,0,0,0,.2-.2c0-.1-.3,0-.4-.1a2,2,0,0,0,1.5-.4l.6-.3c.2,0,.3-.1.3-.2a.76.76,0,0,0,.5-.2l1.2-.5a.55.55,0,0,0,.5-.3,3.81,3.81,0,0,0,1.5-.5,1.7,1.7,0,0,0,.7-.1,19.42,19.42,0,0,1,3.3-.7,27,27,0,0,0,2.8-.4l3-.2H30c.1,0,.1-.1.2-.1,0-.4.1-.9.1-1.3,0-.1,0-.2-.1-.2h0c-1-.1-2-.1-3-.1a2.85,2.85,0,0,0-1.3,0h0a1.45,1.45,0,0,0-1.1-.1h-.2a2.2,2.2,0,0,0-.8-.1c-.3,0-.6.1-.9.1a22.55,22.55,0,0,1-2.6,0h-.4a.76.76,0,0,0-.5.2c-.1.1-.2-.3-.4-.3a7.72,7.72,0,0,0-1.5.2c-.1-.1-.2-.2-.4-.1l-2.7.3h-.3a.22.22,0,0,1-.2-.2A.35.35,0,0,1,14,16c.1-.1.3,0,.4-.1h1.1a15,15,0,0,1,2.2-.2,1.27,1.27,0,0,0,.6-.1,4.1,4.1,0,0,1,1.1-.1h.3a7.08,7.08,0,0,1,1.4-.1.37.37,0,0,0,.3-.1,1.7,1.7,0,0,0,1,0H23c.1.1.2,0,.4-.1s.5.1.7.1h3.3l3.1.1h.2c.1,0,.1-.1.1-.2s0-.2-.1-.2l-.7.1-1.8-.3a14.62,14.62,0,0,0-2-.5c-.3-.1-.6,0-.9-.2h-.2a.6.6,0,0,0-.4-.1,2.77,2.77,0,0,0-1.3-.3.22.22,0,0,0-.2-.2c-.5-.2-1-.3-1.5-.5a3.55,3.55,0,0,0-1-.2c-.1-.3-.1-.3-.4-.3a3.85,3.85,0,0,1-1.2-.5,5.64,5.64,0,0,0-1.2-.4c.1-.2.1-.2-.1-.2a2.19,2.19,0,0,0-.5-.3c-1.1-.5-2.1-1.1-3.2-1.7,0-.2,0-.3-.1-.4a.37.37,0,0,1-.1-.3c0-.1.1-.1.2-.1s.3.1.5.2l2,1.1a.76.76,0,0,0,.5.2.1.1,0,0,0,.1.1,1,1,0,0,0,.4.1,2.09,2.09,0,0,0,.6.4l2.1.9c.2.2.2.2.4,0a1.61,1.61,0,0,0,.7.4l1.5.6.4.1c.1,0,.1,0,.2-.1h.1a1.61,1.61,0,0,0,1.3.6,1.61,1.61,0,0,0,.9.3.44.44,0,0,1,.5.1c.1.1.2.1.4.1l1.6.4a.75.75,0,0,0,.5.1,11.63,11.63,0,0,0,1.8.4.22.22,0,0,0,.2-.2l.3-.9a.37.37,0,0,0-.1-.3h0l-2.1-1-.3-.2c-.6-.4-1.3-.8-1.9-1.2-.1-.1-.1-.2-.2-.2l-1.4-1.1c-.1-.1-.3-.3-.5-.2v-.1a.1.1,0,0,0-.1-.1l-1-1a.52.52,0,0,0-.4-.2.55.55,0,0,0-.3-.5c-.2-.2-.4-.3-.5-.5a6.47,6.47,0,0,0-.9-.8c0-.1,0-.3-.1-.3h-.1a8,8,0,0,0-1.5-1.7.3.3,0,0,0,0-.4h0L18.5,2c-.1-.1-.1-.2-.2-.4s0-.2.1-.2h.2a1.38,1.38,0,0,1,.3.4c.4.5.7,1,1.1,1.5a1,1,0,0,0,.4.5,2.19,2.19,0,0,0,.3.5,17.1,17.1,0,0,0,1.1,1.4c.1.2.2.4.5.4a2.09,2.09,0,0,0,.4.6l1,1.1c.1,0,.1.1.2.1V8c0,.1.2.1.3.1a4.36,4.36,0,0,0,1.4,1.3h.1c-.1.1,0,.2.1.3s.1.1.2.1a.1.1,0,0,0,.1.1,4.7,4.7,0,0,0,1.2.9h0c0,.1.1.1.1.2a.52.52,0,0,0,.4.2,3.77,3.77,0,0,0,1.5.9"/><path class="cls-12" d="M161.3,33.54c-.1-.1-.2-.3-.3-.4a10.89,10.89,0,0,0-5.2-4.5,11.91,11.91,0,0,0-3.2-1,10.32,10.32,0,0,0-5.2.5l-.3.1a15.72,15.72,0,0,0-2.3-.4,26.35,26.35,0,0,0-2.8-.2c-.1-.1.1-.2.1-.2a12.61,12.61,0,0,1,4.2-1.6l2-.4a13.55,13.55,0,0,1,2-.2h.2a.2.2,0,0,0-.2-.2,23.77,23.77,0,0,0-5.2-1.5,2.77,2.77,0,0,0-.9-.1c-.1,0-.1,0-.1-.1s0-.1.1-.1a10.93,10.93,0,0,1,1.7-.5,15.13,15.13,0,0,1,5.2,0c.2,0,.4.2.5,0-.1-.2-.2-.2-.4-.3a50.87,50.87,0,0,1-4.7-3.4.78.78,0,0,1-.4-.4.85.85,0,0,1,.7,0A12.4,12.4,0,0,1,152,21c.1.1.2.1.3.2l.1.1v-.2c-.2-.5-.5-1.1-.7-1.6a39.2,39.2,0,0,1-2.3-6v-.4a2.18,2.18,0,0,1,.5.4c.3.3.5.7.8,1a32,32,0,0,1,3.4,5.3c0,.1.1.1.2.2.1-.3.2-.7.3-1.1a17.19,17.19,0,0,1,1.8-5.4,3.78,3.78,0,0,1,.9-1.2,9.43,9.43,0,0,1,1-1,2.38,2.38,0,0,1,1.1-.6.6.6,0,0,1-.1.4c-.4,1.1-.8,2.1-1.2,3.2-.1.3-.2.7-.3,1.1a8.33,8.33,0,0,1-.4,1.5v.4c.2,0,.2-.1.2-.2a34.67,34.67,0,0,1,2.5-2.9l.3-.3h.1V14c-.1.1-.1.3-.2.4a29.28,29.28,0,0,0-1.9,4c-.1.1-.1.3-.2.4v.1h.1l.8-.8a15.91,15.91,0,0,1,2.4-2,7.27,7.27,0,0,1,3.1-1.4l.3-.1h.2a6.73,6.73,0,0,1-.7,1.1l-4,5-1.3,1.6c-.1.1-.1.1-.1.2s-.1,0-.1,0v.1l.1-.1a.37.37,0,0,0,.3-.1,10.81,10.81,0,0,1,7.3-1,.35.35,0,0,1,.2.1c-.1.2-.3.2-.4.3a41.64,41.64,0,0,0-7.3,4.4,2.65,2.65,0,0,0-.6.5v.1h.1c.4,0,.8.1,1.2.1a9.42,9.42,0,0,1,4.2,1.6,5.72,5.72,0,0,1,.8.7c.1,0,.1.1.1.2h-1.4a10.12,10.12,0,0,0-3,.2,4.33,4.33,0,0,0-1.2.5.1.1,0,0,0-.1.1c0,.1,0,.1.1.1l.6.2a5.85,5.85,0,0,1,3.6,3.1l.3.6a1.06,1.06,0,0,1,.1.8c-.1.1-.2,0-.4-.1a12.81,12.81,0,0,0-2.4-1.1"/><path class="cls-13" d="M44.7,76.24l17.8-.3c5.9-.1,12.1-.2,18.2-.1,1.8,0,3.7.1,5.5.1a17.85,17.85,0,0,1,2.3.2.6.6,0,0,1,.4.1.19.19,0,0,1,0,.3h0c-.1.1-.3.1-.4.2l-1.6.3q-3.15.3-6.3.3h-11l-18.5.1c-3,0-6.1,0-9.1.1-11.2.1-22.4.1-33.6.1l-6.8-.1H1.3c-.1,0-.1,0-.1-.1a.35.35,0,0,1,.1-.2h9.3c2.8,0,5.5-.1,8.3-.2l10.6-.3,7.2-.2,8-.1m2-22,8.4-.2L65.8,54c5.3-.1,10.6-.2,15.9-.1,2.4,0,4.8,0,7.2.1.6,0,1.1.1,1.7.1a.9.9,0,0,1,.5.1.37.37,0,0,1,.3.2c0,.1-.1.2-.3.2s-.3.1-.4.1a14.28,14.28,0,0,1-2.9.3c-1.2.1-2.3.1-3.5.1H72l-16.8.1-23.4.1H3.6l-.1-.1c0-.1,0-.1.1-.1H4.8c4.5,0,9.1-.1,13.6-.2l6.4-.2,9.8-.3,9.7-.2h2.5m-1.5,11.1L64.4,65c4.9-.1,9.9-.2,14.8-.2,2.2,0,4.4,0,6.6.1,1.2,0,2.5.1,3.7.2.2,0,.3.1.5.1a.19.19,0,0,1,0,.3h0a.37.37,0,0,1-.3.1,5,5,0,0,1-1.2.2,54.9,54.9,0,0,1-5.8.3h-6c-8,0-15.9,0-23.8.1-15.3.1-30.6.2-46,.1H2.3c-.1,0-.1-.1-.1-.2h0a.35.35,0,0,1,.1-.2h.2c4.5,0,9.1,0,13.6-.2l12.5-.3,13.5-.3,3.2.2m-2.1,21.8h2l19.6-.3q8.85-.15,17.7,0c1.5,0,3,.1,4.4.2.2,0,.5.1.7.1s.1.1.2.2,0,.2-.1.2-.4.1-.6.2a35.7,35.7,0,0,1-4.6.4c-3,.1-6,.1-9,.1H62.3c-5.4,0-10.7.1-16.1.1-6.3.1-12.7.1-19,.1H8.8l-8.2-.1H.2c-.1,0-.2,0-.2-.2s.1-.1.2-.1H.5c4.1,0,8.3,0,12.4-.1l10.6-.3c6.2-.2,12.4-.3,18.6-.4l1.1-.1h0"/><path class="cls-14" d="M29.3,12a6,6,0,0,1-1.5-.9c0-.1,0-.1-.1-.2a4,4,0,0,1-.6-1.5A3.19,3.19,0,0,0,26.8,8a2.19,2.19,0,0,0-.3-.5h0a.1.1,0,0,0-.1.1c0,.1.1.2.1.3a4.19,4.19,0,0,1,.4,1.5,2,2,0,0,0,.3,1.1.37.37,0,0,1,.1.3h0a2.73,2.73,0,0,1-1.2-.9l-.1-.2v-.2a4.71,4.71,0,0,1-.4-1.6c-.1-.5-.1-.9-.2-1.4-.1-.3,0-.6-.2-.8a1.13,1.13,0,0,0,.1.8A11.08,11.08,0,0,0,25.8,9a.6.6,0,0,1,.1.4h-.1a5.71,5.71,0,0,1-1.4-1.3v-.2l-.6-2.4-.3-.9c-.1.2,0,.3,0,.4.2.7.4,1.5.6,2.2a1.27,1.27,0,0,0-.1.6c-.1,0-.1-.1-.2-.1l-1-1.1c-.1-.2-.3-.4-.4-.6a8.52,8.52,0,0,1-.4-2.3,2,2,0,0,0-.3-1.1s-.1-.1-.1,0v.3a4.14,4.14,0,0,1,.2,1.6,3.4,3.4,0,0,0,.1,1c0,.1,0,.2-.1.2h0a13.44,13.44,0,0,1-1.1-1.4c-.1-.2-.3-.3-.3-.5v-.2l-.3-1.5c-.1-.1-.1-.2-.2-.4h0a.1.1,0,0,0-.1.1c0,.1,0,.1.1.2a4.4,4.4,0,0,0,.2,1c0,.1.1.3-.1.3-.4-.5-.7-1-1.1-1.5-.1-.1-.2-.3-.3-.4h-.2c-.1.1-.1.1-.1.2s.1.2.2.4l1.2,1.8a.6.6,0,0,1-.4-.1l-1-.5-.3-.3h-.1V3l.1.1,1.7.9a8,8,0,0,1,1.5,1.7v.1a.6.6,0,0,1-.4-.1l-1.1-.4h-.1v.1l.1.1,1.6.7a2.36,2.36,0,0,1,.9.8,1.21,1.21,0,0,0,.5.5.37.37,0,0,1-.3.1l-1.7-.8c-.1-.1-.2-.2-.4-.1l.1.1A20.29,20.29,0,0,0,23,7.94h.1c.1.1.3.1.4.2l1,1,.1.1L23.5,9a23.35,23.35,0,0,1-2.5-.7l-.3-.1h0v.1l.1.1a21.72,21.72,0,0,0,2.4.7,2.88,2.88,0,0,0,1.3.1c.2,0,.3.1.5.2l1.3,1.1c0,.1-.1.1-.2.1a2.77,2.77,0,0,1-.9-.1,8.47,8.47,0,0,1-1.7-.4h-.2c-.1,0,.1.1.1.1a8.68,8.68,0,0,0,2.8.5.52.52,0,0,0,.4-.2c.6.4,1.2.8,1.9,1.2l.3.2c-.1.1-.1.2-.2.2a.37.37,0,0,0-.1.3c-.2,0-.3.1-.5.2a1.14,1.14,0,0,1-.8.3,5.7,5.7,0,0,1-1.3-.1H24.8a1.61,1.61,0,0,1-1.3-.6.46.46,0,0,0-.5-.4c.1-.1,0-.2-.1-.2h0c0-.1,0-.1-.1-.1h0c0-.1,0-.2-.1-.2h0c0-.1,0-.1-.1-.1a.76.76,0,0,0-.2-.5c0-.1,0-.3-.2-.2,0-.2,0-.3-.2-.4a.1.1,0,0,0-.1-.1h0l-.1-.1a1.91,1.91,0,0,0-1-.5,3,3,0,0,1-1-.4.6.6,0,0,0-.4-.1L19,9a1.16,1.16,0,0,0-.4-1v-.2a17.85,17.85,0,0,1-.2-2.3,2.43,2.43,0,0,0-.9-1.8l-.5-.4a1.94,1.94,0,0,1,.2-2.8.1.1,0,0,0,.1-.1A2.1,2.1,0,0,1,18.4,0a3.33,3.33,0,0,1,1.7.2,2.29,2.29,0,0,1,1,.7c.3.3.5.6.8.9a1.37,1.37,0,0,0,.8.5,1.15,1.15,0,0,1,.9.6l.4.7a2.19,2.19,0,0,0,.9,1c.1,0,.1.1.2.1a2.16,2.16,0,0,1,1.1,1.2,2.36,2.36,0,0,0,.6.9l.7.6a1.61,1.61,0,0,1,.5,1.1.71.71,0,0,0,.3.6l1.6,1.3.2.1c.2.2.2.2.1.5a7.3,7.3,0,0,0-.9,1M19.4,1h0m-.3,4h0c0,.2.1.2.2.2l.1.1h.1v-.1l-.1-.1c-.1,0-.2-.1-.3-.1m-1.7-2.5h0a.27.27,0,0,0,.3.3.27.27,0,0,0-.3-.3M23,4.24a.35.35,0,0,0,.1.2v-.2s0-.1-.1,0h0m-3.3-2.8c0-.1,0-.1-.1-.1h0c0,.1,0,.1.1.1h0m-2.3,14.9a7.77,7.77,0,0,1,1.6-.2,4.33,4.33,0,0,1,.5.1c.1,0,.4-.1.5-.1h.4a22.55,22.55,0,0,1,2.6,0c.3,0,.6-.1.9-.1a2.2,2.2,0,0,1,.8.1h.2a2.05,2.05,0,0,1,1.1,0h0a2.85,2.85,0,0,1,1.3,0,4,4,0,0,1-.2,1.9,27,27,0,0,0-2.8.4c-1.1.2-2.2.4-3.3.7a1.27,1.27,0,0,1-.6.1h-.3c-.5.1-1,.2-1.6.3a2.44,2.44,0,0,1-1.2,0c-.5-.1-.9-.3-1.3-.4a1.61,1.61,0,0,1-.7-.4.37.37,0,0,0-.3-.1c.1-.3-.1-.4-.3-.6a.73.73,0,0,0-.6-.2c-.2,0-.3.1-.5.1a2.09,2.09,0,0,1-1.7-.4.6.6,0,0,1-.3-.6c0-.3-.1-.6-.1-1v-.4a.75.75,0,0,1,.7-.7h.1l.5.1a1,1,0,0,0,1.1-.5l.4-.6a1,1,0,0,1,1.2-.4h0l.7.3a.37.37,0,0,1,.3.1.85.85,0,0,0,.7,0,5.7,5.7,0,0,1,1.3-.1H23a.6.6,0,0,0,.4.1h.5a2.2,2.2,0,0,0,.8.1c.1.2.2.1.4.1h.2a1.34,1.34,0,0,0,.9.2c.7.1,1.3.4,2,.5a1.1,1.1,0,0,1-.8,0,.85.85,0,0,0-.7,0,2.09,2.09,0,0,1,.4.6H24a1.7,1.7,0,0,1-.7-.1c-.1-.1-.2-.1-.4-.1,0-.1,0-.1-.1,0l.1.1v.1h-.6a1.7,1.7,0,0,1-1,0c-.2-.2-.2-.2-.3.1a6.15,6.15,0,0,0-1.4.1h-.3a3.75,3.75,0,0,0-1.1.1,1.27,1.27,0,0,0-.6.1,14.92,14.92,0,0,0-2.1.2h-1c-.2.1-.3,0-.5.1s-.1.1-.1.2a.22.22,0,0,0,.2.2h.3l2.7-.3v.2s-.1,0,0,.1l.1-.1c.1,0,.3,0,.3-.1m5.1.1c.1,0,.1,0,.1-.1l.1-.1.1-.1h-.1l-.1.1a.35.35,0,0,0-.1.2c-.1,0-.1,0-.1.1s-.1,0-.1.1l-.1.1a.35.35,0,0,0-.2.1l-.1.1s-.1.1,0,.1h.1l.1-.1a.35.35,0,0,0,.2-.1l.1-.1a.1.1,0,0,0,.1-.1v-.2m-6.9,1h0c-.1-.2,0-.1,0,0h0m.4-.3c.1-.1.2-.1.2-.2s.1,0,0-.1l-.1.1a.1.1,0,0,0-.1.1s-.1,0,0,.1c-.1,0-.2,0-.1.1l.1-.1m9.3,0s.1-.1,0-.1V17c-.1-.1-.1,0,0,0h0m.3-.4c.1,0,.1-.1,0-.1v.1c-.1,0-.2.1,0,0h0m-5.4-2.7h0l-.1-.1h0l.1.1h0m.6.2h0l-.1-.1v.1h.1c0,.1.1.1.2.1s.1.1.2.1,0,.1.1,0h-.1c0-.1-.1-.1-.2-.1s-.1-.1-.2-.1m1,.5h0c0,.1.1.1.2.1s.1.1.2.1,0,.1.1.1l-.1-.1c0-.1-.1-.1-.2-.1s-.1-.1-.2-.1m-2.7-.3h0l.2.1v-.1h-.2l-.1-.1h0l.1.1m1,.3s-.1-.1-.1,0h.1c.1.2.2.3.4.3,0,0,.1.1.1,0V15c-.1-.2-.3-.2-.5-.2m.8,2.7a2.38,2.38,0,0,0-1.1.6h-.1s-.1,0,0,.1l.1-.1a2.38,2.38,0,0,0,1.1-.6c.1,0,.2,0,.1-.1s-.1.1-.1.1m.3-.2h0a.76.76,0,0,0,.4-.2.52.52,0,0,0-.4.2m-5.8.2c-.1,0-.2,0-.2.1v.1a.22.22,0,0,0,.2-.2h0m1.3-1-.1.1v.1c.1,0,.1,0,.1-.2Z"/><path class="cls-6" d="M141.1,50.84h-3.3c-.3,0-.3,0-.4-.3l-.1-.2a1.39,1.39,0,0,1,.1-1.4c.6-1.3,1.1-2.6,1.7-3.9.1-.2.1-.3.2-.5a.32.32,0,0,1,.3.3,8.3,8.3,0,0,1,.6,2.1.76.76,0,0,0,.2.4c.1.1.2.2.4.1l.2-.2c.7-.5,1.4-1.1,2.1-1.7s.6-.3.8.2c.3.8.6,1.5.9,2.3a1.61,1.61,0,0,0,.4.7c.1.2.4.2.6.1a1.56,1.56,0,0,0,.8-.6,12,12,0,0,1,1.1-1.2c.1-.1.1-.1.2-.1s.3-.1.4.1a3.55,3.55,0,0,1,.4.9l.7,1.6a.35.35,0,0,0,.1.2c.1.2.3.2.5.1l.1-.1,1.7-1.4.7-.5c0-.1.1-.1.2,0h0a.31.31,0,0,1,.1.2c.4.8.8,1.7,1.2,2.5v.2H142.9c-.1-.2-.2-.5-.4-.6a.77.77,0,0,0-1-.1c.1.2-.2.4-.4.8"/><path class="cls-15" d="M107.1,16.34a2.77,2.77,0,0,0,.1-.9c-.1-.5-.2-.9-.3-1.4a7.5,7.5,0,0,0-1-2,7.72,7.72,0,0,0,1.5-.2.22.22,0,0,0,.2-.2.9.9,0,0,1,.1-.5,2.37,2.37,0,0,1,1.8-1.8,2.47,2.47,0,0,1,2.2.5,2.7,2.7,0,0,1,.7.8,1.18,1.18,0,0,1,.1.8.76.76,0,0,1-.2.5c-.1.1-.2.3-.4.4a1.09,1.09,0,0,0-.1,1.5l.1.1c.2.1.3.2.5.3a2.65,2.65,0,0,1,.6.5,1.37,1.37,0,0,1,.4,1.2,2.58,2.58,0,0,1-2.4,2.4,2,2,0,0,1-1.5-.4,2.59,2.59,0,0,1-1.1-1.4.52.52,0,0,0-.2-.4c-.3,0-.7.2-1.1.2"/><path class="cls-16" d="M126.2,22.64c-.4-.3-.7-.7-1.1-1a11.35,11.35,0,0,0-2.3-1.5,1.48,1.48,0,0,0-1.3,0,11.88,11.88,0,0,0-2.5,1.3,10,10,0,0,0-2.3,2.3c-.1.1-.1.3-.3.3s-.1-.2-.1-.2v-.2a5.81,5.81,0,0,1,1.3-2.6,4.89,4.89,0,0,1,1.8-1.4c.1-.1.3-.1.3-.2a1.8,1.8,0,0,0-.9-.6,3.7,3.7,0,0,0-1.1-.5,12.65,12.65,0,0,0-2.8-.3h-.7c0-.2.2-.2.3-.2a21.72,21.72,0,0,1,2.4-.7,2.89,2.89,0,0,1,1.8.3c.3.2.5.4.7.5s.4.3.6.4a1.27,1.27,0,0,0,.6.1c.1,0,.3-.1.3-.2l.3-1.5a5,5,0,0,1,.2-1.2,4.87,4.87,0,0,1,2.1-3.1,8,8,0,0,1,2.5-1.1c.2-.1.4,0,.6.2a.38.38,0,0,1,0,.6h0a2.19,2.19,0,0,1-.5.3L125,13l-.3.2a4.58,4.58,0,0,0-2.4,4.6V18c0,.4.1.4.4.2.1-.1.3-.1.4-.2a8.25,8.25,0,0,1,2.6-1,8.33,8.33,0,0,0,1.5-.4,4.9,4.9,0,0,0,2-1.1l.1-.1c.1,0,.1.1.1.2a1.8,1.8,0,0,1-.4.9,6.89,6.89,0,0,1-1.3,1.1l-.5.3-.3.1a8.76,8.76,0,0,1-2.7.6,1.4,1.4,0,0,0-.9.3c-.1,0-.1.1-.1.2l.1.1.2.1a2.54,2.54,0,0,1,1,.8,9.74,9.74,0,0,1,1.5,2.4c.1-.1.1,0,.2.1Z"/><path class="cls-17" d="M15,18.44c.1,0,.2.1.3.1a1.61,1.61,0,0,0,.7.4c.4.1.9.3,1.3.4a2.44,2.44,0,0,0,1.2,0c.5-.1,1-.2,1.6-.3h.3a8.8,8.8,0,0,1-1.5.5h-.5a2.44,2.44,0,0,1-1.2,0,4.3,4.3,0,0,0-1.6,0,.1.1,0,0,1,.1.1,19.27,19.27,0,0,0,2.4.1.37.37,0,0,1,.3.1l-1.2.5c-.2.1-.4.1-.5.2-.1-.1-.2-.1-.4-.1h-.9a4.48,4.48,0,0,0-1.1-.1.37.37,0,0,0-.3.1h1.8c.2,0,.5,0,.6.2l-.6.3a2.6,2.6,0,0,1-1.5.4c.1.2.3,0,.4.1s-.1.1-.2.2L12.4,23c-.1.1-.2.1-.3.2s-.1.2,0,.2.2.2.3.1.2-.1.3-.2l1.3-.8a.19.19,0,0,1,.3,0,.31.31,0,0,0-.1.2s-.1,0,0,.1l.1-.1c.1,0,.1-.1.1-.2h0c.2,0,.2,0,.3-.3.1-.1.2-.3.4-.4l1.1-.6c0,.1-.1.2,0,.2s.1,0,.2-.1a.31.31,0,0,0,.1-.2,1.38,1.38,0,0,1,.4-.3l1.1-.5c.1,0,.1-.1.2,0s.1.1.1,0a.55.55,0,0,1,.5-.3l1.4-.5V20h-.1c0,.1.1,0,.1,0s.3-.2.3-.3a1.22,1.22,0,0,1,.9-.3,5.64,5.64,0,0,1,1.2.4l-.4.2a1.21,1.21,0,0,0-.5.5,1.69,1.69,0,0,1-1.4.9l-.7.1-.6.3a1.83,1.83,0,0,0-1,.7.1.1,0,0,1-.1.1,2.73,2.73,0,0,1-1.5,1.3c-.3.1-.5.2-.6.5-.1.1-.2.3-.4.4a2.12,2.12,0,0,1-3.1,0,2.18,2.18,0,0,1-.5-2.3,1.61,1.61,0,0,1,.4-.7,16.26,16.26,0,0,1,2.7-3.1c0-.2,0-.2.1-.3m-1,4.9s.1,0,0-.1v.1c0-.1-.1,0,0,0h0m5.1-2.2.1-.1.1-.1.1-.1.1-.1.1-.1.1-.1.1-.1h-.1l-.1.1-.1.1-.1.1-.1.1-.1.1L19,21v.1h.1m-5.3,2.5s.1,0,0-.1v.1l-.2.1h0l.1-.1.1-.1m1.8-.3c.1,0,.1-.1.2-.2v-.1a.1.1,0,0,0-.1.1c-.1,0-.1.1-.1.2s-.1.1,0,.2.1,0,.1-.1m.2-.7c.2-.1.2-.4.3-.6s0-.1,0-.1L16,22a.66.66,0,0,0-.1.6m2.7-9a5.7,5.7,0,0,0-1.3.1.85.85,0,0,1-.7,0c-.1,0-.2-.1-.3-.1l-.3-.8a1.06,1.06,0,0,0-.6-.7c-.2-.1-.3-.2-.5-.2s-.3-.1-.5-.2a1.57,1.57,0,0,1-1.1-1.8A3.08,3.08,0,0,1,13.9,8c.1-.1.2-.3.3-.4a1.53,1.53,0,0,1,2-.2c.1.1.3.2.4.3l.3.3a1.09,1.09,0,0,0,1.1.2,1.42,1.42,0,0,1,.6-.2,1.23,1.23,0,0,1,.5,1c-.1,0-.2,0-.2.1a.9.9,0,0,0,.6.6c0,.1,0,.2.1.2V10a10.93,10.93,0,0,0,.8,1.5c.1.1.1.2,0,.2l-2.1-1a2.09,2.09,0,0,1-.6-.4l-.5-.6c-.1-.1-.2-.2-.3-.2l-.1-.1-.1-.1-.1-.1-.1-.1L16.3,9a.32.32,0,0,0-.3-.3c0-.1-.1-.1-.2-.1l-.1-.1c-.1-.1-.1-.1-.2-.1s-.1-.1-.2-.1.1.1.1.1.1.1.2.1l.1.1c.1.1.1.1.2.1.1.2.2.3.4.3l.1.1.1.1.1.1.1.1.1.1c0,.2.3.3.4.6a.76.76,0,0,1-.5-.2l-2.1-1.1a.76.76,0,0,0-.5-.2c-.1,0-.2,0-.2.1s0,.2.1.2.2.1.3.2a32.39,32.39,0,0,0,3.2,1.7,2.19,2.19,0,0,1,.5.3h-.3A12.21,12.21,0,0,0,15,11h-.4c-.1,0-.2,0-.1.1l.1.1h.9a8.6,8.6,0,0,1,1.6.1,3.4,3.4,0,0,0,1,.1,3.08,3.08,0,0,1,1.3.3c.4.2.8.3,1.2.5,0,.1-.1.1-.2.1h-.7a9.7,9.7,0,0,0-1.7-.1,2.92,2.92,0,0,0-.9.2.6.6,0,0,0,.4.1,22.6,22.6,0,0,1,2.6.1h.8a3.55,3.55,0,0,1,1,.2,8.8,8.8,0,0,0,1.5.5c-.2.3-.5.2-.7.2s-.4-.1-.6-.1H19.8c-.5.1-.8.1-1.2.2m90.7,19.9-1.7.7-.7.3c-.4-.9-.8-1.7-1.3-2.6l-1.8-3c-.3-.6-.3-.5.2-1l.7-.7c.2,0,.2.2.3.4a48.85,48.85,0,0,1,2,4.8c.1.2.2.3.2.5.2,0,.1-.2.1-.2a14,14,0,0,1,1.6-5,12.74,12.74,0,0,1,1.3-1.9l.2-.1h.1a9.41,9.41,0,0,1-.2,4.1,17,17,0,0,1-1,3.2v.5"/><path class="cls-18" d="M130.5,65.24a.22.22,0,0,0,.2.2c.5.1.9.1,1.4.2a9.83,9.83,0,0,1,1.6.5c.1.1.2.1.3.2s.2.4,0,.6h0a.76.76,0,0,1-.4.2,11.36,11.36,0,0,1-2.5.6,5,5,0,0,0-1.2.2h-.5a.12.12,0,1,1,0-.2l.9-.3c.4-.2.4-.5,0-.7a6.11,6.11,0,0,0-1.4-.7,3.4,3.4,0,0,0-2-.3h-.5a8.42,8.42,0,0,0-2.7.4,12.09,12.09,0,0,1-1.8.5.52.52,0,0,0-.4.2c-.2.2-.2.4.1.5a7.6,7.6,0,0,1,1.1.4h.2v.1a.1.1,0,0,1-.1.1.64.64,0,0,1-.6,0c-.2,0-.4-.1-.6-.1a7.72,7.72,0,0,1-1.5-.2l-1.1-.2a9.36,9.36,0,0,1-1.6-.4c-.1,0-.2-.1-.4-.2a.25.25,0,0,1-.1-.4.1.1,0,0,1,.1-.1.76.76,0,0,1,.4-.2,12.09,12.09,0,0,1,1.8-.5,9.85,9.85,0,0,1,1.7-.2c.3,0,.6-.1,1-.1a.22.22,0,0,0,.2-.2l8.4.1m17.7,6.2h2.4a3.4,3.4,0,0,1,1,.1h.7a7.57,7.57,0,0,1,1.5.1h.8a2.77,2.77,0,0,1,.9.1h.5a3.4,3.4,0,0,1,1,.1h.2a7.57,7.57,0,0,1,1.5.1l1.9.3h.2a5.7,5.7,0,0,1-.1,1.3,3.55,3.55,0,0,0-1,.2l-1.8.3c-.6.1-1,.1-1.4.2h-.9c-.1,0-.3.1-.4.1a3.4,3.4,0,0,0-1,.1h-.4a2.2,2.2,0,0,0-.8.1h-.5a3.4,3.4,0,0,0-1,.1h-.9a2.77,2.77,0,0,0-.9.1H148a2.77,2.77,0,0,0-.9.1h-3.8a1.27,1.27,0,0,1-.6-.1c-.1,0-.3-.1-.4-.1h-1.1c-.2,0-.3,0-.4-.1s-.4-.1-.6-.1a3.75,3.75,0,0,1-1.1-.1H139a7.57,7.57,0,0,1-1.5-.1l-1.8-.3a3.08,3.08,0,0,0-1-.1,12.09,12.09,0,0,1-1.8-.5,1.61,1.61,0,0,1-.7-.4c-.1-.1-.2-.3-.1-.4l.1-.1a.52.52,0,0,1,.4-.2,7.49,7.49,0,0,1,1.6-.4c.2,0,.3-.1.5-.1l2-.3a6.6,6.6,0,0,0,1.4-.1c.5-.1,1.2,0,1.8-.1a25.28,25.28,0,0,1,2.8-.1h.2A2.81,2.81,0,0,1,144,71h3.8a.22.22,0,0,1-.2.2h-4.4a3.4,3.4,0,0,1-1,.1,19.27,19.27,0,0,1-2.4.1h-.2a1.27,1.27,0,0,1-.6.1h-.4l-2.1.3c-.5.1-1,.2-1.4.3-.2.1-.5.2-.7.3s-.2.2-.1.4a.1.1,0,0,0,.1.1l.6.3a5.26,5.26,0,0,0,1.7.4c1,.2,2,.3,3,.4h.2a2.77,2.77,0,0,0,.9.1h.5a3.4,3.4,0,0,0,1,.1h1.5a1.27,1.27,0,0,0,.6.1h2a2.77,2.77,0,0,1,.9-.1h2a1.7,1.7,0,0,1,.7-.1h.9a3.4,3.4,0,0,1,1-.1h.4c.6-.2,1.2,0,1.8-.2a6.15,6.15,0,0,0,1.4-.1l2.1-.3a6.47,6.47,0,0,0,1.3-.4c.1-.1.4-.1.4-.3s-.1-.3-.4-.3c-.6-.1-1.2-.3-1.8-.4l-1-.1a7.72,7.72,0,0,0-1.5-.2,12.1,12.1,0,0,0-1.9-.1h-.2a1.7,1.7,0,0,0-.7-.1h-.9a3.4,3.4,0,0,0-1-.1h-1.3c-.1,0-.3-.1-.3-.2h0m2.9,7.5a.22.22,0,0,0,.2.2,15.67,15.67,0,0,1,3,.5c.3.1.5.2.8.3.1,0,.2.1.3.2s.1.2,0,.2l-.3.3a5.64,5.64,0,0,1-1.2.4c-.9.2-1.8.4-2.6.6l-1.1.2a6.75,6.75,0,0,0-1.4.2h-.4a1.27,1.27,0,0,0-.6.1h-.3a3.4,3.4,0,0,0-1,.1h-.3a3.4,3.4,0,0,0-1,.1h-1a1.7,1.7,0,0,0-.7.1h-1.7a2.77,2.77,0,0,0-.9.1h-5.5c.1-.2.2-.1.3-.1a1.7,1.7,0,0,0,.7-.1h.5a7.57,7.57,0,0,0,1.5-.1h.4a3.4,3.4,0,0,0,1-.1h.4a3.4,3.4,0,0,0,1-.1h.3a2.2,2.2,0,0,0,.8-.1h.1a7.57,7.57,0,0,0,1.5-.1,6.75,6.75,0,0,0,1.4-.2,2.77,2.77,0,0,1,.9-.1,19.09,19.09,0,0,0,3.3-.6,3.55,3.55,0,0,0,.9-.4c.1,0,.1-.2.1-.2a.1.1,0,0,0-.1-.1l-.9-.3-1.7-.3c-.3,0-.6-.2-.9-.1a7.72,7.72,0,0,0-1.5-.2h-.7a.22.22,0,0,1-.2-.2l6.6-.2"/><path class="cls-19" d="M154.4,50.84v-.2c-.4-.8-.8-1.7-1.2-2.5a.35.35,0,0,0-.1-.2c0-.1-.1-.1-.2,0h0l-.7.5-1.8,1.4-.1.1a.44.44,0,0,1-.5-.1.31.31,0,0,1-.1-.2L149,48c-.1-.3-.3-.6-.4-.9s-.2-.2-.4-.1-.1.1-.2.1a12,12,0,0,0-1.1,1.2,1.56,1.56,0,0,1-.8.6.66.66,0,0,1-.6-.1,2.51,2.51,0,0,1-.4-.7c-.3-.8-.6-1.5-.9-2.3-.2-.5-.2-.7-.8-.2s-1.4,1.1-2.1,1.7l-.2.2c-.1.1-.3,0-.4-.1s-.1-.2-.2-.4a8.3,8.3,0,0,0-.6-2.1c-.1-.1-.1-.3-.3-.3a1.42,1.42,0,0,1,.2-.6.55.55,0,0,1,.5.3,5.78,5.78,0,0,1,.5,1.4.9.9,0,0,1,.1.5c.1.3.2.4.5.1s1-.8,1.5-1.2a5,5,0,0,1,.8-.7c.2-.1.4-.1.5.1s.1.2.2.4l1.1,2.8v.1c.2.6.4.5.7.2l1.3-1.3a1.27,1.27,0,0,1,.9-.4.76.76,0,0,1,.5.2c.1.1.2.3.3.4a9.49,9.49,0,0,1,.9,2.1c0,.1.1.1.2.1h.1l1.2-1,1.3-1c.1-.1.4-.2.5,0a.35.35,0,0,1,.1.2c.3.6.6,1.3.9,1.9.1.3.3.6.4.9a.37.37,0,0,0,.5.2c.1,0,.1-.1.2-.1a12.88,12.88,0,0,0,1.7-1.6l.4-.4a.61.61,0,0,1,.8.1,2.18,2.18,0,0,1,.5.8,8.8,8.8,0,0,1,.5,1.5c0,.1.1.2.1.3h-.7a6.36,6.36,0,0,0-.6-1.8c-.1-.3-.3-.3-.5-.2s-.2.1-.2.2l-1.5,1.4a.37.37,0,0,0-.1.3Z"/><path class="cls-18" d="M117.5,78.74a.22.22,0,0,1-.2.2h-.5a.75.75,0,0,0-.5.1h-.2a7.57,7.57,0,0,0-1.5.1,27.41,27.41,0,0,0-2.8.5.86.86,0,0,0-.6.3.37.37,0,0,0-.1.3l.1.1a6.12,6.12,0,0,0,1.2.5,18.92,18.92,0,0,0,2.3.5l1.2.2a5.85,5.85,0,0,1,1.3.2h.4a1.48,1.48,0,0,1,.7.1h.3a6.15,6.15,0,0,1,1.3.1h.9a2,2,0,0,1,.8.1h7a1.27,1.27,0,0,0,.6-.1h1.4a1.7,1.7,0,0,0,.7-.1h.5a4.87,4.87,0,0,0,1.2-.1,7.08,7.08,0,0,1,1.5-.1,13.66,13.66,0,0,0,1.9-.2,4.87,4.87,0,0,1,1.2-.1l2-.3a7.09,7.09,0,0,0,1.7-.4h.1c0,.1,0,.1-.1.1a15.46,15.46,0,0,1-2.3.7l-1.5.3c-.5.1-.8.1-1.1.2a9.32,9.32,0,0,0-1.4.2h-.3a2.35,2.35,0,0,0-.8.2h-.2c-.8-.1-1.5.2-2.3.1a2.2,2.2,0,0,0-.8.1H122a5.7,5.7,0,0,0-1.3-.1,6.15,6.15,0,0,1-1.3-.1h-.5a3.75,3.75,0,0,1-1.1-.1h-.3a3.4,3.4,0,0,1-1-.1h-.4a1.7,1.7,0,0,1-.7-.1h-.2c-.5,0-1-.1-1.4-.1a3.59,3.59,0,0,1-1.1-.2c-.3-.1-.7-.1-1-.2a15.94,15.94,0,0,1-3-.6h-.1c-.1,0-.2-.2-.2-.3h0c0-.1.1-.2.1-.3.1-.4,0-.4.5-.5s1.2-.2,1.7-.3.9-.1,1.4-.2h.7c.1,0,.2,0,.3-.2h4.2c0-.3.1-.3.2-.4M91,85.64l1.3-.3c.4-.1.9-.1,1.3-.2s1.1-.1,1.7-.2h1.1c-.1.2-.3.2-.5.2a5.07,5.07,0,0,0-1.3.2,7.37,7.37,0,0,0-1.4.4c-.2,0-.3.1-.5.2s-.2.3-.2.5.1.1.2.2a.35.35,0,0,0,.2.1,16,16,0,0,0,2.1.5,6.75,6.75,0,0,1,1.4.2h.1a15.48,15.48,0,0,0,2.2.1h.9c.3,0,.7.1,1,.1s.7-.2,1-.1a6.48,6.48,0,0,0,1.4,0,4.1,4.1,0,0,0,1.1-.1h.6a3.4,3.4,0,0,0,1-.1h.2a4.1,4.1,0,0,0,1.1-.1,4.48,4.48,0,0,1,1.1-.1,15.52,15.52,0,0,0,2.1-.4.71.71,0,0,0,.6-.3c.1-.1.1-.2,0-.2h0a1.14,1.14,0,0,0-.8-.3,14.16,14.16,0,0,0-2-.4c-.3,0-.6-.1-1-.1-.1,0-.1,0-.1-.1s0-.1.1-.1h.9a2.2,2.2,0,0,0,.8.1,1.27,1.27,0,0,1,.6.1c.4.1.8.1,1.2.2l1.7.3h.2c.1.1.3.1.3.3a.27.27,0,0,1-.3.3l-.6.3c-.8.2-1.6.3-2.4.5a11,11,0,0,1-1.8.2c-.5.2-1,0-1.5.2h-.4a2.77,2.77,0,0,0-.9.1h-.5a3.75,3.75,0,0,0-1.1.1H97.9a1.27,1.27,0,0,1-.6-.1h-.2a9.7,9.7,0,0,1-1.7-.1c-.4,0-.7-.1-1.1-.1-.8-.1-1.5-.3-2.2-.4l-1.2-.3a3.4,3.4,0,0,1,.1-1"/><path class="cls-13" d="M69.8,11.44a5.64,5.64,0,0,1,.4-1.2c1.1.3,2.2.5,3.3.8l5.5,1.4.3.1c.2.1.3.2.2.3s-.2.2-.3.2H79l-8-2h-.5c.1.2.2.2.4.2l6.8,2.6,1.2.5c.1,0,.2.1.2.3s-.2.2-.3.2a1.42,1.42,0,0,1-.6-.2l-6-2.3-2-.8c-.1,0-.2-.1-.2,0,0-.1-.1-.1-.2-.1"/><path class="cls-18" d="M91.2,84.64h.2a13.1,13.1,0,0,1,2.7-.6,15,15,0,0,1,2-.2,14.08,14.08,0,0,0,2-.1c1.4-.1,2.8-.1,4.1-.1h.2a6.73,6.73,0,0,0,2,.1,1.27,1.27,0,0,1,.6.1h.6a4.1,4.1,0,0,1,1.1.1h.4a1.7,1.7,0,0,1,.7.1h.3a5.9,5.9,0,0,1,1.4.2c.4.1.7.1,1.1.2s.9.2,1.4.3a1.79,1.79,0,0,1,.7.5v.2a.35.35,0,0,1-.2.1.37.37,0,0,1-.3-.1c-.5-.1-1-.3-1.6-.4a3.59,3.59,0,0,0-1.1-.2.37.37,0,0,1-.3-.1c-.7-.1-1.4-.2-2-.3a7.77,7.77,0,0,1-1.6-.2h-.2a6.15,6.15,0,0,1-1.3-.1h-.8a2,2,0,0,1-.8-.1H99.2a1.27,1.27,0,0,0-.6.1h-.4a4.87,4.87,0,0,0-1.2.1h-.1a9.86,9.86,0,0,0-2.4.3,11.36,11.36,0,0,0-2.5.6,3.55,3.55,0,0,1-1,.2,1.45,1.45,0,0,1,.2-.7m3.1-29.1a1.48,1.48,0,0,1,.7.1c.9.3,1.9.4,2.8.7.3.1.6,0,.8.1a5.7,5.7,0,0,0,1.3.1h.4c.1,0,.2.1.2,0a17,17,0,0,0,2.2.1,2.77,2.77,0,0,1,.9.1h2.9a3.75,3.75,0,0,0,1.1-.1h1.1a4.1,4.1,0,0,0,1.1-.1h.4a3.4,3.4,0,0,0,1-.1h.1a9.15,9.15,0,0,0,1.6-.1,3.59,3.59,0,0,0,1.1-.2h.2a5.66,5.66,0,0,0,1.8-.3c.8-.2,1.6-.3,2.3-.5.3-.1.6-.2,1-.3l.2-.1h.1V55c-.2.1-.3.3-.5.3-.7.2-1.3.5-2,.7a14.16,14.16,0,0,1-2,.4c-.5,0-.9.2-1.4.2a9.85,9.85,0,0,1-1.7.2h-.3a2.2,2.2,0,0,1-.8.1,2.2,2.2,0,0,0-.8.1h-1.9a3.4,3.4,0,0,0-1,.1,3.79,3.79,0,0,1-1.5,0,2.2,2.2,0,0,0-.8-.1h-1.7a2.77,2.77,0,0,1-.9-.1H102a6.6,6.6,0,0,1-1.4-.1h-.4a1.7,1.7,0,0,1-.7-.1h-.2a6.75,6.75,0,0,1-1.4-.2,11.27,11.27,0,0,1-1.8-.3c-.3-.1-.7-.1-1.1-.2a2.92,2.92,0,0,1-.9-.2l.2-.3m68,2.4h-1a1.7,1.7,0,0,0-.7.1h-5.5c-.6,0-1.1-.1-1.7-.1a12.25,12.25,0,0,1-1.9-.2c-.4,0-.9-.2-1.3-.2a26.81,26.81,0,0,1-2.7-.7c-.2-.1-.5-.2-.7-.3a.38.38,0,0,1-.1-.6.1.1,0,0,1,.1-.1.91.91,0,0,1,.7-.3c.5-.1,1-.2,1.4-.3s1.1-.2,1.7-.3a5.7,5.7,0,0,0,1.3-.1,3.4,3.4,0,0,1,1-.1.58.58,0,0,1,.4.1,1,1,0,0,1-.4.1,15.52,15.52,0,0,0-2.1.4l-1.2.3-.6.3a.45.45,0,0,0-.2.6c.1.1.2.2.3.2a12.09,12.09,0,0,0,1.8.5l1.7.3a4.1,4.1,0,0,1,1.1.1c.5.1,1,0,1.5.1,1.3.1,2.7.1,4,.1a3.4,3.4,0,0,0,1-.1h1.1a3.4,3.4,0,0,0,1-.1v.3m-25.2,7.3a.22.22,0,0,0,.2.2,6.39,6.39,0,0,1,1.9.8,2.18,2.18,0,0,1,.5.4.48.48,0,0,1,0,.7,1.8,1.8,0,0,1-.9.6,5.73,5.73,0,0,1-1.4.4c-.8.2-1.7.3-2.5.5a6.6,6.6,0,0,1-1.4.1,11,11,0,0,1-1.8.2h-1.3a.76.76,0,0,1,.5-.2,21.66,21.66,0,0,0,2.5-.4,10.46,10.46,0,0,0,1.7-.4,12.2,12.2,0,0,0,1.7-.7c.1-.1.3-.2.4-.3a.48.48,0,0,0,0-.7,1.38,1.38,0,0,0-.4-.3,10.66,10.66,0,0,0-1.9-.7c-.1,0-.3-.1-.4-.1s-.1-.1-.1-.2l2.7.1m-19.7,0c0,.2,0,.3-.2.3a13.23,13.23,0,0,0-3.3.8c-.2.1-.5.2-.5.5s.2.4.4.5a4.71,4.71,0,0,0,1.5.6,20.48,20.48,0,0,0,2.4.5l1.8.3a4.1,4.1,0,0,0,1.1.1.1.1,0,1,1,0,.2h0a2.44,2.44,0,0,1-1.2,0c-.1,0-.1,0-.2-.1a9.7,9.7,0,0,1-1.7-.1c-.2,0-.4-.1-.7-.1a4.87,4.87,0,0,1-1.2-.1,16.06,16.06,0,0,1-3.8-.8,2.18,2.18,0,0,1-.8-.5c-.2-.2-.2-.3,0-.5a2.07,2.07,0,0,1,1-.6,18.24,18.24,0,0,1,2.5-.7l.6-.1c.1,0,.1-.1.1-.2h2.2"/><path class="cls-18" d="M162.3,57.24a3.81,3.81,0,0,0-1.5.1H156a1.27,1.27,0,0,1-.6-.1h-.3a9.86,9.86,0,0,1-2.4-.3,2.35,2.35,0,0,0-.8-.2c-.1,0-.2-.1-.3-.2a.19.19,0,0,1,0-.3l.1-.1a5.78,5.78,0,0,1,1.4-.5l1.1-.2h.1a19.27,19.27,0,0,1,2.4-.1c0,.1-.1.1-.2.1s-.5.1-.7.2a.76.76,0,0,0-.4.2.22.22,0,0,0-.2.2.52.52,0,0,0,.2.4c.2.1.3.1.5.2a7.85,7.85,0,0,0,2.2.5h.6a9.86,9.86,0,0,0,2.4-.3l1.3-.3a.88.88,0,0,1-.1.7"/><path class="cls-13" d="M69.7,12.24a1.27,1.27,0,0,1,.1-.6l.4.2c2.6,1.4,5.1,2.8,7.5,4.4.1.1.3.2.4.3a.19.19,0,0,1,0,.3.37.37,0,0,1-.3.1l-.5-.3c-2.3-1.5-4.7-2.8-7.1-4.1l-.5-.3m1-3.8a1.27,1.27,0,0,1,.1-.6l3.7-.2,2.5-.1h.5a.22.22,0,0,1,.2.2h0c0,.1,0,.2-.1.2h-.3a8.6,8.6,0,0,1-1.6.1l-5,.4"/><path class="cls-6" d="M155.9,50.84a.37.37,0,0,1,.1-.3l1.5-1.5.2-.2c.3-.2.4-.2.5.2a6.36,6.36,0,0,1,.6,1.8h-2.9"/><path class="cls-13" d="M70.4,9.64c0-.2.1-.3.2-.5l6.1.4H77c.1,0,.2.2.2.3a.22.22,0,0,1-.2.2h-.2l-3.9-.2-2.5-.2"/><path class="cls-14" d="M22.6,19.94a5.64,5.64,0,0,0-1.2-.4.35.35,0,0,0,.2-.1c1.1-.3,2.3-.5,3.4-.7h.2a5.72,5.72,0,0,0-.8.7,1.74,1.74,0,0,1-1.5.5h-.3"/><path class="cls-19" d="M141.1,50.84a1.58,1.58,0,0,1,.7-.7.77.77,0,0,1,1,.1,2.09,2.09,0,0,1,.4.6,7.39,7.39,0,0,1-2.1,0"/><path class="cls-18" d="M115.4,52.34c0,.1,0,.3-.2.3h-1c-.2,0-.2-.1-.2-.3a3.3,3.3,0,0,1,1.4,0m45,22.9a1.27,1.27,0,0,1-.6.1,2.09,2.09,0,0,0-.4-.6h1.1a.75.75,0,0,1-.1.5m-42.5-10c0,.1,0,.2-.2.2s-.2-.1-.2-.2Z"/><path class="cls-8" d="M108.7,26.74h0"/><path class="cls-12" d="M146.1,18.54h0"/><path class="cls-20" d="M174.9,63h3.9a6.6,6.6,0,0,1,2.7.6,5.48,5.48,0,0,1,2.7,2.5l1.1,2.1c1.5,2.8,3,5.6,4.5,8.5,0,.1.1.2.2.3a1.51,1.51,0,0,1-.7,1.9,1.06,1.06,0,0,1-.8.1l-1.7-.3-4.6-.7-5.2-.9-4.5-.7-3.6-.6c-.2,0-.2-.1-.2-.3.1-.6.1-1.2.2-1.8l.5-5,.6-5.4c0-.2.1-.2.2-.2h4.7m4,37.9a4.09,4.09,0,0,1-4.1-3,4.48,4.48,0,0,1,.4-3.4,5.22,5.22,0,0,1,4-3,4.24,4.24,0,0,1,4.8,2.9,4.54,4.54,0,0,1-.4,3.4,5.19,5.19,0,0,1-3.7,2.9,8.66,8.66,0,0,1-1,.2m-67.2,0a4.09,4.09,0,0,1-4.1-3,4.48,4.48,0,0,1,.4-3.4,5.21,5.21,0,0,1,4-2.9,4.21,4.21,0,0,1,4.8,3,4.74,4.74,0,0,1-.2,3.1,5.4,5.4,0,0,1-3.7,3.2,4.82,4.82,0,0,1-1.2,0"/><path class="cls-21" d="M175.2,80.34h-.3a13.4,13.4,0,0,0-2-.1,27.15,27.15,0,0,1-2.9-.1,6.75,6.75,0,0,1-1.4-.2c-.1,0-.2-.1-.3-.1v-.1a.1.1,0,0,1,.1-.1h.1a8.81,8.81,0,0,0,1.7-.2,13.8,13.8,0,0,1,2-.3l2.2-.2a3.4,3.4,0,0,1,1,.1.52.52,0,0,1,.4.2.48.48,0,0,1,.2.6v.1a.74.74,0,0,1-.8.4"/><path class="cls-3" d="M141.8,85h.2c0,.1.1.2.3.2h1.9a1.7,1.7,0,0,0,.7.1h.9a3.4,3.4,0,0,0,1,.1h.3a8.75,8.75,0,0,0,1.6.2c.5.1,1.2.2,1.8.3.2,0,.3.1.5.2s.1.1.1.2-.1.1-.1.2l-.5.2a6.93,6.93,0,0,1-2,.3c-.3,0-.6.1-1,.1a3.4,3.4,0,0,0-1,.1c-.6,0-1.2.1-1.8.1H144a.37.37,0,0,0-.3.1h-1.8c-.1,0-.2.1-.3.2h-.5c-.2-.2-.4-.1-.6-.1h-6.6a4.87,4.87,0,0,0-1.2-.1h-.5a2.77,2.77,0,0,0-.9-.1H131a7.72,7.72,0,0,0-1.5-.2,15.52,15.52,0,0,1-2.1-.4c-.2,0-.3-.1-.5-.2a.21.21,0,0,1,0-.4,1.85,1.85,0,0,1,.7-.2l1.8-.3c.4,0,.8-.1,1.1-.1a3.4,3.4,0,0,1,1-.1h.4a2.77,2.77,0,0,1,.9-.1h.8a.37.37,0,0,0,.3-.1h7.3a.73.73,0,0,0,.6-.2m.6.8c.2.1.3.2.5.2a1.42,1.42,0,0,1,.6.2s.1.1,0,.1h0c-.1.1-.2.1-.2.2a4.25,4.25,0,0,1-1.1.2,4.25,4.25,0,0,0-1.1.2,7.72,7.72,0,0,0-1.5.2c-1,0-2,0-3-.1l-1.4-.3a2.35,2.35,0,0,0-.8-.2l-.1-.1c0-.1,0-.2.1-.2s.1-.1.2-.1c.3,0,.6-.2,1-.2a1.85,1.85,0,0,0,.7-.2,10.87,10.87,0,0,0-1.8.1,1.39,1.39,0,0,1-.9,0c-.3,0-.6.1-1,.1a6.28,6.28,0,0,0-1.9.3l-.4.1c-.1,0-.1.1-.1.2a.1.1,0,0,0,.1.1,2.66,2.66,0,0,0,1.2.3,4.87,4.87,0,0,0,1.2.1,5.28,5.28,0,0,0,1.3.1h.2a2.77,2.77,0,0,0,.9.1H137a4.3,4.3,0,0,0,1.6,0,4.1,4.1,0,0,1,1.1-.1h2.4a1.7,1.7,0,0,1,.7-.1h1c.6-.2,1.3,0,1.9-.2a11,11,0,0,0,1.8-.2c.1,0,.2-.1.3-.1s.1-.1,0-.2h0a.1.1,0,0,1-.1-.1l-.8-.1c-.4-.1-.8-.1-1.2-.2s-.7-.1-1.1-.1h-.4a5.44,5.44,0,0,0-1.8,0m-.4-.1h0c0-.1-.1-.1,0,0-.1-.1-.2-.1-.2,0a.1.1,0,0,0,.1.1c.1,0,.1,0,.1-.1"/><path class="cls-18" d="M133.8,80.44a1.61,1.61,0,0,1-.9.3,6.28,6.28,0,0,1-1.9.3,6.75,6.75,0,0,0-1.4.2c-.5.1-1.2,0-1.8.1a8.6,8.6,0,0,1-1.6.1h-4.5a2.2,2.2,0,0,1-.8-.1h-.4a5.7,5.7,0,0,1-1.3-.1h-.1a13.55,13.55,0,0,1-2-.2,22.11,22.11,0,0,1-2.5-.5.76.76,0,0,1-.5-.2c-.1,0-.2-.1-.1-.2a.1.1,0,0,1,.1-.1c.1,0,.2-.1.3-.1a14.16,14.16,0,0,1,2-.4,17.85,17.85,0,0,1,2.3-.2,14.08,14.08,0,0,0,2.1-.1c1.7-.2,3.4,0,5.1-.1h1.4a2.77,2.77,0,0,1,.9.1h.5a9.15,9.15,0,0,1,1.6.1h.1a14.92,14.92,0,0,1,2.1.2,8.47,8.47,0,0,1,1.7.4c.1,0,.2.1.3.2v.1h0l-.3.3c0-.2,0-.3-.2-.4s-.3-.1-.4-.1a9.7,9.7,0,0,0-1.7-.1h-.2a2.77,2.77,0,0,0-.9-.1h-.9a3.4,3.4,0,0,0-1-.1h-5a.1.1,0,0,0-.1.1c0,.1,0,.1.1.1h2.4a2.49,2.49,0,0,0,.8.1,2.35,2.35,0,0,1,.8.2s.1.1,0,.1h0c-.1.1-.1.1-.2.1-.4.1-.7.1-1.1.2h-.5a3.4,3.4,0,0,1-1,.1h-1.3a.1.1,0,0,0-.1.1c0,.1,0,.1.1.1h2.9c1,0,2,0,3-.1.5-.1,1.1,0,1.6-.1s1.2-.1,1.8-.2c.2,0,.4-.1.7-.1h0m-11.5.3h.8l.1-.1v-.1H123a3.75,3.75,0,0,1-1.1-.1c-.1,0-.2-.1-.3-.1v-.1a.1.1,0,0,1,.1-.1c.4-.1.7-.1,1.1-.2h.4v-.1h0a.1.1,0,0,0-.1-.1h-1.8a8.6,8.6,0,0,1-1.6.1h-.3a1.27,1.27,0,0,1-.6.1c-.5,0-.9.1-1.4.1a.1.1,0,0,0-.1.1c0,.1,0,.1.1.1a4.1,4.1,0,0,0,1.1.1h.3a2.2,2.2,0,0,0,.8.1h.4a4.48,4.48,0,0,0,1.1.1h.4a1.2,1.2,0,0,0,.8.2m16.9,8.1h-2.8a3.4,3.4,0,0,1-1-.1h-1a1.7,1.7,0,0,1-.7-.1h-.2a13.4,13.4,0,0,1-2-.1c-.4,0-.8-.1-1.2-.1s-1-.1-1.4-.2a24.47,24.47,0,0,1-3.7-.8,2,2,0,0,1-.8-.4c-.1-.1-.1-.1,0-.2h.2a3.81,3.81,0,0,0,1.5.5,20,20,0,0,0,2.4.4l1.9.2c.4.1.8,0,1.2.1s1,0,1.5.1a12.1,12.1,0,0,0,1.9.1h.3a4.87,4.87,0,0,0,1.2.1h6.4a2.2,2.2,0,0,0,.8-.1h1.6a3.4,3.4,0,0,0,1-.1h.9a2.77,2.77,0,0,0,.9-.1h.5a3.75,3.75,0,0,0,1.1-.1h.5a3.4,3.4,0,0,0,1-.1h.3a2.77,2.77,0,0,0,.9-.1h.2c.3,0,.6-.1.9-.1.5,0,1-.2,1.4-.2s.6-.1.9-.1a18.92,18.92,0,0,0,2.3-.5h.2V87H158a3.58,3.58,0,0,1-1.1.4,20,20,0,0,1-2.4.4,5,5,0,0,0-1.2.2,7.72,7.72,0,0,0-1.5.2h-.4a.75.75,0,0,0-.5.1h-.4a2.2,2.2,0,0,0-.8.1h-.4a3.4,3.4,0,0,0-1,.1h-.5a3.4,3.4,0,0,0-1,.1H146a2.77,2.77,0,0,0-.9.1h-1.6a1.27,1.27,0,0,0-.6.1h-3.7m-38.3-1.6H99.1a3.4,3.4,0,0,1-1-.1h-.2a10,10,0,0,1-2.4-.4.55.55,0,0,1-.5-.3c-.1,0-.1-.1,0-.2h0a1.69,1.69,0,0,1,1-.3,5.85,5.85,0,0,1,1.3-.2h.3a1.48,1.48,0,0,0,.7-.1h.2a.1.1,0,0,1,.1.1v.1c-.2.1-.3,0-.5.1s-.3.1-.3.3.1.2.2.2a3.26,3.26,0,0,0,1.4.4,8.13,8.13,0,0,0,2.2.1c.3,0,.6-.1,1-.1l.1-.1v-.1h0a.64.64,0,0,0-.6,0,3.3,3.3,0,0,1-1.4,0h-.6c-.2,0-.3,0-.4-.1v-.2a1.45,1.45,0,0,1,.7-.2,2.77,2.77,0,0,0,.9-.1h.2a4.48,4.48,0,0,0,1.1.1,2.92,2.92,0,0,1,.9.2.1.1,0,0,1,0,.2c-.1,0-.1,0-.2.1v.1l.1.1c.4-.2.9-.2,1.4-.4q.3-.15,0-.3c-.2-.1-.1-.1-.2-.1s0-.1,0-.1l.1-.1h.1a3.4,3.4,0,0,1,1,.1h.3a15.52,15.52,0,0,1,2.1.4.22.22,0,0,1,.2.2c0,.1,0,.2-.1.2l-.9.3c-.3.1-.7.1-1.1.2-.2,0-.3.1-.5.1a1.27,1.27,0,0,0-.6.1H105c-.8-.1-1.5.2-2.3.1H101"/><path class="cls-18" d="M134,85.24a.37.37,0,0,1-.3.1H133a2.77,2.77,0,0,0-.9.1h-.4a3.4,3.4,0,0,0-1,.1,4.48,4.48,0,0,1-1.1.1l-1.8.3a1.85,1.85,0,0,0-.7.2.21.21,0,0,0,0,.4.76.76,0,0,0,.5.2,15.52,15.52,0,0,0,2.1.4,7.72,7.72,0,0,1,1.5.2h.3a2.77,2.77,0,0,1,.9.1h.5a4.87,4.87,0,0,1,1.2.1h6.6c.2,0,.4-.1.6.1a.37.37,0,0,1-.3.1h-6.5a2.77,2.77,0,0,1-.9-.1h-.5a9.15,9.15,0,0,1-1.6-.1h-.3a3.4,3.4,0,0,1-1-.1h-.4a1.7,1.7,0,0,1-.7-.1h-.2a28.86,28.86,0,0,1-2.9-.4l-1.1-.3c-.2-.1-.5-.2-.5-.5s.3-.3.6-.3a6.28,6.28,0,0,1,1.9-.3c.5-.2,1,0,1.5-.2h.4a2.77,2.77,0,0,0,.9-.1h.9a2.77,2.77,0,0,0,.9-.1h2.4l.1.1"/><path class="cls-3" d="M133.8,80.44h0a1.1,1.1,0,0,0-.8,0,11,11,0,0,1-1.8.2,8.08,8.08,0,0,0-1.6.1c-1,.1-2,.1-3,.1h-2.9c-.1,0-.1,0-.1-.1a.1.1,0,0,1,.1-.1H125a3.4,3.4,0,0,0,1-.1h.5a4.25,4.25,0,0,0,1.1-.2c.1,0,.1-.1.2-.1s.1-.1,0-.1h0a1.88,1.88,0,0,0-.8-.2,2,2,0,0,1-.8-.1h-2.4c-.1,0-.1,0-.1-.1a.1.1,0,0,1,.1-.1h5a3.4,3.4,0,0,1,1,.1h.9a2.77,2.77,0,0,1,.9.1h.2a9.15,9.15,0,0,1,1.7.1c.1,0,.3.1.4.1s.2.2.2.4Z"/><path class="cls-18" d="M143.7,87.54a.37.37,0,0,1,.3-.1h.7a10.87,10.87,0,0,1,1.8-.1,3.4,3.4,0,0,1,1-.1c.3,0,.6-.1,1-.1l2-.3c.2-.1.3-.1.5-.2s.1-.1.1-.2,0-.2-.1-.2-.3-.1-.5-.2a11.27,11.27,0,0,1-1.8-.3c-.6-.2-1.1,0-1.6-.2h-.3a3.4,3.4,0,0,1-1-.1h-.9a1.7,1.7,0,0,1-.7-.1h-1.9c-.1,0-.3-.1-.3-.2V85h1.9a2.2,2.2,0,0,1,.8.1h1.7a1.7,1.7,0,0,1,.7.1h.7a3.4,3.4,0,0,1,1,.1h.4a3.75,3.75,0,0,1,1.1.1h.2a11.71,11.71,0,0,1,2.6.4,1.42,1.42,0,0,1,.6.2c.1,0,.1.1.1.2a.22.22,0,0,1-.2.2c-.1,0-.1.1-.2.1a12.86,12.86,0,0,1-1.9.4c-.3,0-.6.2-.9.1-.5.2-1,0-1.5.2h-.4a1.7,1.7,0,0,0-.7.1h-.4a4.1,4.1,0,0,0-1.1.1h-.6a2.77,2.77,0,0,0-.9.1h-1.3l-.1-.1"/><path class="cls-22" d="M157.9,80.24a.86.86,0,0,1,.8-.8.65.65,0,0,1,.6.6h0a.86.86,0,0,1-.8.8.58.58,0,0,1-.6-.6h0m-64.1-.1a.79.79,0,0,1-.8.8.65.65,0,0,1-.6-.6h0a.79.79,0,0,1,.8-.8c.3-.1.6.2.6.6h0M156.9,89a.86.86,0,0,1,.8-.8.65.65,0,0,1,.6.6h0c0,.4-.4.7-.8.8a.65.65,0,0,1-.6-.6h0m-64.7-.7a.58.58,0,0,1,.6.6h0a.79.79,0,0,1-.8.8.65.65,0,0,1-.6-.6h0c.1-.5.4-.8.8-.8"/><path class="cls-18" d="M141.1,85.24h-6.7a.22.22,0,0,1,.2-.2h6.3c.1-.1.1.1.2.2m.5,2.5a.22.22,0,0,1,.2-.2h1.6a.22.22,0,0,1-.2.2h-1.6m-35.4-2.8h.2a.1.1,0,0,1,.1.1c0,.1,0,.1-.1.1H106a.1.1,0,0,1,0-.2h.2m-2.4.6h.1a.1.1,0,0,1,.1.1c0,.1,0,.1-.1.1h-.1a.1.1,0,0,1,0-.2M97.2,85l-.1.1c-.1,0-.2,0-.2-.1v-.1c.1-.1.2-.1.3.1h0m44.6,0c-.1.2-.3.1-.5.1a.75.75,0,0,1,.5-.1m-36.3,0h0"/><path class="cls-23" d="M148.2,71.44c0,.1.1.2.3.2h1.3a3.4,3.4,0,0,1,1,.1h.9a1.48,1.48,0,0,1,.7.1h.2a12.1,12.1,0,0,1,1.9.1,7.72,7.72,0,0,1,1.5.2l1,.1c.6.1,1.2.3,1.8.4.3.1.4.2.4.3s-.2.2-.4.3a5,5,0,0,1-1.3.4,7.61,7.61,0,0,1-2.1.3,6.6,6.6,0,0,1-1.4.1c-.6.2-1.2,0-1.8.2h-.4a3.4,3.4,0,0,0-1,.1h-.9a1.7,1.7,0,0,0-.7.1h-2a2.77,2.77,0,0,0-.9.1h-2a1.27,1.27,0,0,1-.6-.1h-1.5a3.4,3.4,0,0,1-1-.1h-.5a2.77,2.77,0,0,1-.9-.1h-.2c-1-.1-2-.2-3-.4a8.47,8.47,0,0,1-1.7-.4l-.6-.3c-.1-.1-.2-.2-.1-.4a.1.1,0,0,1,.1-.1,4.88,4.88,0,0,1,.7-.3,8.87,8.87,0,0,1,1.4-.3l2.1-.3h.4a1.27,1.27,0,0,0,.6-.1h.2c.8.1,1.6-.2,2.4-.1a3.4,3.4,0,0,0,1-.1h4.4c.1,0,.1-.1.2-.2s.2.1.3.1"/><path class="cls-18" d="M126.5,71.44h-2.2a2.77,2.77,0,0,1-.9-.1h-.8a4.1,4.1,0,0,1-1.1-.1h-.4a3.4,3.4,0,0,1-1-.1h-.4a1.7,1.7,0,0,1-.7-.1h-.2a9.85,9.85,0,0,1-1.7-.2,29.31,29.31,0,0,1-2.9-.5,23.35,23.35,0,0,1-2.5-.7,1.34,1.34,0,0,1-.7-.6.78.78,0,0,1-.2-.8c0-.1.2-.2.3-.2s.1.1.2.1a17.6,17.6,0,0,0,3,1l2.8.6a9.85,9.85,0,0,0,1.7.2,11,11,0,0,1,1.8.2,8.75,8.75,0,0,1,1.6.2h.4a2.77,2.77,0,0,1,.9.1h1.7a2.2,2.2,0,0,1,.8.1,2.44,2.44,0,0,0,1.2,0c.2,0,.5-.1.7-.1h1.4a3.4,3.4,0,0,1,1-.1,5.85,5.85,0,0,0,1.3-.2c.4-.1.9-.1,1.4-.2l1.4-.3a21.36,21.36,0,0,0,3.4-.9,5.56,5.56,0,0,0,1.7-.9c.1-.1.2-.2.3-.1a.37.37,0,0,1,.1.3.75.75,0,0,1-.1.5,1.34,1.34,0,0,1-.7.6c-.3.2-.7.5-1,.7a15.67,15.67,0,0,1-3.1.8l-1.7.3h-.4a1.27,1.27,0,0,0-.6.1h-.1a10.87,10.87,0,0,1-1.8.1,3.4,3.4,0,0,0-1,.1h-.5l-2.4.2m31.9,4.2a4.1,4.1,0,0,0-1.1.1H157a2.2,2.2,0,0,0-.8.1h-.4a1.7,1.7,0,0,0-.7.1h-.3a3.75,3.75,0,0,0-1.1.1h-.4a4.87,4.87,0,0,0-1.2.1h-1a3.75,3.75,0,0,0-1.1.1h-5.8a5.28,5.28,0,0,0-1.3-.1,2.77,2.77,0,0,1-.9-.1h-1.9a6.75,6.75,0,0,1-1.4-.2l-1-.1a23.55,23.55,0,0,1-4.6-1,5.36,5.36,0,0,1-1.1-.5c-.1-.1-.2-.1-.3-.2a.3.3,0,0,1,0-.4,5.31,5.31,0,0,0,1.7.8c.6.1,1.1.3,1.7.4.4.1.8.1,1.1.2l1.2.2a4.48,4.48,0,0,0,1.1.1c.3,0,.5.1.8.1l1.6.1a4.87,4.87,0,0,1,1.2.1h1.2a2.77,2.77,0,0,1,.9.1h4.7a1.27,1.27,0,0,0,.6-.1h2a1.7,1.7,0,0,0,.7-.1h.6a4.87,4.87,0,0,0,1.2-.1h.5a3.75,3.75,0,0,0,1.1-.1h.4a3.4,3.4,0,0,0,1-.1h.2a3.4,3.4,0,0,0,1-.1h.4a1.61,1.61,0,0,0-.4.7m-51.3-3.1a2,2,0,0,1,1.1,0h.2a8.6,8.6,0,0,1,1.6.1,14,14,0,0,1,2.8.6c.2.1.5.2.7.3s.1.2,0,.2h0c-.1.2-.3.3-.4.4l-.9.3-2.6.6-2.1.3c-.5.2-1.1,0-1.6.2h-.6a2.77,2.77,0,0,0-.9.1h-2.5a3.75,3.75,0,0,1-1.1-.1h-.2a13.55,13.55,0,0,1-2-.2,17.29,17.29,0,0,1-3.1-.7,2.07,2.07,0,0,1-1-.6c-.3-.2-.3-.4-.2-.5l.1-.1a1.8,1.8,0,0,1,.9-.4c.8-.2,1.6-.4,2.3-.5a5.7,5.7,0,0,1,1.3-.1H99v.1h0l-.8.2-1.1.2a5.36,5.36,0,0,0-1.1.5.22.22,0,0,0-.2.2c-.1.1-.2.4,0,.5a.1.1,0,0,1,.1.1.76.76,0,0,0,.5.2,16,16,0,0,0,2.1.5,6.75,6.75,0,0,1,1.4.2h.4a3.4,3.4,0,0,1,1,.1H104a4.48,4.48,0,0,1,1.1-.1,2.77,2.77,0,0,0,.9-.1h.1a7.57,7.57,0,0,0,1.5-.1,9.85,9.85,0,0,0,1.7-.2,8.47,8.47,0,0,0,1.7-.4.76.76,0,0,0,.4-.2c.1-.1.2-.2.1-.4l-.1-.1a3.55,3.55,0,0,0-.9-.4c-.6-.1-1.2-.3-1.8-.4-.4-.1-.8-.1-1.1-.2a2.35,2.35,0,0,1-.8-.2"/><path class="cls-18" d="M102.8,71.24h1.8a2.77,2.77,0,0,1,.9.1h.3a6.6,6.6,0,0,1,1.4.1h.1a12.25,12.25,0,0,1,1.9.2,22.11,22.11,0,0,1,2.5.5l.8.2a1.34,1.34,0,0,1,.7.6.35.35,0,0,1,.1.2c0,.2-.2.3-.3.2a3.58,3.58,0,0,0-1.1-.4l-2.2-.6a15.17,15.17,0,0,0-2.1-.3,5.9,5.9,0,0,1-1.4-.2c-.4-.1-1.1,0-1.7-.1a17.7,17.7,0,0,0-2.3-.1,1.7,1.7,0,0,0-.7.1h-.2a9.15,9.15,0,0,0-1.7.1l-2,.3a10.55,10.55,0,0,0-1.9.5c-.3.1-.7.3-1,.4-.1.1-.2.1-.4.2s-.3,0-.3-.2.1-.2.1-.3a2.4,2.4,0,0,1,1.2-.7,12.09,12.09,0,0,1,1.8-.5l1.8-.3c.4,0,.8-.1,1.1-.1h.1a24.37,24.37,0,0,1,2.7.1"/><path class="cls-18" d="M105.4,73.44a2.77,2.77,0,0,1,.9.1h.3a6.87,6.87,0,0,1,2.4.5l.2.1a.19.19,0,0,1,0,.3h0a.55.55,0,0,1-.5.3l-2,.4a9.85,9.85,0,0,0-1.7.2h-.8a6.6,6.6,0,0,0-1.4.1.45.45,0,0,1-.5,0,2.49,2.49,0,0,0-.8-.1,8.63,8.63,0,0,1-2.8-.4,6.89,6.89,0,0,1-.8-.3c-.2-.1-.2-.2,0-.4s.3-.2.4-.3a12.44,12.44,0,0,0,1.6-.4,9.85,9.85,0,0,0,1.7-.2h.3v.1a.35.35,0,0,1-.2.1c-.3.1-.7.2-1,.3-.1.1-.2.2-.1.3a.1.1,0,0,0,.1.1.86.86,0,0,0,.6.3,12.09,12.09,0,0,0,1.8.5,2.77,2.77,0,0,0,.9-.1,5,5,0,0,0,1.3-.3,5.64,5.64,0,0,0,1.2-.4c.1,0,.2-.2.2-.3a.22.22,0,0,0-.2-.2l-.7-.2c-.2.1-.3,0-.4-.1"/><path class="cls-18" d="M103.4,74.54a5.7,5.7,0,0,1-1.3-.1.35.35,0,0,1-.2-.1c0-.1,0-.2.1-.2h0a.6.6,0,0,1,.4-.1,2,2,0,0,0,.8-.1h.2a4.1,4.1,0,0,0,1.1.1c.2,0,.4.1.6.1l.1.1-.1.1a3.55,3.55,0,0,1-1,.2h-.7"/><path class="cls-18" d="M121.3,69.24H121V69a.64.64,0,0,1,.6,0,.1.1,0,1,1,0,.2h-.3m8.6.1h-.1v-.1a.3.3,0,0,1,.4,0s.1,0,0,.1a.1.1,0,0,1-.1.1l-.2-.1m-30.2,3.5h-.2v-.1a.1.1,0,0,1,.1-.1h.3v.1a.1.1,0,0,1-.1.1h-.1m14.4-15.6a4.68,4.68,0,0,1,1.7-.2,1.27,1.27,0,0,0,.6-.1h.2c.4,0,.8-.1,1.2-.1a7.72,7.72,0,0,0,1.5-.2,5.85,5.85,0,0,0,1.3-.2,3.4,3.4,0,0,1,1-.1c.8-.1,1.7-.3,2.5-.4a17.42,17.42,0,0,0,2.2-.5,4.18,4.18,0,0,0,1-.4.1.1,0,0,0,.1-.1c.3-.3.3-.5-.1-.7-.1-.1-.3-.1-.4-.2a18.43,18.43,0,0,0-2.5-.5l-2-.3c-.5-.1-1-.1-1.5-.2-.2,0-.3,0-.4-.1h-.2c-.6,0-1.1-.1-1.7-.1a3.4,3.4,0,0,1-1-.1h-1.4a.1.1,0,0,1-.1-.1c0-.1,0-.1.1-.1h3.5a4.1,4.1,0,0,1,1.1.1H122a3.4,3.4,0,0,1,1,.1h.4a4.87,4.87,0,0,1,1.2.1h.4a1.27,1.27,0,0,1,.6.1h.2a23,23,0,0,1,2.6.3,15.54,15.54,0,0,1,2.3.5l.9.3a.22.22,0,0,1,.2.2.3.3,0,0,1,0,.4h0a3.59,3.59,0,0,1-1,.7c-.6.2-1.3.4-2,.6a25.58,25.58,0,0,1-2.7.5c-.4.1-.8.1-1.2.2a6.75,6.75,0,0,0-1.4.2H123a1.7,1.7,0,0,0-.7.1h-.2a18.48,18.48,0,0,1-2.3.1,3.4,3.4,0,0,0-1,.1h-.3l-4.4.1m23.4,4.7H135a4.1,4.1,0,0,1-1.1-.1h-1a3.4,3.4,0,0,1-1-.1h-.6a2.77,2.77,0,0,1-.9-.1h-.1a9.7,9.7,0,0,1-1.7-.1,6.75,6.75,0,0,1-1.4-.2l-1-.1a18,18,0,0,1-3.2-.6c-.4-.1-.7-.2-1-.3l-.1-.1c-.1,0-.1-.2-.1-.2l.1-.1a6.89,6.89,0,0,1,.8-.3l1.6-.3c.5-.1.8-.1,1.2-.2s1-.1,1.5-.2h.7a.74.74,0,0,0,.8-.4.3.3,0,0,1,.4,0,.5.5,0,0,0,.8,0c0-.1.2-.2.3-.2h.1c.3.3.7.2,1.1.2h.2c.3-.3.6-.1.9-.1a4.84,4.84,0,0,0,1.7,0,23.48,23.48,0,0,1,2.6-.1h4.1a2.2,2.2,0,0,1,.8.1h1.6a1.7,1.7,0,0,1,.7.1h.2a13.4,13.4,0,0,1,2,.1c.3,0,.7.1,1,.1.6.1,1.2.2,1.9.3a5.64,5.64,0,0,1,1.2.4c.1.1.4.1.4.3s-.2.3-.3.4c-.4.2-.8.3-1.2.5-.9.2-1.8.4-2.8.6-.6.1-1.2.1-1.8.2a11,11,0,0,0-1.8.2h-1a1.7,1.7,0,0,0-.7.1h-.5l-2.9.2m-.9-.4h3.5a1.27,1.27,0,0,1,.6-.1,14.77,14.77,0,0,0,2.1-.1c.3,0,.7-.1,1-.1a4.1,4.1,0,0,1,1.1-.1c.4,0,.7-.2,1-.2a9.38,9.38,0,0,0,2.4-.6c.1,0,.2-.1.3-.1s.1-.1.1-.2-.1-.1-.1-.2a.31.31,0,0,1-.2-.1,7,7,0,0,0-2.5-.5,3.81,3.81,0,0,0-1.5-.1h-.1a3.4,3.4,0,0,0-1-.1h-.4a2.77,2.77,0,0,0-.9-.1,6.15,6.15,0,0,1-1.4-.1h-7.4a1.7,1.7,0,0,1-.7.1,10.87,10.87,0,0,0-1.8.1h-.2a6.6,6.6,0,0,0-1.4.1h-.8c-.5.2-1,0-1.5.2a11,11,0,0,0-1.8.2l-.9.3a.37.37,0,0,0-.1.3.22.22,0,0,0,.2.2l.3.1a12.21,12.21,0,0,0,2.6.6l1,.1a6.75,6.75,0,0,0,1.4.2,9.7,9.7,0,0,0,1.7.1h.1a4.48,4.48,0,0,0,1.1.1h.7a1.7,1.7,0,0,0,.7.1l2.8-.1M96.4,54c0,.1.1.2.2.1a5.85,5.85,0,0,1,1.3-.2l1.2-.2c.6-.1,1.1-.1,1.7-.2h.9a2.77,2.77,0,0,0,.9-.1h4.1a1.27,1.27,0,0,1,.6.1h.6a6.6,6.6,0,0,1,1.4.1c.4.1.9.1,1.3.2a8.73,8.73,0,0,1,2.2.5,1.69,1.69,0,0,0,.5.2c.2.1.2.2,0,.4s-.2.1-.2,0a.45.45,0,0,0-.4-.3,11.08,11.08,0,0,0-1.9-.2,7.57,7.57,0,0,0-1.5-.1h-.2a3.81,3.81,0,0,0-1.5-.1h-2.3a4.87,4.87,0,0,0-1.2.1h-1a4.1,4.1,0,0,0-1.1.1h-.5a3.4,3.4,0,0,0-1,.1h-.2c-.5,0-1,.1-1.4.1-.2,0-.3.1-.4.1l-.1.1v.1h0a.76.76,0,0,0,.4.2,3.59,3.59,0,0,1,1.1.2,7.72,7.72,0,0,1,1.5.2h.3a3.4,3.4,0,0,1,1,.1h.5a3.4,3.4,0,0,1,1,.1h3.5a4.87,4.87,0,0,0,1.2-.1h.1a14.92,14.92,0,0,0,2.1-.2,5,5,0,0,0,1.2-.2h.2c.1,0,.1,0,.1.1h0a.1.1,0,0,1-.1.1h-.1a12.09,12.09,0,0,1-1.8.5,8,8,0,0,0-1.5.3h-.3a1.7,1.7,0,0,0-.7.1h-.5a3.4,3.4,0,0,0-1,.1h-4.2a1.27,1.27,0,0,1-.6-.1h-.2a9.15,9.15,0,0,1-1.7-.1,6.75,6.75,0,0,1-1.4-.2,9.77,9.77,0,0,1-2.3-.6c.2-.4,0-.4-.2-.5s-.3-.2-.2-.6v-.1c.2-.1.5-.1.6-.2"/><path class="cls-18" d="M127.9,58.54a4.13,4.13,0,0,1-1.9.2h-.6a7.57,7.57,0,0,0-1.5.1,14.92,14.92,0,0,1-2.1.2,5,5,0,0,0-1.2.2,12.66,12.66,0,0,0-2.8.6c-.2.1-.5.1-.5.4s.3.3.5.3a10.55,10.55,0,0,0,1.9.5c.7.1,1.2.2,1.7.3a4.48,4.48,0,0,0,1.1.1l1.4.2c.4.1.8.1,1.2.2l1,.1c.5,0,1,.1,1.5.1a4.4,4.4,0,0,1,1.6.2c-.1.1-.2,0-.2.1h-1.4a1.7,1.7,0,0,1-.7-.1h-1.6c-.4,0-.6-.2-1-.1h-1c-.4-.1-.9,0-1.3-.1a11,11,0,0,1-1.8-.2H120c-.5.1-1-.2-1.6-.1a5.85,5.85,0,0,0-1.3-.2,3.4,3.4,0,0,0-1-.1c-1.1-.1-2.2-.4-3.3-.6l-.9-.3a.35.35,0,0,1-.2-.1.37.37,0,0,1-.1-.3.1.1,0,0,1,.1-.1l.2-.1a10.26,10.26,0,0,1,1.4-.4l1.7-.3a6.6,6.6,0,0,1,1.4-.1,1.7,1.7,0,0,0,.7-.1h.5a1.7,1.7,0,0,0,.7-.1h.2c.7.1,1.4-.2,2.2-.1a1.27,1.27,0,0,0,.6-.1h.6a6.6,6.6,0,0,0,1.4-.1h2.1a1.27,1.27,0,0,1,.6-.1h2M96.5,53a8.75,8.75,0,0,1,1.6-.2h.4a1.7,1.7,0,0,0,.7-.1h.2c.9.1,1.8-.2,2.7-.1a2,2,0,0,0,.8-.1h7.7a1.27,1.27,0,0,1,.6.1h.6a4.1,4.1,0,0,1,1.1.1h.1a10.87,10.87,0,0,1,1.8.1c.3,0,.7.1,1,.1a18.43,18.43,0,0,1,2.5.5,6.12,6.12,0,0,1,1.2.5.78.78,0,0,1,.4.4.37.37,0,0,1,.1.3.1.1,0,0,1-.1.1h-.1c-.1-.3-.3-.4-.6-.5a11.7,11.7,0,0,0-2-.5c-.2,0-.4-.1-.6-.1-.6-.1-1.2-.2-1.9-.3a8.75,8.75,0,0,1-1.6-.2h-.3a3.4,3.4,0,0,1-1-.1h-.9a1.7,1.7,0,0,1-.7-.1h-2.4a2.77,2.77,0,0,1-.9-.1h-.3a13.4,13.4,0,0,0-2,.1h-2.2a2.2,2.2,0,0,0-.8.1h-.4a5.7,5.7,0,0,0-1.3.1h-.5a1.7,1.7,0,0,0-.7.1h-.2c-.5,0-1,.1-1.4.1a1.27,1.27,0,0,0-.6.1V53m64.2.5h-5a2.2,2.2,0,0,0-.8.1h-.4a2.77,2.77,0,0,0-.9.1h-.2c-1,.1-2,.2-3,.4a12.44,12.44,0,0,0-1.6.4,7,7,0,0,0-2,.8c-.2.1-.3,0-.3-.2s0-.3.1-.4a1.79,1.79,0,0,1,.7-.5,12.76,12.76,0,0,1,2.8-.7c.6-.1,1.1-.1,1.7-.2a8.75,8.75,0,0,0,1.6-.2h.6a3.4,3.4,0,0,0,1-.1h6.1a1,1,0,0,0-.4.5M105,55.24h-.8a5.08,5.08,0,0,1-1.7-.3c-.1,0-.1,0-.1-.1s-.1-.1,0-.2a.31.31,0,0,1,.2-.1c.4-.1.9-.1,1.3-.2a2.08,2.08,0,0,0,1.1-.1h.2a5.7,5.7,0,0,0,1.3.1,5.85,5.85,0,0,1,1.3.2.1.1,0,0,1,.1.1c0,.1,0,.1-.1.1a11.63,11.63,0,0,1-1.8.4l-1,.1"/><path class="cls-24" d="M98.3,35.64a13.39,13.39,0,0,1-1.2.6c-.8.3-1.7.6-2.5.9a4.25,4.25,0,0,1-1.1.2c-.3,0-.6.1-.8.1l-2,.3h-.1c0-.1.1-.1.1-.2A13.16,13.16,0,0,1,94.6,36c.6-.1,1.2-.2,1.9-.3a7.57,7.57,0,0,1,1.5-.1h.3M93,45.94a2.18,2.18,0,0,1-.5-.8c-.3-.7-.6-1.3-.9-2a7,7,0,0,1-.6-1.9,14.16,14.16,0,0,1-.4-2c0-.2-.2-.4,0-.5s.2.2.3.3a6.11,6.11,0,0,1,.7,1.4,14.26,14.26,0,0,1,.9,2.7c.1.7.3,1.4.4,2.1a1.48,1.48,0,0,0,.1.7m-31-23a1.15,1.15,0,0,1,1,1.3,1.07,1.07,0,0,1-1,1A1.2,1.2,0,0,1,60.9,24a1.11,1.11,0,0,1,1.1-1.1h0M63.5,30c0-.2.1-.3.3-.4a11,11,0,0,0,2.2-3.1,14.76,14.76,0,0,0,1-2.7c0-.1,0-.2.2-.3v.7a8.63,8.63,0,0,1-1.6,4.1,8.08,8.08,0,0,1-1.6,1.6.44.44,0,0,1-.5.1Zm14.3-1.9a.87.87,0,0,1-.6.9.6.6,0,0,1-.4-.1v-.1l.6-1.2c.1-.1.2-.1.2,0h0c.2,0,.2.2.2.5m-3.5-2.7h-.2a.1.1,0,0,1-.1-.1v-.1a10.91,10.91,0,0,1,.6-1.1c.1-.2.2-.2.4,0a.74.74,0,0,1,.1.9.74.74,0,0,1-.8.4m-5,2.3c-.2,0-.3-.1-.2-.3a5.36,5.36,0,0,1,.5-1.1.19.19,0,0,1,.3,0,.68.68,0,0,1,.2,1,.63.63,0,0,1-.8.4m9.6,3.4a.88.88,0,0,1-.8.9c-.1,0-.3,0-.3-.2v-.2l.5-1c.1-.2.2-.2.4,0a1.69,1.69,0,0,1,.2.5m-1,3.1a.9.9,0,0,1-.9.9h-.1a.22.22,0,0,1-.2-.2v-.1a10.91,10.91,0,0,1,.6-1.1.19.19,0,0,1,.3,0h0a.91.91,0,0,1,.3.5m3-1a.88.88,0,0,1-.8.9c-.2,0-.4-.1-.3-.4a4.67,4.67,0,0,1,.5-1c.2-.3.3-.2.4,0s.2.3.2.5m-9.6-9.5a.88.88,0,0,1-.8.9.22.22,0,0,1-.2-.2v-.1a6.12,6.12,0,0,1,.5-1.2.37.37,0,0,1,.3-.1.1.1,0,0,1,.1.1c0,.2.1.4.1.6m.5,8.5c-.2,0-.3-.1-.2-.2a3.38,3.38,0,0,1,.6-1.2c.1-.1.2-.1.2,0a.65.65,0,0,1,.2.9c-.2.3-.5.6-.8.5m-.3-2.9a.9.9,0,0,1-.9.9h0a.22.22,0,0,1-.2-.2v-.1a9.29,9.29,0,0,1,.5-1c.1-.2.2-.2.4,0a.4.4,0,0,1,.2.4m3.8.9a.8.8,0,0,1-.6.9c-.2,0-.4.1-.5-.1s0-.2.1-.4.3-.6.4-.9.2-.2.4,0a.65.65,0,0,1,.2.5m-6.7.6a.8.8,0,0,1-.6.9c-.2,0-.4.1-.5-.1s0-.2.1-.4.3-.6.4-.9.2-.2.4,0a.55.55,0,0,1,.2.5m4.6-2.5h-.1a.22.22,0,0,1-.2-.2h0V28a9.29,9.29,0,0,0,.5-1c.2-.4.2-.2.4,0a.83.83,0,0,1,.2.8,1,1,0,0,1-.8.5m2,5.5h-.1c-.2,0-.2-.1-.2-.3s.2-.4.3-.6l.1-.2c.1-.1.1-.3.2-.3a.32.32,0,0,1,.3.3.8.8,0,0,1-.3,1.1.19.19,0,0,0-.3,0"/><path class="cls-19" d="M155.1,42.24c-.1,0-.1.1-.2.1l-1,.8a5.72,5.72,0,0,0-.8.7.75.75,0,0,1-.9,0,2,2,0,0,1-.4-.8c-.2-.6-.4-1.2-.6-1.9-.1-.1-.2-.2-.3-.1l-.2.2-1,1-.3.3a1,1,0,0,1-1.4,0c-.1-.1-.1-.2-.2-.3s-.1-.2-.1-.4l-.9-2.4c-.1-.3-.2-.4-.5-.2-.8.5-1.6,1-2.3,1.5-.2.2-.4.3-.6.5s-.2.1-.4.2a.37.37,0,0,1-.5-.2v-.1a18.24,18.24,0,0,1-.7-2.5l-.1-.4a.37.37,0,0,1,.1-.3c.1-.1.2-.2.4-.1a.1.1,0,0,1,.1.1c0,.1.1.2.1.3a8.47,8.47,0,0,0,.4,1.7c0,.1.1.3.1.4s.1.2.3.1l1.2-.9c.7-.5,1.5-.9,2.2-1.4a.19.19,0,0,1,.3,0h0a2.51,2.51,0,0,1,.4.7c.2.7.5,1.3.7,2a1.37,1.37,0,0,0,.5.8c.1.2.4.2.6.1l.1-.1a9.43,9.43,0,0,0,1-1,1.21,1.21,0,0,1,.5-.5.53.53,0,0,1,.8-.1c.1.1.2.2.2.3a1.45,1.45,0,0,1,.2.7c.2.5.3,1.1.5,1.6.1.3.3.3.5.1l1.2-1c.3-.2.5-.5.8-.7s.3-.1.4.1l.8,1.2.9,1.5.1.1c.1.1.2.1.2,0s.3-.2.4-.4l1.4-1.7.3-.3a.19.19,0,0,1,.3,0c.1.1.2.2.1.3a.76.76,0,0,0-.2.4l-.3.4-1.7,2c-.4.4-.5.4-.8-.1-.5-.8-1.1-1.7-1.6-2.5.1.3,0,.2-.1.2m-2.6-7.1-1.2.9-1,.8c-.1.1-.2.1-.4.1a.71.71,0,0,1-.6-.3,1.42,1.42,0,0,1-.2-.6,7.62,7.62,0,0,0-.6-2c0-.1-.1-.2-.3-.1a14.2,14.2,0,0,0-1.3,1.2,5,5,0,0,1-.8.7.6.6,0,0,1-1-.3,3.19,3.19,0,0,1-.3-1.4,1.48,1.48,0,0,1-.1-.7.52.52,0,0,1,.2-.4c.2,0,.3.1.4.3s.1.7.2,1a2,2,0,0,1,.1.7c0,.1.2.2.3.2a.1.1,0,0,0,.1-.1l.2-.2c.7-.7,1.5-1.3,2.2-2a.44.44,0,0,1,.5-.1.35.35,0,0,1,.1.2c.1.2.1.3.2.5l.5,2a.37.37,0,0,0,.1.3c.1.4.3.5.6.2a3.92,3.92,0,0,1,1-.8c.4-.2.7-.6,1.1-.8s.5-.1.6.2l.7,2.1a6.37,6.37,0,0,1,.2.7c.1.3.3.3.4,0l.9-1.2c.1-.2.3-.3.5-.5a.76.76,0,0,1,.4-.2.19.19,0,0,1,.3,0,1.21,1.21,0,0,1,.5.5c.2.6.5,1.2.7,1.8a2.51,2.51,0,0,0,.4.7c.1.1.3.2.4.1a.1.1,0,0,0,.1-.1c.4-.5.9-1,1.4-1.6a5,5,0,0,1,.7-.8l.2-.2a.28.28,0,1,1,.4.4h0c-.2.2-.4.5-.6.7a21,21,0,0,0-1.4,1.7,1.21,1.21,0,0,1-.5.5.74.74,0,0,1-.9-.1,2.38,2.38,0,0,1-.6-1.1l-.6-1.5a.35.35,0,0,0-.1-.2.19.19,0,0,0-.3,0c-.1.1-.2.2-.2.3l-1,1.4-.1.1c-.5.5-.9.4-1.2-.1-.1-.1-.1-.2-.1-.4l-.7-2c-.2-.3-.3-.5-.5-.5"/><path class="cls-19" d="M155.6,33.24c.2-.1.3-.3.4-.4s.4-.5.6-.7a.53.53,0,0,1,.8-.1.52.52,0,0,1,.2.4l.3,1.2.3,1.2a.52.52,0,0,1-.2.4c-.1,0-.3,0-.3-.1a1.69,1.69,0,0,1-.2-.5l-.3-1.2c0-.1,0-.1-.1-.2-.1-.4-.3-.4-.6-.1a10.63,10.63,0,0,0-.9,1.1c-.1.1-.2.3-.4.4a.45.45,0,0,1-.5,0c-.1-.1-.1-.1-.1-.2a7.08,7.08,0,0,1-.1-1.4c0-.3-.1-.6-.1-.9a.22.22,0,0,0-.2-.2c-.1,0-.2.1-.3.2l-1.5,1.2-.9.6a.3.3,0,0,1-.4,0l-.1-.1a.6.6,0,0,1-.1-.4,11.8,11.8,0,0,0-.4-2,.37.37,0,0,0-.1-.3.49.49,0,0,0-.6-.3h-.1a3.59,3.59,0,0,0-1,.7c-.1.1-.2.1-.3.2h-.3v-.3c0-.1.1-.1.1-.2a5.8,5.8,0,0,1,1.2-1,1.48,1.48,0,0,1,.7-.1.84.84,0,0,1,.7.4,4.87,4.87,0,0,1,.4,1.1c.1.4.2.9.3,1.3,0,.1.1.1.2.1h0l1.1-.8,1.1-.8a1.42,1.42,0,0,1,.6-.2c.4,0,.6.1.6.5a4.48,4.48,0,0,1,.1,1.1c.2,0,.3.2.4.4"/><path class="cls-14" d="M139.3,26.74a.6.6,0,0,1-.4-.1.76.76,0,0,0-.4-.2c-.1-.1-.2,0-.4.2,0,.1-.1.1-.2.1h-.5c-.2,0-.3,0-.3.2a6.47,6.47,0,0,1-.4,1.3c-.1.2-.1.4-.2.5s-.1.1-.1.2a.45.45,0,0,1,0-.5,15.43,15.43,0,0,1,.5-1.7c0-.1.1-.2.1-.3a.32.32,0,0,0-.3-.3c-.1,0-.1,0-.1.1l-.6.6-.2.2c-.1.1-.1.1-.1,0v-.2l.1-.1c.2-.3.4-.5.6-.8-.3-.1-.3-.1-.4-.1a4.55,4.55,0,0,0-1.9.8.37.37,0,0,1-.3.1.52.52,0,0,1,.2-.4,3.87,3.87,0,0,1,2.1-.8h.2c.2,0,.2,0,.3-.3V25c.4,0,.5,0,.3-.4v-.2a.1.1,0,0,0,.1-.1h.1c.1,0,.1.1.1.2s.1.3.2.5a.45.45,0,0,0,.6.2h.1a.57.57,0,0,0,.4.7h0a5.72,5.72,0,0,1,.8.8"/><path class="cls-14" d="M139.4,29.24v.5h-.2v-.4a4.14,4.14,0,0,0-.5-1.9c0-.1-.1-.1-.1-.2V27c.1-.1.1,0,.2.1a3.38,3.38,0,0,1,.6,1.2,1.39,1.39,0,0,1,0,.9m-4.4-4.1a.62.62,0,0,1,.7-.2c.2,0,.3.1.5.2a.1.1,0,0,0,.1.1l-.1.1a1.72,1.72,0,0,0-1.2-.2m4.8,2.1c-.2,0-.4-.2-.5-.5a.47.47,0,0,1,.5.5Zm-1.8-1.8a4.88,4.88,0,0,1,.3-.7c0,.4,0,.6-.3.7m-4.2,1.5c0,.1-.1.1,0,0l-.1.1h0l.1-.1m6,.3h0l.1.1a.1.1,0,0,0-.1-.1Z"/><path class="cls-10" d="M66.8,10.34v.1a15.39,15.39,0,0,1-.8,1.9,1.38,1.38,0,0,1-.3.4h-.2l-.1-.1c0-.1,0-.1.1-.2l.8-2a.22.22,0,0,1,.2-.2c.1-.1.2-.1.2,0,.1-.1.1,0,.1.1m-2.9-4.2a.31.31,0,0,1-.1-.2c0-.2.1-.4.1-.6a5.36,5.36,0,0,1,.5-1.1.22.22,0,0,1,.2-.2h.2c.1,0,.1.1.1.2s0,.1-.1.2a6.94,6.94,0,0,0-.5,1.3.52.52,0,0,1-.2.4h-.2m-5.2,5.2a3,3,0,0,1,.5-1.3c0-.1.2-.1.2,0a.37.37,0,0,1,.1.3l-.4,1.3-.1.1c-.1,0-.2,0-.2-.1a.37.37,0,0,1-.1-.3M46,2.94a2.35,2.35,0,0,1-.2.8c0,.1-.1.1-.2.2h-.2a.1.1,0,0,1-.1-.1v-.3a2.2,2.2,0,0,0,.1-.8v-.2c0-.1.1-.1.2-.1s.1.1.2.1.1.2.2.4m3.3,4.7a1.93,1.93,0,0,1,.3-1,.19.19,0,0,1,.3-.1h0c.1,0,.1.1.1.2h0a3.58,3.58,0,0,1-.4,1.1c0,.1-.1.1-.2.1a.1.1,0,0,1-.1-.1v-.2m7.4-1.8a6.89,6.89,0,0,1-.3.8c-.1.1-.1.2-.3.2h-.2v-.1a4.87,4.87,0,0,1,.4-1.1c0-.1.1-.2.2-.1s.2.1.2.3h0"/><path class="cls-25" d="M97.8,20.24a.68.68,0,0,1-.7.7c-.4,0-.6-.3-.6-.7s.2-.7.6-.7.7.2.7.6v.1m-7.7.6a.66.66,0,0,1-.6.7.75.75,0,0,1-.7-.6h0c0-.4.2-.7.6-.6s.7.1.7.5m.3-12.2A.44.44,0,0,1,91,9v.2c0,.4-.3.6-.7.6s-.6-.3-.6-.7.3-.5.7-.5m1.7,14.7a.44.44,0,0,1-.4.6h-.2a.75.75,0,0,1-.7-.6c0-.4.3-.6.7-.6a.56.56,0,0,1,.6.5v.1m1.2-12.6c0,.3-.2.6-.4.6h-.1c-.3,0-.7-.3-.7-.6s.3-.6.7-.6.5.2.5.6M82.6,14a.53.53,0,0,1,.6-.6.6.6,0,1,1,0,1.2.75.75,0,0,1-.7-.5.1.1,0,0,0,.1-.1m14.2-2.4a.6.6,0,0,1,1.2,0h0c0,.4-.3.6-.7.6h0a.56.56,0,0,1-.5-.6m-1.1,7.3c0,.5-.3.7-.8.6a.27.27,0,0,1-.3-.3.64.64,0,0,1,0-.6.61.61,0,0,1,.7-.3.57.57,0,0,1,.4.6m-9.8-5.5c-.4,0-.5-.2-.6-.6a.56.56,0,0,1,.5-.6h.1a.65.65,0,0,1,.6.6q0,.75-.6.6m7.2,7.7a.46.46,0,0,1,.4-.5h.1a.47.47,0,0,1,.5.5h0a.47.47,0,0,1-.5.5.54.54,0,0,1-.5-.5m-4.8-9.9c-.3,0-.4-.1-.4-.4a.55.55,0,0,1,.4-.6h0a.46.46,0,0,1,.5.4c0,.4-.2.6-.5.6M87.1,21a.47.47,0,0,1,.5.5.56.56,0,0,1-.6.5h0c-.3,0-.4-.1-.4-.4s.1-.5.5-.6M85,11.14a.47.47,0,0,1-.5.5c-.3,0-.4-.3-.4-.5a.43.43,0,0,1,.4-.4c.3-.1.5.1.5.4m10.5-.4a.43.43,0,0,1-.4.4c-.3,0-.5-.1-.5-.4s.1-.5.4-.5h.1a.46.46,0,0,1,.4.5m-7.8-1.3c0,.3-.2.5-.5.4s-.3-.2-.4-.3a.76.76,0,0,1,.1-.4c.1-.2.2-.3.4-.2a.51.51,0,0,1,.4.5m3.8,9.7c0,.3-.1.4-.4.4s-.4-.1-.4-.3v-.1c0-.3.1-.4.4-.4a.37.37,0,0,1,.4.4"/><path class="cls-17" d="M19.5,9.44a.6.6,0,0,1,.4.1,3,3,0,0,0,1,.4,1.39,1.39,0,0,1,1,.5l.1.1a.1.1,0,0,0,.1.1.52.52,0,0,0,.2.4c0,.1,0,.3.2.2a.37.37,0,0,0,.2.5h0c0,.1,0,.1.1.1s0,.2.1.2,0,.1.1.1,0,.2.1.2h0a.55.55,0,0,0,.3.5c0,.1-.1.1-.2.1l-.2-.2-1.5-.6a1.61,1.61,0,0,1-.7-.4l-.8-1.6c0-.1-.1-.1-.1-.2a.1.1,0,0,1-.1-.1c0-.1,0-.2-.1-.2h0c-.1-.1-.1-.2-.2-.2"/><path class="cls-17" d="M28.7,12.94a.87.87,0,0,1,.4.9c0,.2-.1.3-.2.5a.9.9,0,0,1-.5-.1l-1.6-.4c-.1,0-.3-.1-.4-.1s-.3-.2-.5-.1l-.9-.3h2.4a1.14,1.14,0,0,0,.8-.3.44.44,0,0,1,.5-.1"/><path class="cls-26" d="M18.6,13.64a3.55,3.55,0,0,1,1-.2H22c.2,0,.4.1.6.1s.5.1.7-.2c.2,0,.2.1.2.2s-.3.1-.5.1H18.6m-.6-2.2a3.4,3.4,0,0,1-1-.1,8.6,8.6,0,0,0-1.6-.1h-.9c-.1,0-.1,0-.1-.1a.1.1,0,0,1,.1-.1H15a12.29,12.29,0,0,1,2.7.2H18c.2,0,.2,0,0,.2m7.6-2c0-.2,0-.3-.1-.4a18.43,18.43,0,0,1-.5-2.5c0-.3-.2-.5-.1-.8.2.2.1.5.2.8a6.75,6.75,0,0,1,.2,1.4,7.49,7.49,0,0,0,.4,1.6v.2c0,.1-.2,0-.2-.1s.2-.2.1-.2Zm1.8,1.4a.37.37,0,0,0-.1-.3,2.66,2.66,0,0,1-.3-1.2,2.82,2.82,0,0,0-.4-1.5c0-.1-.1-.2-.1-.3a.1.1,0,0,1,.1-.1h0c.1.2.3.3.3.5a3.19,3.19,0,0,1,.3,1.4,2,2,0,0,0,.6,1.5c0,.1,0,.1.1.2a.4.4,0,0,1-.4-.2Zm-6.6,1.8H20a22.6,22.6,0,0,0-2.6-.1.6.6,0,0,1-.4-.1,2.92,2.92,0,0,1,.9-.2,9.7,9.7,0,0,1,1.7.1h.7c.1,0,.2,0,.2-.1.2,0,.2,0,.3.4m1-6.9c.1,0,.1-.1.1-.2h0a3.4,3.4,0,0,1-.1-1,8.75,8.75,0,0,0-.2-1.6c0-.1-.1-.2,0-.3s.1,0,.1,0a2,2,0,0,1,.3,1.1,6.72,6.72,0,0,0,.4,2.4c-.3,0-.4-.2-.6-.4m2.9,3.9a2.88,2.88,0,0,1-1.3-.1,21.72,21.72,0,0,1-2.4-.7.1.1,0,0,1-.1-.1v-.1h0l.3.1a10.55,10.55,0,0,0,2.4.6l1.1.3h0m2.1,1.5a.76.76,0,0,1-.4.2,9.18,9.18,0,0,1-2.8-.5l-.1-.1a.14.14,0,0,1,.2,0,13.64,13.64,0,0,0,1.7.4c.3,0,.6.1.9.1.1,0,.1,0,.2-.1s.3-.1.3,0m-2.9-3.2a.85.85,0,0,0,0-.7c-.2-.7-.4-1.5-.6-2.2,0-.1-.1-.2,0-.4a1.61,1.61,0,0,1,.3.9c.2.8.4,1.6.6,2.5v.2a.37.37,0,0,1-.3-.1c-.1-.1.1-.2,0-.2Zm-.7.2h-.1A18.89,18.89,0,0,1,20.6,7l-.1-.1c.2-.1.3,0,.4.1l1.7.8c.1,0,.2.1.3-.1.2,0,.3.2.3.4m-6.9,12.7a.48.48,0,0,0-.6-.2H13.9a.37.37,0,0,1,.3-.1,3.75,3.75,0,0,1,1.1.1h.9a.6.6,0,0,1,.4.1.19.19,0,0,1-.3.1m2.1-.9a.37.37,0,0,0-.3-.1,19.27,19.27,0,0,1-2.4-.1.1.1,0,0,1-.1-.1,4.3,4.3,0,0,1,1.6,0,2.44,2.44,0,0,0,1.2,0h.5a.55.55,0,0,1-.5.3m1.4-15.8-1.7-.9-.1-.1S17.9,3,18,3h.1l.4.2,1,.5c.1.1.2.1.4.1s.1.2,0,.3h0m-.3,5.7c.1,0,.1,0,.1.1s.1.1.1.2l.9,1.6c-.1.2-.1.2-.4,0,.1-.1.1-.2,0-.2a10.93,10.93,0,0,1-.8-1.5c.1,0,.1-.1.1-.2m.4-6.5c.2-.1.1-.2.1-.3a4.4,4.4,0,0,1-.2-1c0-.1,0-.1-.1-.2l.1-.1h0a.76.76,0,0,1,.2.5l.3,1.5v.1c-.2-.2-.3-.4-.4-.5m1.5,2.9-1.6-.7a.1.1,0,0,1-.1-.1v-.1h.1l1.1.4c.1.1.2.1.4.1,0,.1.1.1.1,0a.48.48,0,0,1,0,.4"/><path class="cls-17" d="M23.1,13.74a1.09,1.09,0,0,0,.5-.1,3.08,3.08,0,0,1,1.3.3,2.2,2.2,0,0,1-.8-.1h-.5a.75.75,0,0,1-.5-.1"/><path class="cls-17" d="M25.2,14a.6.6,0,0,1-.4-.1c.2,0,.3,0,.4.1"/><path class="cls-14" d="M25.6,9.44a.37.37,0,0,1,.1.3c0-.1-.2-.2-.1-.3"/><path class="cls-26" d="M14.2,22.94c0-.1,0-.2.1-.2a.31.31,0,0,1-.1.2Z"/><path class="cls-17" d="M17.2,10.24a.1.1,0,0,1,.1.1.1.1,0,0,1-.1-.1"/><path class="cls-26" d="M19.6,20.44l.1-.1.1.1h-.2"/><path class="cls-26" d="M19.5,20.54l.1-.1.1.1h-.2"/><path class="cls-26" d="M19.6,20.64l-.1.1-.1-.1h.2"/><path class="cls-26" d="M19.3,20.84l.1-.1.1.1h-.2"/><path class="cls-26" d="M19.1,20.94l.1-.1.1.1h-.2M19,21l.1-.1.1.1H19"/><path class="cls-26" d="M14.2,22.94h0m-.2.3Zm0,0h0c-.1.1-.1,0,0,0m1.6,0h0c-.1.1-.1,0,0,0m.7-14.1c-.2,0-.3-.2-.4-.3l.1-.1c.2,0,.3.2.4.3l-.1.1m3.2.5c.1,0,.1.1.1.2s-.1-.1-.1-.2m-4.2-1.2c-.1,0-.2,0-.1-.1s.1-.1.1.1h0m.1-.1a.35.35,0,0,1,.2.1v.1c-.1,0-.2,0-.2-.2m.3.2a.35.35,0,0,1,.2.1l-.1.1s-.1,0-.1-.2h0"/><path class="cls-26" d="M15.7,8.64l-.1-.1.1-.1v.2h0m.9.8-.1-.1h0l.1.1h0"/><path class="cls-26" d="M16.7,9.54l-.1-.1.1-.1v.2h0m-.2-.2-.1-.1.1-.1v.2h0"/><path class="cls-26" d="M16.3,9l.1.1-.1.1V9h0m.5.4.1.1h-.1v-.1h0"/><path class="cls-18" d="M142.4,85.84a4.88,4.88,0,0,1,1.7.1h.4a4.1,4.1,0,0,1,1.1.1c.4.1.8.1,1.2.2l.8.1a.1.1,0,0,1,.1.1c.1,0,.1.1,0,.2h0a.37.37,0,0,1-.3.1,11,11,0,0,1-1.8.2c-.6.2-1.3,0-1.9.2h-1a1.7,1.7,0,0,0-.7.1h-2.4a4.1,4.1,0,0,0-1.1.1,4.3,4.3,0,0,1-1.6,0H135a2.77,2.77,0,0,1-.9-.1h-.2a6.15,6.15,0,0,1-1.3-.1,4.87,4.87,0,0,0-1.2-.1l-1.2-.3-.1-.1c0-.1,0-.2.1-.2l.4-.1a6.28,6.28,0,0,1,1.9-.3c.3,0,.6-.2,1-.1a1.39,1.39,0,0,0,.9,0,10.87,10.87,0,0,1,1.8-.1,1.45,1.45,0,0,1-.7.2,4.4,4.4,0,0,0-1,.2c-.1,0-.1,0-.2.1s-.1.1-.1.2l.1.1a1.88,1.88,0,0,0,.8.2l1.4.3c1,.1,2,.1,3,.1A7.72,7.72,0,0,1,141,87c.4-.1.7-.1,1.1-.2s.8-.1,1.1-.2a.35.35,0,0,0,.2-.1s.1-.1,0-.1h0c-.2-.1-.3-.1-.5-.2a1,1,0,0,0-.5-.4"/><path class="cls-18" d="M142,85.74c0,.1-.1.1-.2.1a.1.1,0,0,1-.1-.1c.1,0,.2-.1.3,0h0"/><path class="cls-3" d="M122.4,80.84a3.4,3.4,0,0,1-1-.1H121a3.75,3.75,0,0,1-1.1-.1h-.4a2.2,2.2,0,0,1-.8-.1h-.3a4.1,4.1,0,0,1-1.1-.1.1.1,0,0,1,0-.2,6.15,6.15,0,0,1,1.4-.1,1.27,1.27,0,0,0,.6-.1h.3a8.6,8.6,0,0,0,1.6-.1H123l.1.1v.1h-.4a4.25,4.25,0,0,0-1.1.2l-.1.1v.1a.37.37,0,0,0,.3.1,4.1,4.1,0,0,0,1.1.1h.2v.1h0a.1.1,0,0,1-.1.1h-.2l-.4-.1m14.2-19.2h-2.9a1.7,1.7,0,0,1-.7-.1c-.2,0-.5-.1-.7,0a3.75,3.75,0,0,1-1.1-.1h-.1a9.15,9.15,0,0,1-1.7-.1,7.84,7.84,0,0,1-1.4-.2l-1-.1a11,11,0,0,1-2.6-.6l-.3-.1a.2.2,0,1,1,0-.4l.9-.3a11,11,0,0,1,1.8-.2c.5-.2,1,0,1.5-.2h.8a6.15,6.15,0,0,1,1.4-.1h.2a10.87,10.87,0,0,1,1.8-.1,1.7,1.7,0,0,0,.7-.1h7.4a7.08,7.08,0,0,0,1.4.1,2.77,2.77,0,0,1,.9.1h.4a3.4,3.4,0,0,1,1,.1h.1a7.57,7.57,0,0,1,1.5.1,22.11,22.11,0,0,1,2.5.5c.1,0,.1,0,.2.1s.1.1.1.2a.35.35,0,0,1-.1.2.37.37,0,0,1-.3.1,10.55,10.55,0,0,1-2.4.6c-.3,0-.7.2-1,.2s-.7.1-1.1.1a3.4,3.4,0,0,1-1,.1,14.77,14.77,0,0,1-2.1.1,1.27,1.27,0,0,0-.6.1.64.64,0,0,1-.6,0h-2.9m-.8-.3h2a1.7,1.7,0,0,1,.7-.1h.9a7.72,7.72,0,0,0,1.5-.2,15.52,15.52,0,0,0,2.1-.4.1.1,0,0,0,.1-.1h0l-.1-.1c-.1-.1-.3,0-.4.1a2.2,2.2,0,0,0-.8.1,3.4,3.4,0,0,1-1,.1h-.3a4.48,4.48,0,0,1-1.1.1,6.15,6.15,0,0,0-1.4.1.64.64,0,0,1-.6,0,1.7,1.7,0,0,0-.7-.1h-2.1a4.1,4.1,0,0,0-1.1-.1H133a3.4,3.4,0,0,0-1-.1h-.4a1.27,1.27,0,0,0-.6-.1,2.77,2.77,0,0,1-.9-.1c-.1,0-.1,0-.1-.1a.1.1,0,0,1,.1-.1,7.57,7.57,0,0,1,1.5-.1h.4a7.57,7.57,0,0,1,1.5-.1h.6c.2,0,.5-.1.7-.1h5.5a12.1,12.1,0,0,0,1.9.1h.2a.9.9,0,0,0,.5.1c.3,0,.5.1.7.1s.1.1.2.1.1.1.2.1a.37.37,0,0,0,.1-.3V60a.22.22,0,0,0-.2-.2,12.23,12.23,0,0,0-1.7-.3,4.19,4.19,0,0,0-1.6-.1h-.2a1.27,1.27,0,0,0-.6-.1,11.48,11.48,0,0,1-1.9-.1H134a1.7,1.7,0,0,1-.7.1h-1.5a2.2,2.2,0,0,1-.8.1h-.4a8.75,8.75,0,0,1-1.6.2c-.5.1-.9.2-1.3.3-.1,0-.1.1-.2.1a.19.19,0,0,0,0,.3h0c.1,0,.1.1.2.1a8.33,8.33,0,0,0,1.5.4,10.68,10.68,0,0,0,2.5.3h.2a1.7,1.7,0,0,0,.7.1h.9a4.1,4.1,0,0,0,1.1.1h1.2m.3-1.5h-1.3a5.85,5.85,0,0,0-1.3.2.1.1,0,0,0-.1.1v.1a5.27,5.27,0,0,0,1.2.3h2.6a5,5,0,0,0,1.2-.2.1.1,0,0,0,0-.2,4.87,4.87,0,0,0-1.2-.1h-1.1"/><path class="cls-18" d="M135.8,61.24h-1.2a4.1,4.1,0,0,1-1.1-.1h-.9a1.48,1.48,0,0,1-.7-.1h-.2a21.3,21.3,0,0,1-2.5-.3,8.33,8.33,0,0,1-1.5-.4c-.1,0-.1,0-.2-.1a.19.19,0,0,1,0-.3h0c.1,0,.1-.1.2-.1l1.3-.3c.4-.1,1.1-.1,1.6-.2h.4a2.2,2.2,0,0,0,.8-.1h1.5a1.7,1.7,0,0,0,.7-.1h3.9a6.08,6.08,0,0,0,1.9.1,1.27,1.27,0,0,1,.6.1h.2a9.15,9.15,0,0,1,1.6.1c.6.1,1.2.2,1.7.3a.35.35,0,0,1,.2.1c0,.1,0,.2-.1.2s-.1,0-.2-.1-.1-.1-.2-.1a1.7,1.7,0,0,0-.7-.1.9.9,0,0,1-.5-.1h-.2c-.6,0-1.3-.1-1.9-.1h-5.5a1.7,1.7,0,0,0-.7.1c-.2,0-.4.1-.6,0a7.57,7.57,0,0,0-1.5.1h-.4c-.5,0-1,.1-1.5.1a.1.1,0,0,0-.1.1c0,.1,0,.1.1.1a2.77,2.77,0,0,0,.9.1,1.27,1.27,0,0,1,.6.1h.4a3.4,3.4,0,0,1,1,.1h.5a4.1,4.1,0,0,1,1.1.1h2.1a1.7,1.7,0,0,1,.7.1.64.64,0,0,0,.6,0,7.08,7.08,0,0,1,1.4-.1,3.75,3.75,0,0,0,1.1-.1h.3a3.4,3.4,0,0,0,1-.1c.3,0,.5-.1.8-.1.1,0,.2-.1.4-.1s.1,0,.1.1,0,.1-.1.1h0c-.7.1-1.4.3-2.1.4a7.72,7.72,0,0,1-1.5.2h-.9a1.7,1.7,0,0,0-.7.1h-2"/><path class="cls-18" d="M136.1,59.94h1.3c.4,0,.8.1,1.2.1a.1.1,0,0,1,.1.1c0,.1,0,.1-.1.1a5,5,0,0,1-1.2.2h-2.6a2.66,2.66,0,0,1-1.2-.3V60a.1.1,0,0,1,.1-.1c.4-.1.9-.1,1.3-.2h1.1"/><path class="cls-12" d="M219.44,41V77.56a.43.43,0,0,1-.49.49h-5.88c-.32,0-.49,0-.49-.49V26.93c0-.82,0-.82.82-.82H215a.85.85,0,0,1,.66.33l.32.49,24.66,33.8.66,1c.16,0,.16-.16.16-.32V27.09c0-1.31-.16-1.14,1.14-1.14h5.23a.35.35,0,0,1,.33.32V78.05c0,.65,0,.65-.66.65h-1.47c-.49-.16-.65-.65-.81-1.14L219.93,41.79c.17-.16-.16-.49-.49-.82"/><path class="cls-27" d="M423.75,34c-.49-.33-1-.49-1.47-.82a19.31,19.31,0,0,0-4.08-1.3,27.81,27.81,0,0,0-6.37-.33A12.07,12.07,0,0,0,404,35.09,19.07,19.07,0,0,0,399.58,42,26.41,26.41,0,0,0,398,48.81c-.16,1.8-.16,3.6-.16,5.39a25.14,25.14,0,0,0,1.63,8.33,16,16,0,0,0,3.75,5.55,13.25,13.25,0,0,0,7.35,4.09,16.33,16.33,0,0,0,8.82-1,14,14,0,0,0,4.41-3.27l.49-.49c0-.16.17-.16.33,0h0l.16.33,3.11,4.41c0,.16.16.16.16.32a.31.31,0,0,1,0,.49l-.49.49a20.48,20.48,0,0,1-10,4.9,26.3,26.3,0,0,1-8,.33,18.18,18.18,0,0,1-13.39-7.51,26,26,0,0,1-4.73-9.48,33.83,33.83,0,0,1-1-11.43,33.4,33.4,0,0,1,1.63-8.82A26.61,26.61,0,0,1,398.44,31a20,20,0,0,1,11.1-5.55,11.93,11.93,0,0,1,2.45-.17,33.83,33.83,0,0,1,9,.82,16.59,16.59,0,0,1,4.73,1.63c.33.17.49.33.33.66l-2.12,5.22c0,.17,0,.17-.17.33m34.46,40c-.16,0-.16.17-.32.33A13,13,0,0,1,451,78.37a18.29,18.29,0,0,1-6.7.49l-2.45-.49a11.13,11.13,0,0,1-7.18-10.12,12,12,0,0,1,3.75-9.31,16.8,16.8,0,0,1,8-4.41,21.06,21.06,0,0,1,7.19-.66h.65c.33,0,.33.17.33.33v4.25a.5.5,0,0,1-.16.32,16.07,16.07,0,0,0-3.92,0,11.14,11.14,0,0,0-7.19,3.76,7.38,7.38,0,0,0-1.63,7,4.89,4.89,0,0,0,2.61,3.11,7.88,7.88,0,0,0,2.61.65A10.57,10.57,0,0,0,456.09,70l1.14-1.14a1.21,1.21,0,0,0,.33-.82V55a18.67,18.67,0,0,0-.49-4.25c-.16-.32-.16-.65-.33-.81a6.26,6.26,0,0,0-4.9-4.09,6.79,6.79,0,0,0-1.79-.16,15.82,15.82,0,0,0-5.56.49,14.24,14.24,0,0,0-4.41,2.29c-.16.16-.32.32-.49.32l-.16-.16L437,43.75c-.16-.33-.16-.49.16-.65a10.66,10.66,0,0,1,2.29-1.31,21,21,0,0,1,10-2.12,21.68,21.68,0,0,1,6.54,1,10.43,10.43,0,0,1,2,.81A10,10,0,0,1,463,47a14.66,14.66,0,0,1,1.14,4.41,16.9,16.9,0,0,1,.17,4.08V68.74a20.37,20.37,0,0,0,.32,3.1,6,6,0,0,0,2.29,3.59c.16.17.33.33.33.49V78.7A.59.59,0,0,1,467,79h0a13.77,13.77,0,0,1-5.06-.82,6.67,6.67,0,0,1-3.43-3.27c.16-.65,0-1-.33-1"/><path class="cls-28" d="M285.42,73.31a15.19,15.19,0,0,1-8.82,5.39,12,12,0,0,1-3.43.16,12.62,12.62,0,0,1-3.59-.65,11.05,11.05,0,0,1-7-6.21,17.33,17.33,0,0,1-1.14-4.9v-26c0-1.15,0-1.15,1.14-1.15H268c.16,0,.16.17.16.33V63.84a25.62,25.62,0,0,0,.33,3.59,7.82,7.82,0,0,0,.65,1.8,6.29,6.29,0,0,0,4.25,3.59,11,11,0,0,0,6.86-.65,11.37,11.37,0,0,0,3.59-2.62,8.6,8.6,0,0,0,1.14-1.47,3.74,3.74,0,0,0,.66-2.28V41.3c0-1.47-.17-1.31,1.14-1.31H292c.16,0,.16.17.16.33V77.56c0,.32,0,.49-.49.49h-5.55c-.66,0-.66,0-.66-.66V74a.48.48,0,0,0,0-.65"/><path class="cls-27" d="M510.8,69.55a.92.92,0,0,1,.82.49,33.64,33.64,0,0,0,4.24,2.29,12.94,12.94,0,0,0,3.6,1,9.1,9.1,0,0,0,3.59-.49,4.42,4.42,0,0,0,3.1-3.59,5,5,0,0,0-1.47-4.9,10.09,10.09,0,0,0-2.12-1.64c-.82-.49-1.63-.81-2.45-1.3-1.63-.82-3.27-1.47-4.74-2.29a13.75,13.75,0,0,1-3.75-2.94A10.78,10.78,0,0,1,509,51.59a9.75,9.75,0,0,1,.33-5.72,7.82,7.82,0,0,1,2.78-3.75,11.87,11.87,0,0,1,5.71-2.45,17.19,17.19,0,0,1,8.17.49c1.63.49,3.27,1,4.9,1.63a1.19,1.19,0,0,1,.65.33c-.65,2-1.14,4.08-1.79,6l-1-.65a13.16,13.16,0,0,0-5.39-2.29,8.12,8.12,0,0,0-4.41.33,3.88,3.88,0,0,0-2,1.14,2.77,2.77,0,0,0-1,2.45,5.14,5.14,0,0,0,1.47,3.75A7.92,7.92,0,0,0,520,54.53l4.57,2.12a28.53,28.53,0,0,1,3.76,2.12,8.75,8.75,0,0,1,2.28,2,9.81,9.81,0,0,1,2.62,5.72,10.57,10.57,0,0,1-.17,3.92,9,9,0,0,1-3.92,6,16.12,16.12,0,0,1-5.22,2.13,22.53,22.53,0,0,1-14.54-2.29c-1-.49-.82-.33-.49-1.31l1.8-4.73c0-.17.16-.49.16-.66M496.92,48.16c-.33,0-.49-.33-.82-.49a17.18,17.18,0,0,0-4.57-2.29,11.81,11.81,0,0,0-4.74,0,5,5,0,0,0-1.63.66,3.51,3.51,0,0,0-1.8,4.41,4,4,0,0,0,1.8,2.77,10.43,10.43,0,0,0,2.29,1.31L492,56.65c1.31.65,2.61,1.31,3.92,2.12a9.22,9.22,0,0,1,1.47,1.15,9.91,9.91,0,0,1,3.43,6.37,12.43,12.43,0,0,1-.16,4.24,8.83,8.83,0,0,1-3.76,5.56,13.08,13.08,0,0,1-5.39,2.28,22.93,22.93,0,0,1-14.37-2.12c-1.15-.65-1-.33-.66-1.47a46.34,46.34,0,0,1,1.64-4.41,2.35,2.35,0,0,0,.32-1l1,.49A17.09,17.09,0,0,0,484,72.17a11,11,0,0,0,5.06.65l2.12-.49a4.15,4.15,0,0,0,2.45-2.78,5.18,5.18,0,0,0-1.3-5.39,12.58,12.58,0,0,0-2.29-1.79,13.81,13.81,0,0,0-2.12-1.15c-1.8-.81-3.43-1.63-5.23-2.45a15.55,15.55,0,0,1-4.08-3.26,9.53,9.53,0,0,1-1.8-9.47,7.47,7.47,0,0,1,3.1-4.25,11.06,11.06,0,0,1,5.39-2.12,18.59,18.59,0,0,1,8.5.49c1.63.49,3.1,1,4.73,1.63.33.16.49.16.33.65l-1.63,5.39c-.17.17-.17.33-.33.33"/><path class="cls-12" d="M314,29.7v10c0,.32,0,.49.49.49h9.15c.82,0,.82,0,.82.81v4.09c0,.49,0,.49-.49.49h-9.64a.35.35,0,0,0-.33.32V64.65a27.26,27.26,0,0,0,.33,3.76,12.39,12.39,0,0,0,.33,1.31,5,5,0,0,0,3.43,3.1,18.38,18.38,0,0,0,2.94.33,9.43,9.43,0,0,0,4.08-1c.16,0,.33-.17.65-.33s.33,0,.33.33l.33,2c.16,1.14.32,2.12.49,3.1,0,.16,0,.33-.17.33h0c-.65.16-1.47.32-2.12.49a42.7,42.7,0,0,1-6.37.49,10.54,10.54,0,0,1-10.45-7.35,17.69,17.69,0,0,1-.82-4.25V45.87c0-.32,0-.49-.49-.49H302.9c-.17,0-.17-.16-.17-.32V40.48c0-.32,0-.49.49-.49h3.11c.81,0,.81,0,.81-.65v-6.7c0-.32.17-.65.49-.65l2.45-.82c1-.32,2-.81,2.94-1.14.33-.33.66-.49,1-.33m30.22,16.17c.32-.16.49-.49.65-.65a15,15,0,0,1,2.94-3.43A12,12,0,0,1,354,39.5a15.08,15.08,0,0,1,4.73.33,4.59,4.59,0,0,1,1.47.33c.17.16,0,.32,0,.49-.81,2-1.63,3.75-2.45,5.71,0,.17-.16.17-.16.33-.33-.16-.49-.33-.82-.49a7.61,7.61,0,0,0-3.75-1A7.41,7.41,0,0,0,348.3,47a10.73,10.73,0,0,0-3.76,6.2,8.71,8.71,0,0,0-.32,3.59V77.23c0,1.31.16,1.14-1.15,1.14h-5.22c-.33,0-.33-.16-.33-.32V41.14c0-1.15,0-1,1-1h5.39c.33,0,.33.16.33.49v5.22M378.51,59.1v18c0,1.14,0,1.14-1,1.14h-5.39a.56.56,0,0,1-.32-.16h0V46.2a.36.36,0,0,0-.33-.33h-4.57c-.17,0-.17-.16-.17-.32V40.48c0-.16.17-.16.17-.32h11.43a.35.35,0,0,1,.33.32l-.17,18.62m-3.1-25a4.17,4.17,0,1,1,4.08-4.24h0a4.29,4.29,0,0,1-4.08,4.24h0"/></g></g></svg>